%TF.GenerationSoftware,KiCad,Pcbnew,9.0.9-9.0.9~ubuntu24.04.1*%
%TF.CreationDate,2026-10-04T14:20:13+00:00*%
%TF.ProjectId,adc,6164632e-6b69-4636-9164-5f7063625858,rev?*%
%TF.SameCoordinates,Original*%
%TF.FileFunction,Copper,L2,Bot*%
%TF.FilePolarity,Positive*%
%FSLAX46Y46*%
G04 Gerber Fmt 4.6, Leading zero omitted, Abs format (unit mm)*
G04 Created by KiCad (PCBNEW 9.0.9-9.0.9~ubuntu24.04.1) date 2026-10-04 14:20:13*
%MOMM*%
%LPD*%
G01*
G04 APERTURE LIST*
%TA.AperFunction,ComponentPad*%
%ADD10R,1.350000X1.350000*%
%TD*%
%TA.AperFunction,ComponentPad*%
%ADD11C,1.350000*%
%TD*%
%TA.AperFunction,ViaPad*%
%ADD12C,0.600000*%
%TD*%
%TA.AperFunction,Conductor*%
%ADD13C,0.200000*%
%TD*%
G04 APERTURE END LIST*
D10*
%TO.P,JP1,1*%
%TO.N,IN7*%
X57000000Y-18000000D03*
D11*
%TO.P,JP1,2*%
%TO.N,A7*%
X59000000Y-18000000D03*
%TO.P,JP1,3*%
%TO.N,MID*%
X61000000Y-18000000D03*
%TD*%
D10*
%TO.P,J1,1*%
%TO.N,SENS_3V3*%
X57000000Y-29000000D03*
D11*
%TO.P,J1,2*%
%TO.N,GND*%
X59000000Y-29000000D03*
%TO.P,J1,3*%
%TO.N,ADC_SCK*%
X61000000Y-29000000D03*
%TO.P,J1,4*%
%TO.N,ADC_MOSI*%
X63000000Y-29000000D03*
%TO.P,J1,5*%
%TO.N,ADC_MISO*%
X65000000Y-29000000D03*
%TO.P,J1,6*%
%TO.N,ADC_CS*%
X67000000Y-29000000D03*
%TD*%
D10*
%TO.P,J2,1*%
%TO.N,SENS_3V3*%
X12000000Y-10000000D03*
D11*
%TO.P,J2,2*%
%TO.N,GND*%
X14000000Y-10000000D03*
%TO.P,J2,3*%
%TO.N,A0*%
X16000000Y-10000000D03*
%TO.P,J2,4*%
%TO.N,SENS_3V3*%
X18000000Y-10000000D03*
%TO.P,J2,5*%
%TO.N,GND*%
X20000000Y-10000000D03*
%TO.P,J2,6*%
%TO.N,A1*%
X22000000Y-10000000D03*
%TO.P,J2,7*%
%TO.N,SENS_3V3*%
X24000000Y-10000000D03*
%TO.P,J2,8*%
%TO.N,GND*%
X26000000Y-10000000D03*
%TO.P,J2,9*%
%TO.N,A2*%
X28000000Y-10000000D03*
%TO.P,J2,10*%
%TO.N,SENS_3V3*%
X30000000Y-10000000D03*
%TO.P,J2,11*%
%TO.N,GND*%
X32000000Y-10000000D03*
%TO.P,J2,12*%
%TO.N,A3*%
X34000000Y-10000000D03*
%TO.P,J2,13*%
%TO.N,SENS_3V3*%
X36000000Y-10000000D03*
%TO.P,J2,14*%
%TO.N,GND*%
X38000000Y-10000000D03*
%TO.P,J2,15*%
%TO.N,A4*%
X40000000Y-10000000D03*
%TO.P,J2,16*%
%TO.N,SENS_3V3*%
X42000000Y-10000000D03*
%TO.P,J2,17*%
%TO.N,GND*%
X44000000Y-10000000D03*
%TO.P,J2,18*%
%TO.N,A5*%
X46000000Y-10000000D03*
%TO.P,J2,19*%
%TO.N,SENS_3V3*%
X48000000Y-10000000D03*
%TO.P,J2,20*%
%TO.N,GND*%
X50000000Y-10000000D03*
%TO.P,J2,21*%
%TO.N,A6*%
X52000000Y-10000000D03*
%TO.P,J2,22*%
%TO.N,SENS_3V3*%
X54000000Y-10000000D03*
%TO.P,J2,23*%
%TO.N,GND*%
X56000000Y-10000000D03*
%TO.P,J2,24*%
%TO.N,IN7*%
X58000000Y-10000000D03*
%TD*%
D12*
%TO.N,A5*%
X41242600Y-24999500D03*
X37611800Y-28340900D03*
%TO.N,A6*%
X41267000Y-30000000D03*
X34059600Y-29752000D03*
%TO.N,A7*%
X42695100Y-33998000D03*
%TO.N,ADC_OUT_RAW*%
X34555500Y-32746200D03*
X29444300Y-27635000D03*
%TO.N,SENS_3V3*%
X31979800Y-22534200D03*
%TD*%
D13*
%TO.N,A5*%
X46000000Y-10000000D02*
X46000000Y-20242100D01*
X37901200Y-28340900D02*
X41242600Y-24999500D01*
X46000000Y-20242100D02*
X41242600Y-24999500D01*
X37611800Y-28340900D02*
X37901200Y-28340900D01*
%TO.N,A6*%
X41267000Y-29752000D02*
X34059600Y-29752000D01*
X52000000Y-19019000D02*
X41267000Y-29752000D01*
X41267000Y-29752000D02*
X41267000Y-30000000D01*
X52000000Y-10000000D02*
X52000000Y-19019000D01*
%TO.N,A7*%
X59000000Y-18000000D02*
X43002000Y-33998000D01*
X43002000Y-33998000D02*
X42695100Y-33998000D01*
%TO.N,ADC_OUT_RAW*%
X29444300Y-27635000D02*
X34555500Y-32746200D01*
%TO.N,GND*%
X32000000Y-10000000D02*
X31016600Y-9016600D01*
X55013200Y-9013200D02*
X50986800Y-9013200D01*
X38997200Y-9002800D02*
X38000000Y-10000000D01*
X26000000Y-10000000D02*
X25016600Y-9016600D01*
X56000000Y-10000000D02*
X55013200Y-9013200D01*
X25016600Y-9016600D02*
X20983400Y-9016600D01*
X32980100Y-9019900D02*
X32000000Y-10000000D01*
X20983400Y-9016600D02*
X20000000Y-10000000D01*
X14983400Y-9016600D02*
X14000000Y-10000000D01*
X38000000Y-10000000D02*
X37019900Y-9019900D01*
X44000000Y-10000000D02*
X43002800Y-9002800D01*
X37019900Y-9019900D02*
X32980100Y-9019900D01*
X43002800Y-9002800D02*
X38997200Y-9002800D01*
X50986800Y-9013200D02*
X50000000Y-10000000D01*
X26983400Y-9016600D02*
X26000000Y-10000000D01*
X20000000Y-10000000D02*
X19016600Y-9016600D01*
X19016600Y-9016600D02*
X14983400Y-9016600D01*
X31016600Y-9016600D02*
X26983400Y-9016600D01*
%TO.N,IN7*%
X58000000Y-10000000D02*
X58000000Y-16023100D01*
X57000000Y-18000000D02*
X57000000Y-17023100D01*
X58000000Y-16023100D02*
X57000000Y-17023100D01*
%TO.N,SENS_3V3*%
X17023100Y-10976900D02*
X13587400Y-10976900D01*
X35002700Y-10997300D02*
X31979800Y-10997300D01*
X42000000Y-10000000D02*
X41023100Y-10976900D01*
X12000000Y-10000000D02*
X12976900Y-10000000D01*
X31979800Y-10997300D02*
X30997300Y-10997300D01*
X13587400Y-10976900D02*
X12976900Y-10366400D01*
X18000000Y-10000000D02*
X17023100Y-10976900D01*
X31979800Y-10997300D02*
X31979800Y-22534200D01*
X12976900Y-10366400D02*
X12976900Y-10000000D01*
X36976900Y-10976900D02*
X36000000Y-10000000D01*
X36000000Y-10000000D02*
X35002700Y-10997300D01*
X41023100Y-10976900D02*
X36976900Y-10976900D01*
X30997300Y-10997300D02*
X30000000Y-10000000D01*
%TD*%
M02*
