%TF.GenerationSoftware,KiCad,Pcbnew,9.0.9-9.0.9~ubuntu24.04.1*%
%TF.CreationDate,2026-10-04T14:00:57+00:00*%
%TF.ProjectId,adc,6164632e-6b69-4636-9164-5f7063625858,rev?*%
%TF.SameCoordinates,Original*%
%TF.FileFunction,AssemblyDrawing,Top*%
%FSLAX46Y46*%
G04 Gerber Fmt 4.6, Leading zero omitted, Abs format (unit mm)*
G04 Created by KiCad (PCBNEW 9.0.9-9.0.9~ubuntu24.04.1) date 2026-10-04 14:00:57*
%MOMM*%
%LPD*%
G01*
G04 APERTURE LIST*
%ADD10C,0.120000*%
G04 APERTURE END LIST*
D10*
X66866667Y-15363855D02*
X66600000Y-14982902D01*
X66409524Y-15363855D02*
X66409524Y-14563855D01*
X66409524Y-14563855D02*
X66714286Y-14563855D01*
X66714286Y-14563855D02*
X66790476Y-14601950D01*
X66790476Y-14601950D02*
X66828571Y-14640045D01*
X66828571Y-14640045D02*
X66866667Y-14716236D01*
X66866667Y-14716236D02*
X66866667Y-14830521D01*
X66866667Y-14830521D02*
X66828571Y-14906712D01*
X66828571Y-14906712D02*
X66790476Y-14944807D01*
X66790476Y-14944807D02*
X66714286Y-14982902D01*
X66714286Y-14982902D02*
X66409524Y-14982902D01*
X67247619Y-15363855D02*
X67400000Y-15363855D01*
X67400000Y-15363855D02*
X67476190Y-15325760D01*
X67476190Y-15325760D02*
X67514286Y-15287664D01*
X67514286Y-15287664D02*
X67590476Y-15173379D01*
X67590476Y-15173379D02*
X67628571Y-15020998D01*
X67628571Y-15020998D02*
X67628571Y-14716236D01*
X67628571Y-14716236D02*
X67590476Y-14640045D01*
X67590476Y-14640045D02*
X67552381Y-14601950D01*
X67552381Y-14601950D02*
X67476190Y-14563855D01*
X67476190Y-14563855D02*
X67323809Y-14563855D01*
X67323809Y-14563855D02*
X67247619Y-14601950D01*
X67247619Y-14601950D02*
X67209524Y-14640045D01*
X67209524Y-14640045D02*
X67171428Y-14716236D01*
X67171428Y-14716236D02*
X67171428Y-14906712D01*
X67171428Y-14906712D02*
X67209524Y-14982902D01*
X67209524Y-14982902D02*
X67247619Y-15020998D01*
X67247619Y-15020998D02*
X67323809Y-15059093D01*
X67323809Y-15059093D02*
X67476190Y-15059093D01*
X67476190Y-15059093D02*
X67552381Y-15020998D01*
X67552381Y-15020998D02*
X67590476Y-14982902D01*
X67590476Y-14982902D02*
X67628571Y-14906712D01*
X13866667Y-17363855D02*
X13600000Y-16982902D01*
X13409524Y-17363855D02*
X13409524Y-16563855D01*
X13409524Y-16563855D02*
X13714286Y-16563855D01*
X13714286Y-16563855D02*
X13790476Y-16601950D01*
X13790476Y-16601950D02*
X13828571Y-16640045D01*
X13828571Y-16640045D02*
X13866667Y-16716236D01*
X13866667Y-16716236D02*
X13866667Y-16830521D01*
X13866667Y-16830521D02*
X13828571Y-16906712D01*
X13828571Y-16906712D02*
X13790476Y-16944807D01*
X13790476Y-16944807D02*
X13714286Y-16982902D01*
X13714286Y-16982902D02*
X13409524Y-16982902D01*
X14628571Y-17363855D02*
X14171428Y-17363855D01*
X14400000Y-17363855D02*
X14400000Y-16563855D01*
X14400000Y-16563855D02*
X14323809Y-16678140D01*
X14323809Y-16678140D02*
X14247619Y-16754331D01*
X14247619Y-16754331D02*
X14171428Y-16792426D01*
X56733333Y-25563855D02*
X56733333Y-26135283D01*
X56733333Y-26135283D02*
X56695238Y-26249569D01*
X56695238Y-26249569D02*
X56619047Y-26325760D01*
X56619047Y-26325760D02*
X56504762Y-26363855D01*
X56504762Y-26363855D02*
X56428571Y-26363855D01*
X57533333Y-26363855D02*
X57076190Y-26363855D01*
X57304762Y-26363855D02*
X57304762Y-25563855D01*
X57304762Y-25563855D02*
X57228571Y-25678140D01*
X57228571Y-25678140D02*
X57152381Y-25754331D01*
X57152381Y-25754331D02*
X57076190Y-25792426D01*
X13866667Y-32363855D02*
X13600000Y-31982902D01*
X13409524Y-32363855D02*
X13409524Y-31563855D01*
X13409524Y-31563855D02*
X13714286Y-31563855D01*
X13714286Y-31563855D02*
X13790476Y-31601950D01*
X13790476Y-31601950D02*
X13828571Y-31640045D01*
X13828571Y-31640045D02*
X13866667Y-31716236D01*
X13866667Y-31716236D02*
X13866667Y-31830521D01*
X13866667Y-31830521D02*
X13828571Y-31906712D01*
X13828571Y-31906712D02*
X13790476Y-31944807D01*
X13790476Y-31944807D02*
X13714286Y-31982902D01*
X13714286Y-31982902D02*
X13409524Y-31982902D01*
X14552381Y-31830521D02*
X14552381Y-32363855D01*
X14361905Y-31525760D02*
X14171428Y-32097188D01*
X14171428Y-32097188D02*
X14666667Y-32097188D01*
X42866667Y-32363855D02*
X42600000Y-31982902D01*
X42409524Y-32363855D02*
X42409524Y-31563855D01*
X42409524Y-31563855D02*
X42714286Y-31563855D01*
X42714286Y-31563855D02*
X42790476Y-31601950D01*
X42790476Y-31601950D02*
X42828571Y-31640045D01*
X42828571Y-31640045D02*
X42866667Y-31716236D01*
X42866667Y-31716236D02*
X42866667Y-31830521D01*
X42866667Y-31830521D02*
X42828571Y-31906712D01*
X42828571Y-31906712D02*
X42790476Y-31944807D01*
X42790476Y-31944807D02*
X42714286Y-31982902D01*
X42714286Y-31982902D02*
X42409524Y-31982902D01*
X43323809Y-31906712D02*
X43247619Y-31868617D01*
X43247619Y-31868617D02*
X43209524Y-31830521D01*
X43209524Y-31830521D02*
X43171428Y-31754331D01*
X43171428Y-31754331D02*
X43171428Y-31716236D01*
X43171428Y-31716236D02*
X43209524Y-31640045D01*
X43209524Y-31640045D02*
X43247619Y-31601950D01*
X43247619Y-31601950D02*
X43323809Y-31563855D01*
X43323809Y-31563855D02*
X43476190Y-31563855D01*
X43476190Y-31563855D02*
X43552381Y-31601950D01*
X43552381Y-31601950D02*
X43590476Y-31640045D01*
X43590476Y-31640045D02*
X43628571Y-31716236D01*
X43628571Y-31716236D02*
X43628571Y-31754331D01*
X43628571Y-31754331D02*
X43590476Y-31830521D01*
X43590476Y-31830521D02*
X43552381Y-31868617D01*
X43552381Y-31868617D02*
X43476190Y-31906712D01*
X43476190Y-31906712D02*
X43323809Y-31906712D01*
X43323809Y-31906712D02*
X43247619Y-31944807D01*
X43247619Y-31944807D02*
X43209524Y-31982902D01*
X43209524Y-31982902D02*
X43171428Y-32059093D01*
X43171428Y-32059093D02*
X43171428Y-32211474D01*
X43171428Y-32211474D02*
X43209524Y-32287664D01*
X43209524Y-32287664D02*
X43247619Y-32325760D01*
X43247619Y-32325760D02*
X43323809Y-32363855D01*
X43323809Y-32363855D02*
X43476190Y-32363855D01*
X43476190Y-32363855D02*
X43552381Y-32325760D01*
X43552381Y-32325760D02*
X43590476Y-32287664D01*
X43590476Y-32287664D02*
X43628571Y-32211474D01*
X43628571Y-32211474D02*
X43628571Y-32059093D01*
X43628571Y-32059093D02*
X43590476Y-31982902D01*
X43590476Y-31982902D02*
X43552381Y-31944807D01*
X43552381Y-31944807D02*
X43476190Y-31906712D01*
X42866667Y-27363855D02*
X42600000Y-26982902D01*
X42409524Y-27363855D02*
X42409524Y-26563855D01*
X42409524Y-26563855D02*
X42714286Y-26563855D01*
X42714286Y-26563855D02*
X42790476Y-26601950D01*
X42790476Y-26601950D02*
X42828571Y-26640045D01*
X42828571Y-26640045D02*
X42866667Y-26716236D01*
X42866667Y-26716236D02*
X42866667Y-26830521D01*
X42866667Y-26830521D02*
X42828571Y-26906712D01*
X42828571Y-26906712D02*
X42790476Y-26944807D01*
X42790476Y-26944807D02*
X42714286Y-26982902D01*
X42714286Y-26982902D02*
X42409524Y-26982902D01*
X43133333Y-26563855D02*
X43666667Y-26563855D01*
X43666667Y-26563855D02*
X43323809Y-27363855D01*
X13866667Y-22363855D02*
X13600000Y-21982902D01*
X13409524Y-22363855D02*
X13409524Y-21563855D01*
X13409524Y-21563855D02*
X13714286Y-21563855D01*
X13714286Y-21563855D02*
X13790476Y-21601950D01*
X13790476Y-21601950D02*
X13828571Y-21640045D01*
X13828571Y-21640045D02*
X13866667Y-21716236D01*
X13866667Y-21716236D02*
X13866667Y-21830521D01*
X13866667Y-21830521D02*
X13828571Y-21906712D01*
X13828571Y-21906712D02*
X13790476Y-21944807D01*
X13790476Y-21944807D02*
X13714286Y-21982902D01*
X13714286Y-21982902D02*
X13409524Y-21982902D01*
X14171428Y-21640045D02*
X14209524Y-21601950D01*
X14209524Y-21601950D02*
X14285714Y-21563855D01*
X14285714Y-21563855D02*
X14476190Y-21563855D01*
X14476190Y-21563855D02*
X14552381Y-21601950D01*
X14552381Y-21601950D02*
X14590476Y-21640045D01*
X14590476Y-21640045D02*
X14628571Y-21716236D01*
X14628571Y-21716236D02*
X14628571Y-21792426D01*
X14628571Y-21792426D02*
X14590476Y-21906712D01*
X14590476Y-21906712D02*
X14133333Y-22363855D01*
X14133333Y-22363855D02*
X14628571Y-22363855D01*
X66485714Y-19363855D02*
X66219047Y-18982902D01*
X66028571Y-19363855D02*
X66028571Y-18563855D01*
X66028571Y-18563855D02*
X66333333Y-18563855D01*
X66333333Y-18563855D02*
X66409523Y-18601950D01*
X66409523Y-18601950D02*
X66447618Y-18640045D01*
X66447618Y-18640045D02*
X66485714Y-18716236D01*
X66485714Y-18716236D02*
X66485714Y-18830521D01*
X66485714Y-18830521D02*
X66447618Y-18906712D01*
X66447618Y-18906712D02*
X66409523Y-18944807D01*
X66409523Y-18944807D02*
X66333333Y-18982902D01*
X66333333Y-18982902D02*
X66028571Y-18982902D01*
X67247618Y-19363855D02*
X66790475Y-19363855D01*
X67019047Y-19363855D02*
X67019047Y-18563855D01*
X67019047Y-18563855D02*
X66942856Y-18678140D01*
X66942856Y-18678140D02*
X66866666Y-18754331D01*
X66866666Y-18754331D02*
X66790475Y-18792426D01*
X67742857Y-18563855D02*
X67819047Y-18563855D01*
X67819047Y-18563855D02*
X67895238Y-18601950D01*
X67895238Y-18601950D02*
X67933333Y-18640045D01*
X67933333Y-18640045D02*
X67971428Y-18716236D01*
X67971428Y-18716236D02*
X68009523Y-18868617D01*
X68009523Y-18868617D02*
X68009523Y-19059093D01*
X68009523Y-19059093D02*
X67971428Y-19211474D01*
X67971428Y-19211474D02*
X67933333Y-19287664D01*
X67933333Y-19287664D02*
X67895238Y-19325760D01*
X67895238Y-19325760D02*
X67819047Y-19363855D01*
X67819047Y-19363855D02*
X67742857Y-19363855D01*
X67742857Y-19363855D02*
X67666666Y-19325760D01*
X67666666Y-19325760D02*
X67628571Y-19287664D01*
X67628571Y-19287664D02*
X67590476Y-19211474D01*
X67590476Y-19211474D02*
X67552380Y-19059093D01*
X67552380Y-19059093D02*
X67552380Y-18868617D01*
X67552380Y-18868617D02*
X67590476Y-18716236D01*
X67590476Y-18716236D02*
X67628571Y-18640045D01*
X67628571Y-18640045D02*
X67666666Y-18601950D01*
X67666666Y-18601950D02*
X67742857Y-18563855D01*
X42866667Y-22363855D02*
X42600000Y-21982902D01*
X42409524Y-22363855D02*
X42409524Y-21563855D01*
X42409524Y-21563855D02*
X42714286Y-21563855D01*
X42714286Y-21563855D02*
X42790476Y-21601950D01*
X42790476Y-21601950D02*
X42828571Y-21640045D01*
X42828571Y-21640045D02*
X42866667Y-21716236D01*
X42866667Y-21716236D02*
X42866667Y-21830521D01*
X42866667Y-21830521D02*
X42828571Y-21906712D01*
X42828571Y-21906712D02*
X42790476Y-21944807D01*
X42790476Y-21944807D02*
X42714286Y-21982902D01*
X42714286Y-21982902D02*
X42409524Y-21982902D01*
X43552381Y-21563855D02*
X43400000Y-21563855D01*
X43400000Y-21563855D02*
X43323809Y-21601950D01*
X43323809Y-21601950D02*
X43285714Y-21640045D01*
X43285714Y-21640045D02*
X43209524Y-21754331D01*
X43209524Y-21754331D02*
X43171428Y-21906712D01*
X43171428Y-21906712D02*
X43171428Y-22211474D01*
X43171428Y-22211474D02*
X43209524Y-22287664D01*
X43209524Y-22287664D02*
X43247619Y-22325760D01*
X43247619Y-22325760D02*
X43323809Y-22363855D01*
X43323809Y-22363855D02*
X43476190Y-22363855D01*
X43476190Y-22363855D02*
X43552381Y-22325760D01*
X43552381Y-22325760D02*
X43590476Y-22287664D01*
X43590476Y-22287664D02*
X43628571Y-22211474D01*
X43628571Y-22211474D02*
X43628571Y-22020998D01*
X43628571Y-22020998D02*
X43590476Y-21944807D01*
X43590476Y-21944807D02*
X43552381Y-21906712D01*
X43552381Y-21906712D02*
X43476190Y-21868617D01*
X43476190Y-21868617D02*
X43323809Y-21868617D01*
X43323809Y-21868617D02*
X43247619Y-21906712D01*
X43247619Y-21906712D02*
X43209524Y-21944807D01*
X43209524Y-21944807D02*
X43171428Y-22020998D01*
X42866667Y-17363855D02*
X42600000Y-16982902D01*
X42409524Y-17363855D02*
X42409524Y-16563855D01*
X42409524Y-16563855D02*
X42714286Y-16563855D01*
X42714286Y-16563855D02*
X42790476Y-16601950D01*
X42790476Y-16601950D02*
X42828571Y-16640045D01*
X42828571Y-16640045D02*
X42866667Y-16716236D01*
X42866667Y-16716236D02*
X42866667Y-16830521D01*
X42866667Y-16830521D02*
X42828571Y-16906712D01*
X42828571Y-16906712D02*
X42790476Y-16944807D01*
X42790476Y-16944807D02*
X42714286Y-16982902D01*
X42714286Y-16982902D02*
X42409524Y-16982902D01*
X43590476Y-16563855D02*
X43209524Y-16563855D01*
X43209524Y-16563855D02*
X43171428Y-16944807D01*
X43171428Y-16944807D02*
X43209524Y-16906712D01*
X43209524Y-16906712D02*
X43285714Y-16868617D01*
X43285714Y-16868617D02*
X43476190Y-16868617D01*
X43476190Y-16868617D02*
X43552381Y-16906712D01*
X43552381Y-16906712D02*
X43590476Y-16944807D01*
X43590476Y-16944807D02*
X43628571Y-17020998D01*
X43628571Y-17020998D02*
X43628571Y-17211474D01*
X43628571Y-17211474D02*
X43590476Y-17287664D01*
X43590476Y-17287664D02*
X43552381Y-17325760D01*
X43552381Y-17325760D02*
X43476190Y-17363855D01*
X43476190Y-17363855D02*
X43285714Y-17363855D01*
X43285714Y-17363855D02*
X43209524Y-17325760D01*
X43209524Y-17325760D02*
X43171428Y-17287664D01*
X27390476Y-23563855D02*
X27390476Y-24211474D01*
X27390476Y-24211474D02*
X27428571Y-24287664D01*
X27428571Y-24287664D02*
X27466666Y-24325760D01*
X27466666Y-24325760D02*
X27542857Y-24363855D01*
X27542857Y-24363855D02*
X27695238Y-24363855D01*
X27695238Y-24363855D02*
X27771428Y-24325760D01*
X27771428Y-24325760D02*
X27809523Y-24287664D01*
X27809523Y-24287664D02*
X27847619Y-24211474D01*
X27847619Y-24211474D02*
X27847619Y-23563855D01*
X28647618Y-24363855D02*
X28190475Y-24363855D01*
X28419047Y-24363855D02*
X28419047Y-23563855D01*
X28419047Y-23563855D02*
X28342856Y-23678140D01*
X28342856Y-23678140D02*
X28266666Y-23754331D01*
X28266666Y-23754331D02*
X28190475Y-23792426D01*
X56333333Y-14563855D02*
X56333333Y-15135283D01*
X56333333Y-15135283D02*
X56295238Y-15249569D01*
X56295238Y-15249569D02*
X56219047Y-15325760D01*
X56219047Y-15325760D02*
X56104762Y-15363855D01*
X56104762Y-15363855D02*
X56028571Y-15363855D01*
X56714286Y-15363855D02*
X56714286Y-14563855D01*
X56714286Y-14563855D02*
X57019048Y-14563855D01*
X57019048Y-14563855D02*
X57095238Y-14601950D01*
X57095238Y-14601950D02*
X57133333Y-14640045D01*
X57133333Y-14640045D02*
X57171429Y-14716236D01*
X57171429Y-14716236D02*
X57171429Y-14830521D01*
X57171429Y-14830521D02*
X57133333Y-14906712D01*
X57133333Y-14906712D02*
X57095238Y-14944807D01*
X57095238Y-14944807D02*
X57019048Y-14982902D01*
X57019048Y-14982902D02*
X56714286Y-14982902D01*
X57933333Y-15363855D02*
X57476190Y-15363855D01*
X57704762Y-15363855D02*
X57704762Y-14563855D01*
X57704762Y-14563855D02*
X57628571Y-14678140D01*
X57628571Y-14678140D02*
X57552381Y-14754331D01*
X57552381Y-14754331D02*
X57476190Y-14792426D01*
X59390476Y-34563855D02*
X59390476Y-35211474D01*
X59390476Y-35211474D02*
X59428571Y-35287664D01*
X59428571Y-35287664D02*
X59466666Y-35325760D01*
X59466666Y-35325760D02*
X59542857Y-35363855D01*
X59542857Y-35363855D02*
X59695238Y-35363855D01*
X59695238Y-35363855D02*
X59771428Y-35325760D01*
X59771428Y-35325760D02*
X59809523Y-35287664D01*
X59809523Y-35287664D02*
X59847619Y-35211474D01*
X59847619Y-35211474D02*
X59847619Y-34563855D01*
X60190475Y-34640045D02*
X60228571Y-34601950D01*
X60228571Y-34601950D02*
X60304761Y-34563855D01*
X60304761Y-34563855D02*
X60495237Y-34563855D01*
X60495237Y-34563855D02*
X60571428Y-34601950D01*
X60571428Y-34601950D02*
X60609523Y-34640045D01*
X60609523Y-34640045D02*
X60647618Y-34716236D01*
X60647618Y-34716236D02*
X60647618Y-34792426D01*
X60647618Y-34792426D02*
X60609523Y-34906712D01*
X60609523Y-34906712D02*
X60152380Y-35363855D01*
X60152380Y-35363855D02*
X60647618Y-35363855D01*
X33866667Y-24287664D02*
X33828571Y-24325760D01*
X33828571Y-24325760D02*
X33714286Y-24363855D01*
X33714286Y-24363855D02*
X33638095Y-24363855D01*
X33638095Y-24363855D02*
X33523809Y-24325760D01*
X33523809Y-24325760D02*
X33447619Y-24249569D01*
X33447619Y-24249569D02*
X33409524Y-24173379D01*
X33409524Y-24173379D02*
X33371428Y-24020998D01*
X33371428Y-24020998D02*
X33371428Y-23906712D01*
X33371428Y-23906712D02*
X33409524Y-23754331D01*
X33409524Y-23754331D02*
X33447619Y-23678140D01*
X33447619Y-23678140D02*
X33523809Y-23601950D01*
X33523809Y-23601950D02*
X33638095Y-23563855D01*
X33638095Y-23563855D02*
X33714286Y-23563855D01*
X33714286Y-23563855D02*
X33828571Y-23601950D01*
X33828571Y-23601950D02*
X33866667Y-23640045D01*
X34171428Y-23640045D02*
X34209524Y-23601950D01*
X34209524Y-23601950D02*
X34285714Y-23563855D01*
X34285714Y-23563855D02*
X34476190Y-23563855D01*
X34476190Y-23563855D02*
X34552381Y-23601950D01*
X34552381Y-23601950D02*
X34590476Y-23640045D01*
X34590476Y-23640045D02*
X34628571Y-23716236D01*
X34628571Y-23716236D02*
X34628571Y-23792426D01*
X34628571Y-23792426D02*
X34590476Y-23906712D01*
X34590476Y-23906712D02*
X34133333Y-24363855D01*
X34133333Y-24363855D02*
X34628571Y-24363855D01*
X13866667Y-27363855D02*
X13600000Y-26982902D01*
X13409524Y-27363855D02*
X13409524Y-26563855D01*
X13409524Y-26563855D02*
X13714286Y-26563855D01*
X13714286Y-26563855D02*
X13790476Y-26601950D01*
X13790476Y-26601950D02*
X13828571Y-26640045D01*
X13828571Y-26640045D02*
X13866667Y-26716236D01*
X13866667Y-26716236D02*
X13866667Y-26830521D01*
X13866667Y-26830521D02*
X13828571Y-26906712D01*
X13828571Y-26906712D02*
X13790476Y-26944807D01*
X13790476Y-26944807D02*
X13714286Y-26982902D01*
X13714286Y-26982902D02*
X13409524Y-26982902D01*
X14133333Y-26563855D02*
X14628571Y-26563855D01*
X14628571Y-26563855D02*
X14361905Y-26868617D01*
X14361905Y-26868617D02*
X14476190Y-26868617D01*
X14476190Y-26868617D02*
X14552381Y-26906712D01*
X14552381Y-26906712D02*
X14590476Y-26944807D01*
X14590476Y-26944807D02*
X14628571Y-27020998D01*
X14628571Y-27020998D02*
X14628571Y-27211474D01*
X14628571Y-27211474D02*
X14590476Y-27287664D01*
X14590476Y-27287664D02*
X14552381Y-27325760D01*
X14552381Y-27325760D02*
X14476190Y-27363855D01*
X14476190Y-27363855D02*
X14247619Y-27363855D01*
X14247619Y-27363855D02*
X14171428Y-27325760D01*
X14171428Y-27325760D02*
X14133333Y-27287664D01*
X11733333Y-6563855D02*
X11733333Y-7135283D01*
X11733333Y-7135283D02*
X11695238Y-7249569D01*
X11695238Y-7249569D02*
X11619047Y-7325760D01*
X11619047Y-7325760D02*
X11504762Y-7363855D01*
X11504762Y-7363855D02*
X11428571Y-7363855D01*
X12076190Y-6640045D02*
X12114286Y-6601950D01*
X12114286Y-6601950D02*
X12190476Y-6563855D01*
X12190476Y-6563855D02*
X12380952Y-6563855D01*
X12380952Y-6563855D02*
X12457143Y-6601950D01*
X12457143Y-6601950D02*
X12495238Y-6640045D01*
X12495238Y-6640045D02*
X12533333Y-6716236D01*
X12533333Y-6716236D02*
X12533333Y-6792426D01*
X12533333Y-6792426D02*
X12495238Y-6906712D01*
X12495238Y-6906712D02*
X12038095Y-7363855D01*
X12038095Y-7363855D02*
X12533333Y-7363855D01*
X54866667Y-35287664D02*
X54828571Y-35325760D01*
X54828571Y-35325760D02*
X54714286Y-35363855D01*
X54714286Y-35363855D02*
X54638095Y-35363855D01*
X54638095Y-35363855D02*
X54523809Y-35325760D01*
X54523809Y-35325760D02*
X54447619Y-35249569D01*
X54447619Y-35249569D02*
X54409524Y-35173379D01*
X54409524Y-35173379D02*
X54371428Y-35020998D01*
X54371428Y-35020998D02*
X54371428Y-34906712D01*
X54371428Y-34906712D02*
X54409524Y-34754331D01*
X54409524Y-34754331D02*
X54447619Y-34678140D01*
X54447619Y-34678140D02*
X54523809Y-34601950D01*
X54523809Y-34601950D02*
X54638095Y-34563855D01*
X54638095Y-34563855D02*
X54714286Y-34563855D01*
X54714286Y-34563855D02*
X54828571Y-34601950D01*
X54828571Y-34601950D02*
X54866667Y-34640045D01*
X55133333Y-34563855D02*
X55628571Y-34563855D01*
X55628571Y-34563855D02*
X55361905Y-34868617D01*
X55361905Y-34868617D02*
X55476190Y-34868617D01*
X55476190Y-34868617D02*
X55552381Y-34906712D01*
X55552381Y-34906712D02*
X55590476Y-34944807D01*
X55590476Y-34944807D02*
X55628571Y-35020998D01*
X55628571Y-35020998D02*
X55628571Y-35211474D01*
X55628571Y-35211474D02*
X55590476Y-35287664D01*
X55590476Y-35287664D02*
X55552381Y-35325760D01*
X55552381Y-35325760D02*
X55476190Y-35363855D01*
X55476190Y-35363855D02*
X55247619Y-35363855D01*
X55247619Y-35363855D02*
X55171428Y-35325760D01*
X55171428Y-35325760D02*
X55133333Y-35287664D01*
X33866667Y-20287664D02*
X33828571Y-20325760D01*
X33828571Y-20325760D02*
X33714286Y-20363855D01*
X33714286Y-20363855D02*
X33638095Y-20363855D01*
X33638095Y-20363855D02*
X33523809Y-20325760D01*
X33523809Y-20325760D02*
X33447619Y-20249569D01*
X33447619Y-20249569D02*
X33409524Y-20173379D01*
X33409524Y-20173379D02*
X33371428Y-20020998D01*
X33371428Y-20020998D02*
X33371428Y-19906712D01*
X33371428Y-19906712D02*
X33409524Y-19754331D01*
X33409524Y-19754331D02*
X33447619Y-19678140D01*
X33447619Y-19678140D02*
X33523809Y-19601950D01*
X33523809Y-19601950D02*
X33638095Y-19563855D01*
X33638095Y-19563855D02*
X33714286Y-19563855D01*
X33714286Y-19563855D02*
X33828571Y-19601950D01*
X33828571Y-19601950D02*
X33866667Y-19640045D01*
X34628571Y-20363855D02*
X34171428Y-20363855D01*
X34400000Y-20363855D02*
X34400000Y-19563855D01*
X34400000Y-19563855D02*
X34323809Y-19678140D01*
X34323809Y-19678140D02*
X34247619Y-19754331D01*
X34247619Y-19754331D02*
X34171428Y-19792426D01*
M02*
