%TF.GenerationSoftware,KiCad,Pcbnew,9.0.9-9.0.9~ubuntu24.04.1*%
%TF.CreationDate,2026-10-04T14:00:57+00:00*%
%TF.ProjectId,adc,6164632e-6b69-4636-9164-5f7063625858,rev?*%
%TF.SameCoordinates,Original*%
%TF.FileFunction,Copper,L1,Top*%
%TF.FilePolarity,Positive*%
%FSLAX46Y46*%
G04 Gerber Fmt 4.6, Leading zero omitted, Abs format (unit mm)*
G04 Created by KiCad (PCBNEW 9.0.9-9.0.9~ubuntu24.04.1) date 2026-10-04 14:00:57*
%MOMM*%
%LPD*%
G01*
G04 APERTURE LIST*
%TA.AperFunction,SMDPad,CuDef*%
%ADD10R,0.850000X0.950000*%
%TD*%
%TA.AperFunction,ComponentPad*%
%ADD11R,1.350000X1.350000*%
%TD*%
%TA.AperFunction,ComponentPad*%
%ADD12C,1.350000*%
%TD*%
%TA.AperFunction,SMDPad,CuDef*%
%ADD13R,1.500000X0.600000*%
%TD*%
%TA.AperFunction,SMDPad,CuDef*%
%ADD14R,1.000000X0.600000*%
%TD*%
%TA.AperFunction,ViaPad*%
%ADD15C,0.600000*%
%TD*%
%TA.AperFunction,Conductor*%
%ADD16C,0.200000*%
%TD*%
G04 APERTURE END LIST*
D10*
%TO.P,R9,1*%
%TO.N,SENS_3V3*%
X66200000Y-18000000D03*
%TO.P,R9,2*%
%TO.N,MID*%
X67800000Y-18000000D03*
%TD*%
%TO.P,R1,1*%
%TO.N,A0*%
X13200000Y-20000000D03*
%TO.P,R1,2*%
%TO.N,GND*%
X14800000Y-20000000D03*
%TD*%
D11*
%TO.P,J1,1*%
%TO.N,SENS_3V3*%
X57000000Y-29000000D03*
D12*
%TO.P,J1,2*%
%TO.N,GND*%
X59000000Y-29000000D03*
%TO.P,J1,3*%
%TO.N,ADC_SCK*%
X61000000Y-29000000D03*
%TO.P,J1,4*%
%TO.N,ADC_MOSI*%
X63000000Y-29000000D03*
%TO.P,J1,5*%
%TO.N,ADC_MISO*%
X65000000Y-29000000D03*
%TO.P,J1,6*%
%TO.N,ADC_CS*%
X67000000Y-29000000D03*
%TD*%
D10*
%TO.P,R4,1*%
%TO.N,A3*%
X13200000Y-35000000D03*
%TO.P,R4,2*%
%TO.N,GND*%
X14800000Y-35000000D03*
%TD*%
%TO.P,R8,1*%
%TO.N,A7*%
X42200000Y-35000000D03*
%TO.P,R8,2*%
%TO.N,GND*%
X43800000Y-35000000D03*
%TD*%
%TO.P,R7,1*%
%TO.N,A6*%
X42200000Y-30000000D03*
%TO.P,R7,2*%
%TO.N,GND*%
X43800000Y-30000000D03*
%TD*%
%TO.P,R2,1*%
%TO.N,A1*%
X13200000Y-25000000D03*
%TO.P,R2,2*%
%TO.N,GND*%
X14800000Y-25000000D03*
%TD*%
%TO.P,R10,1*%
%TO.N,MID*%
X66200000Y-22000000D03*
%TO.P,R10,2*%
%TO.N,GND*%
X67800000Y-22000000D03*
%TD*%
%TO.P,R6,1*%
%TO.N,A5*%
X42200000Y-25000000D03*
%TO.P,R6,2*%
%TO.N,GND*%
X43800000Y-25000000D03*
%TD*%
%TO.P,R5,1*%
%TO.N,A4*%
X42200000Y-20000000D03*
%TO.P,R5,2*%
%TO.N,GND*%
X43800000Y-20000000D03*
%TD*%
D13*
%TO.P,U1,1*%
%TO.N,A0*%
X25300000Y-22555000D03*
%TO.P,U1,2*%
%TO.N,A1*%
X25300000Y-23825000D03*
%TO.P,U1,3*%
%TO.N,A2*%
X25300000Y-25095000D03*
%TO.P,U1,4*%
%TO.N,A3*%
X25300000Y-26365000D03*
%TO.P,U1,5*%
%TO.N,A4*%
X25300000Y-27634999D03*
%TO.P,U1,6*%
%TO.N,A5*%
X25300000Y-28904999D03*
%TO.P,U1,7*%
%TO.N,A6*%
X25300000Y-30175000D03*
%TO.P,U1,8*%
%TO.N,A7*%
X25300000Y-31445000D03*
%TO.P,U1,9*%
%TO.N,GND*%
X30700000Y-31445000D03*
%TO.P,U1,10*%
%TO.N,ADC_CS*%
X30700000Y-30175000D03*
%TO.P,U1,11*%
%TO.N,ADC_MOSI*%
X30700000Y-28905000D03*
%TO.P,U1,12*%
%TO.N,ADC_OUT_RAW*%
X30700000Y-27635000D03*
%TO.P,U1,13*%
%TO.N,ADC_SCK*%
X30700000Y-26365001D03*
%TO.P,U1,14*%
%TO.N,GND*%
X30700000Y-25095001D03*
%TO.P,U1,15*%
%TO.N,SENS_3V3*%
X30700000Y-23825000D03*
%TO.P,U1,16*%
X30700000Y-22555000D03*
%TD*%
D11*
%TO.P,JP1,1*%
%TO.N,IN7*%
X57000000Y-18000000D03*
D12*
%TO.P,JP1,2*%
%TO.N,A7*%
X59000000Y-18000000D03*
%TO.P,JP1,3*%
%TO.N,MID*%
X61000000Y-18000000D03*
%TD*%
D14*
%TO.P,U2,1*%
%TO.N,ADC_CS*%
X58900000Y-37050000D03*
%TO.P,U2,2*%
%TO.N,ADC_OUT_RAW*%
X58900000Y-38000000D03*
%TO.P,U2,3*%
%TO.N,GND*%
X58900000Y-38950000D03*
%TO.P,U2,4*%
%TO.N,ADC_MISO*%
X61100000Y-38950000D03*
%TO.P,U2,5*%
%TO.N,SENS_3V3*%
X61100000Y-37050000D03*
%TD*%
D10*
%TO.P,C2,1*%
%TO.N,SENS_3V3*%
X33200000Y-27000000D03*
%TO.P,C2,2*%
%TO.N,GND*%
X34800000Y-27000000D03*
%TD*%
%TO.P,R3,1*%
%TO.N,A2*%
X13200000Y-30000000D03*
%TO.P,R3,2*%
%TO.N,GND*%
X14800000Y-30000000D03*
%TD*%
D11*
%TO.P,J2,1*%
%TO.N,SENS_3V3*%
X12000000Y-10000000D03*
D12*
%TO.P,J2,2*%
%TO.N,GND*%
X14000000Y-10000000D03*
%TO.P,J2,3*%
%TO.N,A0*%
X16000000Y-10000000D03*
%TO.P,J2,4*%
%TO.N,SENS_3V3*%
X18000000Y-10000000D03*
%TO.P,J2,5*%
%TO.N,GND*%
X20000000Y-10000000D03*
%TO.P,J2,6*%
%TO.N,A1*%
X22000000Y-10000000D03*
%TO.P,J2,7*%
%TO.N,SENS_3V3*%
X24000000Y-10000000D03*
%TO.P,J2,8*%
%TO.N,GND*%
X26000000Y-10000000D03*
%TO.P,J2,9*%
%TO.N,A2*%
X28000000Y-10000000D03*
%TO.P,J2,10*%
%TO.N,SENS_3V3*%
X30000000Y-10000000D03*
%TO.P,J2,11*%
%TO.N,GND*%
X32000000Y-10000000D03*
%TO.P,J2,12*%
%TO.N,A3*%
X34000000Y-10000000D03*
%TO.P,J2,13*%
%TO.N,SENS_3V3*%
X36000000Y-10000000D03*
%TO.P,J2,14*%
%TO.N,GND*%
X38000000Y-10000000D03*
%TO.P,J2,15*%
%TO.N,A4*%
X40000000Y-10000000D03*
%TO.P,J2,16*%
%TO.N,SENS_3V3*%
X42000000Y-10000000D03*
%TO.P,J2,17*%
%TO.N,GND*%
X44000000Y-10000000D03*
%TO.P,J2,18*%
%TO.N,A5*%
X46000000Y-10000000D03*
%TO.P,J2,19*%
%TO.N,SENS_3V3*%
X48000000Y-10000000D03*
%TO.P,J2,20*%
%TO.N,GND*%
X50000000Y-10000000D03*
%TO.P,J2,21*%
%TO.N,A6*%
X52000000Y-10000000D03*
%TO.P,J2,22*%
%TO.N,SENS_3V3*%
X54000000Y-10000000D03*
%TO.P,J2,23*%
%TO.N,GND*%
X56000000Y-10000000D03*
%TO.P,J2,24*%
%TO.N,IN7*%
X58000000Y-10000000D03*
%TD*%
D10*
%TO.P,C3,1*%
%TO.N,SENS_3V3*%
X54200000Y-38000000D03*
%TO.P,C3,2*%
%TO.N,GND*%
X55800000Y-38000000D03*
%TD*%
%TO.P,C1,1*%
%TO.N,SENS_3V3*%
X33200000Y-23000000D03*
%TO.P,C1,2*%
%TO.N,GND*%
X34800000Y-23000000D03*
%TD*%
D15*
%TO.N,A5*%
X37611800Y-28340900D03*
X41242600Y-24999500D03*
%TO.N,A6*%
X34059600Y-29752000D03*
X41267000Y-30000000D03*
%TO.N,A7*%
X42695100Y-33998000D03*
%TO.N,ADC_OUT_RAW*%
X34555500Y-32746200D03*
X29444300Y-27635000D03*
%TO.N,SENS_3V3*%
X31979800Y-22534200D03*
%TD*%
D16*
%TO.N,A0*%
X16000000Y-10000000D02*
X16000000Y-19216700D01*
X20909800Y-19216700D02*
X24248100Y-22555000D01*
X13200000Y-20000000D02*
X13926900Y-20000000D01*
X25300000Y-22555000D02*
X24248100Y-22555000D01*
X13926900Y-19510400D02*
X14220600Y-19216700D01*
X16000000Y-19216700D02*
X20909800Y-19216700D01*
X14220600Y-19216700D02*
X16000000Y-19216700D01*
X13926900Y-20000000D02*
X13926900Y-19510400D01*
%TO.N,A1*%
X14647600Y-23825000D02*
X25300000Y-23825000D01*
X13926900Y-25000000D02*
X13926900Y-24545700D01*
X13926900Y-24545700D02*
X14647600Y-23825000D01*
X13200000Y-25000000D02*
X13926900Y-25000000D01*
X26351900Y-23825000D02*
X26351900Y-14351900D01*
X26351900Y-14351900D02*
X22000000Y-10000000D01*
X25300000Y-23825000D02*
X26351900Y-23825000D01*
%TO.N,A2*%
X15798700Y-30776900D02*
X14249500Y-30776900D01*
X14249500Y-30776900D02*
X13926900Y-30454300D01*
X21480600Y-25095000D02*
X15798700Y-30776900D01*
X13926900Y-30454300D02*
X13926900Y-30000000D01*
X26887600Y-11112400D02*
X26887600Y-24559300D01*
X26887600Y-24559300D02*
X26351900Y-25095000D01*
X28000000Y-10000000D02*
X26887600Y-11112400D01*
X13200000Y-30000000D02*
X13926900Y-30000000D01*
X25300000Y-25095000D02*
X26351900Y-25095000D01*
X25300000Y-25095000D02*
X21480600Y-25095000D01*
%TO.N,A3*%
X13926900Y-35000000D02*
X13926900Y-34545800D01*
X28384100Y-24332800D02*
X26351900Y-26365000D01*
X13200000Y-35000000D02*
X13926900Y-35000000D01*
X22107600Y-26365100D02*
X24248100Y-26365100D01*
X25300000Y-26365000D02*
X24248100Y-26365000D01*
X24248100Y-26365100D02*
X24248100Y-26365000D01*
X13926900Y-34545800D02*
X22107600Y-26365100D01*
X28384100Y-15615900D02*
X28384100Y-24332800D01*
X25300000Y-26365000D02*
X26351900Y-26365000D01*
X34000000Y-10000000D02*
X28384100Y-15615900D01*
%TO.N,A4*%
X42200000Y-20000000D02*
X42200000Y-19091500D01*
X28786000Y-22940100D02*
X34834600Y-16891500D01*
X40000000Y-10000000D02*
X40000000Y-16891500D01*
X42200000Y-19091500D02*
X40000000Y-16891500D01*
X28786000Y-25200900D02*
X28786000Y-22940100D01*
X26351900Y-27635000D02*
X28786000Y-25200900D01*
X25300000Y-27635000D02*
X26351900Y-27635000D01*
X34834600Y-16891500D02*
X40000000Y-16891500D01*
%TO.N,A5*%
X41242600Y-24999500D02*
X41472600Y-24999500D01*
X25300000Y-28905000D02*
X26351900Y-28905000D01*
X26953800Y-28303100D02*
X37574000Y-28303100D01*
X42200000Y-25000000D02*
X41473100Y-25000000D01*
X37574000Y-28303100D02*
X37611800Y-28340900D01*
X41472600Y-24999500D02*
X41473100Y-25000000D01*
X26351900Y-28905000D02*
X26953800Y-28303100D01*
%TO.N,A6*%
X25300000Y-30175000D02*
X26351900Y-30175000D01*
X42200000Y-30000000D02*
X41473100Y-30000000D01*
X26953800Y-29573100D02*
X26351900Y-30175000D01*
X41473100Y-30000000D02*
X41267000Y-30000000D01*
X33880700Y-29573100D02*
X26953800Y-29573100D01*
X34059600Y-29752000D02*
X33880700Y-29573100D01*
%TO.N,A7*%
X42200000Y-34223100D02*
X42425100Y-33998000D01*
X42200000Y-35000000D02*
X42200000Y-34223100D01*
X26351900Y-31445000D02*
X29130000Y-34223100D01*
X25300000Y-31445000D02*
X26351900Y-31445000D01*
X42425100Y-33998000D02*
X42695100Y-33998000D01*
X29130000Y-34223100D02*
X42200000Y-34223100D01*
%TO.N,ADC_CS*%
X58900000Y-37050000D02*
X59701900Y-37050000D01*
X59701900Y-36298100D02*
X67000000Y-29000000D01*
X52873300Y-31825200D02*
X58098100Y-37050000D01*
X59701900Y-37050000D02*
X59701900Y-36298100D01*
X58900000Y-37050000D02*
X58098100Y-37050000D01*
X33402100Y-31825200D02*
X52873300Y-31825200D01*
X31751900Y-30175000D02*
X33402100Y-31825200D01*
X30700000Y-30175000D02*
X31751900Y-30175000D01*
%TO.N,ADC_MISO*%
X67416700Y-27994300D02*
X66005700Y-27994300D01*
X61100000Y-38950000D02*
X68051000Y-31999000D01*
X68051000Y-28628600D02*
X67416700Y-27994300D01*
X66005700Y-27994300D02*
X65000000Y-29000000D01*
X68051000Y-31999000D02*
X68051000Y-28628600D01*
%TO.N,ADC_MOSI*%
X30700000Y-28905000D02*
X31751900Y-28905000D01*
X38391800Y-28942800D02*
X40635000Y-31186000D01*
X31789700Y-28942800D02*
X38391800Y-28942800D01*
X31751900Y-28905000D02*
X31789700Y-28942800D01*
X60814000Y-31186000D02*
X63000000Y-29000000D01*
X40635000Y-31186000D02*
X60814000Y-31186000D01*
%TO.N,ADC_OUT_RAW*%
X30700000Y-27635000D02*
X29444300Y-27635000D01*
X58900000Y-38000000D02*
X58098100Y-38000000D01*
X52844300Y-32746200D02*
X34555500Y-32746200D01*
X58098100Y-38000000D02*
X52844300Y-32746200D01*
%TO.N,ADC_SCK*%
X61000000Y-29000000D02*
X59215900Y-30784100D01*
X37864000Y-27739000D02*
X36085400Y-27739000D01*
X36047500Y-27776900D02*
X32601200Y-27776900D01*
X32601200Y-27776900D02*
X31751900Y-26927600D01*
X40909100Y-30784100D02*
X37864000Y-27739000D01*
X31751900Y-26927600D02*
X31751900Y-26365000D01*
X59215900Y-30784100D02*
X40909100Y-30784100D01*
X30700000Y-26365000D02*
X31751900Y-26365000D01*
X36085400Y-27739000D02*
X36047500Y-27776900D01*
%TO.N,GND*%
X43800000Y-35000000D02*
X52800000Y-35000000D01*
X13987500Y-29187500D02*
X12636800Y-29187500D01*
X34800000Y-23000000D02*
X34073100Y-23000000D01*
X43800000Y-20000000D02*
X43073100Y-20000000D01*
X42912100Y-33335200D02*
X43800000Y-34223100D01*
X12473100Y-20953700D02*
X12473100Y-25626700D01*
X41527400Y-23000000D02*
X43073100Y-21454300D01*
X32663700Y-25095000D02*
X34073100Y-26504400D01*
X43462400Y-25000000D02*
X43073100Y-25000000D01*
X14023100Y-35776900D02*
X14800000Y-35000000D01*
X12636800Y-29187500D02*
X12473100Y-29351200D01*
X14023100Y-20776900D02*
X14800000Y-20000000D01*
X43073100Y-24545700D02*
X43073100Y-25000000D01*
X12473100Y-11526900D02*
X12473100Y-20600100D01*
X60401600Y-27598400D02*
X61929000Y-27598400D01*
X42279400Y-33397600D02*
X42341800Y-33335200D01*
X12473100Y-29351200D02*
X12473100Y-35600100D01*
X67800000Y-22000000D02*
X67073100Y-22000000D01*
X12473100Y-25626700D02*
X12636800Y-25790400D01*
X50000000Y-10000000D02*
X49023100Y-10976900D01*
X14000000Y-10000000D02*
X12473100Y-11526900D01*
X55800000Y-38000000D02*
X56526900Y-38000000D01*
X43800000Y-30000000D02*
X58000000Y-30000000D01*
X43800000Y-35000000D02*
X43800000Y-34223100D01*
X15526900Y-35000000D02*
X19683800Y-30843100D01*
X42341800Y-33335200D02*
X42912100Y-33335200D01*
X61929000Y-27598400D02*
X67073100Y-22454300D01*
X49023100Y-10976900D02*
X44000000Y-10976900D01*
X14009600Y-25790400D02*
X14800000Y-25000000D01*
X52800000Y-35000000D02*
X55800000Y-38000000D01*
X44000000Y-10000000D02*
X44000000Y-10976900D01*
X43462400Y-28885500D02*
X43800000Y-29223100D01*
X33704500Y-33397600D02*
X42279400Y-33397600D01*
X43800000Y-20000000D02*
X43800000Y-19223100D01*
X12649900Y-35776900D02*
X14023100Y-35776900D01*
X34073100Y-23685600D02*
X32663700Y-25095000D01*
X12473100Y-20600100D02*
X12649900Y-20776900D01*
X43073100Y-21454300D02*
X43073100Y-20000000D01*
X43800000Y-25000000D02*
X43462400Y-25000000D01*
X59000000Y-29000000D02*
X60401600Y-27598400D01*
X44000000Y-19023100D02*
X43800000Y-19223100D01*
X58000000Y-30000000D02*
X59000000Y-29000000D01*
X34800000Y-27000000D02*
X34073100Y-27000000D01*
X29046200Y-30843100D02*
X29648100Y-31445000D01*
X30700000Y-25095000D02*
X32663700Y-25095000D01*
X58900000Y-38950000D02*
X57476900Y-38950000D01*
X34800000Y-23000000D02*
X41527400Y-23000000D01*
X41527400Y-23000000D02*
X43073100Y-24545700D01*
X30700000Y-31445000D02*
X31751900Y-31445000D01*
X12649900Y-20776900D02*
X14023100Y-20776900D01*
X12649900Y-20776900D02*
X12473100Y-20953700D01*
X12473100Y-35600100D02*
X12649900Y-35776900D01*
X31751900Y-31445000D02*
X33704500Y-33397600D01*
X14800000Y-35000000D02*
X15526900Y-35000000D01*
X57476900Y-38950000D02*
X56526900Y-38000000D01*
X43462400Y-25000000D02*
X43462400Y-28885500D01*
X12636800Y-25790400D02*
X12636800Y-29187500D01*
X30700000Y-31445000D02*
X29648100Y-31445000D01*
X34073100Y-23000000D02*
X34073100Y-23685600D01*
X44000000Y-10976900D02*
X44000000Y-19023100D01*
X14800000Y-30000000D02*
X13987500Y-29187500D01*
X12636800Y-25790400D02*
X14009600Y-25790400D01*
X34073100Y-26504400D02*
X34073100Y-27000000D01*
X43800000Y-30000000D02*
X43800000Y-29223100D01*
X67073100Y-22454300D02*
X67073100Y-22000000D01*
X19683800Y-30843100D02*
X29046200Y-30843100D01*
%TO.N,MID*%
X61000000Y-18000000D02*
X61776900Y-18776900D01*
X66200000Y-22000000D02*
X66200000Y-18776900D01*
X67073100Y-18454300D02*
X67073100Y-18000000D01*
X61776900Y-18776900D02*
X66200000Y-18776900D01*
X67800000Y-18000000D02*
X67073100Y-18000000D01*
X66750500Y-18776900D02*
X67073100Y-18454300D01*
X66200000Y-18776900D02*
X66750500Y-18776900D01*
%TO.N,SENS_3V3*%
X29648100Y-23825000D02*
X29648100Y-25536600D01*
X32511200Y-23000000D02*
X32478400Y-23032800D01*
X60034700Y-39114800D02*
X59592500Y-39557000D01*
X61781400Y-39553700D02*
X68528400Y-32806700D01*
X66200000Y-18000000D02*
X65473100Y-18000000D01*
X60473600Y-39553700D02*
X61781400Y-39553700D01*
X31751900Y-23759300D02*
X31751900Y-23825000D01*
X32473100Y-26454800D02*
X32473100Y-27000000D01*
X29013200Y-9013200D02*
X24986800Y-9013200D01*
X60000000Y-16000000D02*
X54000000Y-10000000D01*
X54200000Y-38000000D02*
X54926900Y-38000000D01*
X57000000Y-29000000D02*
X57000000Y-28023100D01*
X30700000Y-23825000D02*
X31751900Y-23825000D01*
X33200000Y-27000000D02*
X32473100Y-27000000D01*
X23013200Y-9013200D02*
X18986800Y-9013200D01*
X31715200Y-25696900D02*
X32473100Y-26454800D01*
X29808400Y-25696900D02*
X31715200Y-25696900D01*
X60034700Y-39114800D02*
X60473600Y-39553700D01*
X56029600Y-39557000D02*
X54926900Y-38454300D01*
X48000000Y-10000000D02*
X47008600Y-9008600D01*
X54926900Y-38454300D02*
X54926900Y-38000000D01*
X24000000Y-10000000D02*
X23013200Y-9013200D01*
X53013200Y-9013200D02*
X48986800Y-9013200D01*
X30700000Y-22555000D02*
X31751900Y-22555000D01*
X65473100Y-18000000D02*
X64473100Y-17000000D01*
X60000000Y-17000000D02*
X60000000Y-25023100D01*
X68528400Y-17401400D02*
X68350100Y-17223100D01*
X66976900Y-17223100D02*
X66200000Y-18000000D01*
X32478400Y-23032800D02*
X31979800Y-22534200D01*
X31772700Y-22534200D02*
X31979800Y-22534200D01*
X59592500Y-39557000D02*
X56029600Y-39557000D01*
X32478400Y-23032800D02*
X31751900Y-23759300D01*
X42991400Y-9008600D02*
X42000000Y-10000000D01*
X60699100Y-37050000D02*
X60034700Y-37714400D01*
X60034700Y-37714400D02*
X60034700Y-39114800D01*
X30000000Y-10000000D02*
X29013200Y-9013200D01*
X47008600Y-9008600D02*
X42991400Y-9008600D01*
X31751900Y-22555000D02*
X31772700Y-22534200D01*
X68350100Y-17223100D02*
X66976900Y-17223100D01*
X61100000Y-37050000D02*
X60699100Y-37050000D01*
X33200000Y-23000000D02*
X32836600Y-23000000D01*
X68528400Y-32806700D02*
X68528400Y-17401400D01*
X32836600Y-23000000D02*
X32511200Y-23000000D01*
X64473100Y-17000000D02*
X60000000Y-17000000D01*
X48986800Y-9013200D02*
X48000000Y-10000000D01*
X24986800Y-9013200D02*
X24000000Y-10000000D01*
X30700000Y-23825000D02*
X29648100Y-23825000D01*
X60000000Y-25023100D02*
X57000000Y-28023100D01*
X60000000Y-17000000D02*
X60000000Y-16000000D01*
X54000000Y-10000000D02*
X53013200Y-9013200D01*
X18986800Y-9013200D02*
X18000000Y-10000000D01*
X29648100Y-25536600D02*
X29808400Y-25696900D01*
%TD*%
M02*
