%TF.GenerationSoftware,KiCad,Pcbnew,9.0.9-9.0.9~ubuntu24.04.1*%
%TF.CreationDate,2026-10-04T13:56:13+00:00*%
%TF.ProjectId,adc,6164632e-6b69-4636-9164-5f7063625858,rev?*%
%TF.SameCoordinates,Original*%
%TF.FileFunction,Copper,L1,Top*%
%TF.FilePolarity,Positive*%
%FSLAX46Y46*%
G04 Gerber Fmt 4.6, Leading zero omitted, Abs format (unit mm)*
G04 Created by KiCad (PCBNEW 9.0.9-9.0.9~ubuntu24.04.1) date 2026-10-04 13:56:13*
%MOMM*%
%LPD*%
G01*
G04 APERTURE LIST*
%TA.AperFunction,SMDPad,CuDef*%
%ADD10R,0.850000X0.950000*%
%TD*%
%TA.AperFunction,ComponentPad*%
%ADD11R,1.350000X1.350000*%
%TD*%
%TA.AperFunction,ComponentPad*%
%ADD12C,1.350000*%
%TD*%
%TA.AperFunction,SMDPad,CuDef*%
%ADD13R,1.000000X0.600000*%
%TD*%
%TA.AperFunction,SMDPad,CuDef*%
%ADD14R,1.500000X0.600000*%
%TD*%
%TA.AperFunction,ViaPad*%
%ADD15C,0.600000*%
%TD*%
%TA.AperFunction,Conductor*%
%ADD16C,0.200000*%
%TD*%
G04 APERTURE END LIST*
D10*
%TO.P,C3,1*%
%TO.N,SENS_3V3*%
X54200000Y-38000000D03*
%TO.P,C3,2*%
%TO.N,GND*%
X55800000Y-38000000D03*
%TD*%
%TO.P,R6,1*%
%TO.N,A5*%
X42200000Y-25000000D03*
%TO.P,R6,2*%
%TO.N,GND*%
X43800000Y-25000000D03*
%TD*%
%TO.P,R4,1*%
%TO.N,A3*%
X13200000Y-35000000D03*
%TO.P,R4,2*%
%TO.N,GND*%
X14800000Y-35000000D03*
%TD*%
%TO.P,R8,1*%
%TO.N,A7*%
X42200000Y-35000000D03*
%TO.P,R8,2*%
%TO.N,GND*%
X43800000Y-35000000D03*
%TD*%
D11*
%TO.P,JP1,1*%
%TO.N,IN7*%
X57000000Y-18000000D03*
D12*
%TO.P,JP1,2*%
%TO.N,A7*%
X59000000Y-18000000D03*
%TO.P,JP1,3*%
%TO.N,MID*%
X61000000Y-18000000D03*
%TD*%
D10*
%TO.P,R5,1*%
%TO.N,A4*%
X42200000Y-20000000D03*
%TO.P,R5,2*%
%TO.N,GND*%
X43800000Y-20000000D03*
%TD*%
%TO.P,R2,1*%
%TO.N,A1*%
X13200000Y-25000000D03*
%TO.P,R2,2*%
%TO.N,GND*%
X14800000Y-25000000D03*
%TD*%
%TO.P,R3,1*%
%TO.N,A2*%
X13200000Y-30000000D03*
%TO.P,R3,2*%
%TO.N,GND*%
X14800000Y-30000000D03*
%TD*%
D11*
%TO.P,J2,1*%
%TO.N,SENS_3V3*%
X12000000Y-10000000D03*
D12*
%TO.P,J2,2*%
%TO.N,GND*%
X14000000Y-10000000D03*
%TO.P,J2,3*%
%TO.N,A0*%
X16000000Y-10000000D03*
%TO.P,J2,4*%
%TO.N,SENS_3V3*%
X18000000Y-10000000D03*
%TO.P,J2,5*%
%TO.N,GND*%
X20000000Y-10000000D03*
%TO.P,J2,6*%
%TO.N,A1*%
X22000000Y-10000000D03*
%TO.P,J2,7*%
%TO.N,SENS_3V3*%
X24000000Y-10000000D03*
%TO.P,J2,8*%
%TO.N,GND*%
X26000000Y-10000000D03*
%TO.P,J2,9*%
%TO.N,A2*%
X28000000Y-10000000D03*
%TO.P,J2,10*%
%TO.N,SENS_3V3*%
X30000000Y-10000000D03*
%TO.P,J2,11*%
%TO.N,GND*%
X32000000Y-10000000D03*
%TO.P,J2,12*%
%TO.N,A3*%
X34000000Y-10000000D03*
%TO.P,J2,13*%
%TO.N,SENS_3V3*%
X36000000Y-10000000D03*
%TO.P,J2,14*%
%TO.N,GND*%
X38000000Y-10000000D03*
%TO.P,J2,15*%
%TO.N,A4*%
X40000000Y-10000000D03*
%TO.P,J2,16*%
%TO.N,SENS_3V3*%
X42000000Y-10000000D03*
%TO.P,J2,17*%
%TO.N,GND*%
X44000000Y-10000000D03*
%TO.P,J2,18*%
%TO.N,A5*%
X46000000Y-10000000D03*
%TO.P,J2,19*%
%TO.N,SENS_3V3*%
X48000000Y-10000000D03*
%TO.P,J2,20*%
%TO.N,GND*%
X50000000Y-10000000D03*
%TO.P,J2,21*%
%TO.N,A6*%
X52000000Y-10000000D03*
%TO.P,J2,22*%
%TO.N,SENS_3V3*%
X54000000Y-10000000D03*
%TO.P,J2,23*%
%TO.N,GND*%
X56000000Y-10000000D03*
%TO.P,J2,24*%
%TO.N,IN7*%
X58000000Y-10000000D03*
%TD*%
D10*
%TO.P,R7,1*%
%TO.N,A6*%
X42200000Y-30000000D03*
%TO.P,R7,2*%
%TO.N,GND*%
X43800000Y-30000000D03*
%TD*%
D11*
%TO.P,J1,1*%
%TO.N,SENS_3V3*%
X57000000Y-29000000D03*
D12*
%TO.P,J1,2*%
%TO.N,GND*%
X59000000Y-29000000D03*
%TO.P,J1,3*%
%TO.N,ADC_SCK*%
X61000000Y-29000000D03*
%TO.P,J1,4*%
%TO.N,ADC_MOSI*%
X63000000Y-29000000D03*
%TO.P,J1,5*%
%TO.N,ADC_MISO*%
X65000000Y-29000000D03*
%TO.P,J1,6*%
%TO.N,ADC_CS*%
X67000000Y-29000000D03*
%TD*%
D10*
%TO.P,R1,1*%
%TO.N,A0*%
X13200000Y-20000000D03*
%TO.P,R1,2*%
%TO.N,GND*%
X14800000Y-20000000D03*
%TD*%
%TO.P,R10,1*%
%TO.N,MID*%
X66200000Y-22000000D03*
%TO.P,R10,2*%
%TO.N,GND*%
X67800000Y-22000000D03*
%TD*%
D13*
%TO.P,U2,1*%
%TO.N,ADC_CS*%
X58900000Y-37050000D03*
%TO.P,U2,2*%
%TO.N,ADC_OUT_RAW*%
X58900000Y-38000000D03*
%TO.P,U2,3*%
%TO.N,GND*%
X58900000Y-38950000D03*
%TO.P,U2,4*%
%TO.N,ADC_MISO*%
X61100000Y-38950000D03*
%TO.P,U2,5*%
%TO.N,SENS_3V3*%
X61100000Y-37050000D03*
%TD*%
D10*
%TO.P,C1,1*%
%TO.N,SENS_3V3*%
X33200000Y-23000000D03*
%TO.P,C1,2*%
%TO.N,GND*%
X34800000Y-23000000D03*
%TD*%
D14*
%TO.P,U1,1*%
%TO.N,A0*%
X25300000Y-22555000D03*
%TO.P,U1,2*%
%TO.N,A1*%
X25300000Y-23825000D03*
%TO.P,U1,3*%
%TO.N,A2*%
X25300000Y-25095000D03*
%TO.P,U1,4*%
%TO.N,A3*%
X25300000Y-26365000D03*
%TO.P,U1,5*%
%TO.N,A4*%
X25300000Y-27634999D03*
%TO.P,U1,6*%
%TO.N,A5*%
X25300000Y-28904999D03*
%TO.P,U1,7*%
%TO.N,A6*%
X25300000Y-30175000D03*
%TO.P,U1,8*%
%TO.N,A7*%
X25300000Y-31445000D03*
%TO.P,U1,9*%
%TO.N,GND*%
X30700000Y-31445000D03*
%TO.P,U1,10*%
%TO.N,ADC_CS*%
X30700000Y-30175000D03*
%TO.P,U1,11*%
%TO.N,ADC_MOSI*%
X30700000Y-28905000D03*
%TO.P,U1,12*%
%TO.N,ADC_OUT_RAW*%
X30700000Y-27635000D03*
%TO.P,U1,13*%
%TO.N,ADC_SCK*%
X30700000Y-26365001D03*
%TO.P,U1,14*%
%TO.N,GND*%
X30700000Y-25095001D03*
%TO.P,U1,15*%
%TO.N,SENS_3V3*%
X30700000Y-23825000D03*
%TO.P,U1,16*%
X30700000Y-22555000D03*
%TD*%
D10*
%TO.P,C2,1*%
%TO.N,SENS_3V3*%
X33200000Y-27000000D03*
%TO.P,C2,2*%
%TO.N,GND*%
X34800000Y-27000000D03*
%TD*%
%TO.P,R9,1*%
%TO.N,SENS_3V3*%
X66200000Y-18000000D03*
%TO.P,R9,2*%
%TO.N,MID*%
X67800000Y-18000000D03*
%TD*%
D15*
%TO.N,A6*%
X42447700Y-30987900D03*
%TO.N,A7*%
X54186800Y-35619500D03*
%TO.N,ADC_CS*%
X59254600Y-36239700D03*
%TO.N,ADC_MOSI*%
X40000400Y-30052900D03*
%TO.N,SENS_3V3*%
X53641100Y-36208000D03*
X31955700Y-22706300D03*
%TD*%
D16*
%TO.N,A0*%
X20426100Y-8987100D02*
X17012900Y-8987100D01*
X13926900Y-20454100D02*
X14249700Y-20776900D01*
X17012900Y-8987100D02*
X16000000Y-10000000D01*
X24248100Y-22555000D02*
X18911600Y-17218400D01*
X13200000Y-20000000D02*
X13926900Y-20000000D01*
X14249700Y-20776900D02*
X15353100Y-20776900D01*
X15353100Y-20776900D02*
X18911600Y-17218400D01*
X18911600Y-17218400D02*
X21000000Y-15130000D01*
X21000000Y-15130000D02*
X21000000Y-9561000D01*
X25300000Y-22555000D02*
X24248100Y-22555000D01*
X21000000Y-9561000D02*
X20426100Y-8987100D01*
X13926900Y-20000000D02*
X13926900Y-20454100D01*
%TO.N,A1*%
X26351900Y-14351900D02*
X22000000Y-10000000D01*
X13926900Y-25000000D02*
X13926900Y-24545700D01*
X13200000Y-25000000D02*
X13926900Y-25000000D01*
X25300000Y-23825000D02*
X26351900Y-23825000D01*
X13926900Y-24545700D02*
X14647600Y-23825000D01*
X26351900Y-23825000D02*
X26351900Y-14351900D01*
X14647600Y-23825000D02*
X25300000Y-23825000D01*
%TO.N,A2*%
X13200000Y-30000000D02*
X13926900Y-30000000D01*
X25598200Y-8962900D02*
X26962900Y-8962900D01*
X25000000Y-9561100D02*
X25598200Y-8962900D01*
X26753800Y-13071200D02*
X25000000Y-11317400D01*
X26753800Y-24693100D02*
X26753800Y-13071200D01*
X13926900Y-30454300D02*
X14249500Y-30776900D01*
X26962900Y-8962900D02*
X28000000Y-10000000D01*
X25300000Y-25095000D02*
X26351900Y-25095000D01*
X21439000Y-25095000D02*
X25300000Y-25095000D01*
X26351900Y-25095000D02*
X26753800Y-24693100D01*
X13926900Y-30000000D02*
X13926900Y-30454300D01*
X25000000Y-11317400D02*
X25000000Y-9561100D01*
X15757100Y-30776900D02*
X21439000Y-25095000D01*
X14249500Y-30776900D02*
X15757100Y-30776900D01*
%TO.N,A3*%
X13200000Y-35000000D02*
X13926900Y-35000000D01*
X13926900Y-35000000D02*
X13926900Y-34545900D01*
X25309900Y-26365000D02*
X25300000Y-26365000D01*
X27155700Y-25561200D02*
X26351900Y-26365000D01*
X13926900Y-34545900D02*
X22107800Y-26365000D01*
X25300000Y-26365000D02*
X24248100Y-26365000D01*
X34000000Y-10000000D02*
X27155700Y-16844300D01*
X27155700Y-16844300D02*
X27155700Y-25561200D01*
X22107800Y-26365000D02*
X24248100Y-26365000D01*
X25309900Y-26365000D02*
X26351900Y-26365000D01*
%TO.N,A4*%
X27615700Y-26371200D02*
X26351900Y-27635000D01*
X34301300Y-16891500D02*
X27615700Y-23577100D01*
X27615700Y-23577100D02*
X27615700Y-26371200D01*
X25300000Y-27635000D02*
X26351900Y-27635000D01*
X40000000Y-10000000D02*
X40000000Y-16891500D01*
X42200000Y-20000000D02*
X42200000Y-19091500D01*
X40000000Y-16891500D02*
X34301300Y-16891500D01*
X42200000Y-19091500D02*
X40000000Y-16891500D01*
%TO.N,A5*%
X41473100Y-21953000D02*
X41473100Y-25000000D01*
X25300000Y-28905000D02*
X26351900Y-28905000D01*
X28253100Y-27003800D02*
X26351900Y-28905000D01*
X28253100Y-23508000D02*
X28253100Y-27003800D01*
X41473100Y-21953000D02*
X29808100Y-21953000D01*
X29808100Y-21953000D02*
X28253100Y-23508000D01*
X42926900Y-20647300D02*
X41621200Y-21953000D01*
X42200000Y-25000000D02*
X41473100Y-25000000D01*
X42926900Y-13073100D02*
X42926900Y-20647300D01*
X46000000Y-10000000D02*
X42926900Y-13073100D01*
X41621200Y-21953000D02*
X41473100Y-21953000D01*
%TO.N,A6*%
X42200000Y-30776900D02*
X42236700Y-30776900D01*
X42200000Y-30776900D02*
X26955800Y-30776900D01*
X42236700Y-30776900D02*
X42447700Y-30987900D01*
X26955800Y-30776900D02*
X26353900Y-30175000D01*
X42200000Y-30000000D02*
X42200000Y-30776900D01*
X25300000Y-30175000D02*
X26351900Y-30175000D01*
X26353900Y-30175000D02*
X26351900Y-30175000D01*
%TO.N,A7*%
X54136700Y-35569400D02*
X54186800Y-35619500D01*
X29906900Y-35000000D02*
X42200000Y-35000000D01*
X25300000Y-31445000D02*
X26351900Y-31445000D01*
X42200000Y-35000000D02*
X42926900Y-35000000D01*
X42926900Y-35454300D02*
X43314500Y-35841900D01*
X48846100Y-35569400D02*
X54136700Y-35569400D01*
X48573600Y-35841900D02*
X48846100Y-35569400D01*
X26351900Y-31445000D02*
X29906900Y-35000000D01*
X43314500Y-35841900D02*
X48573600Y-35841900D01*
X42926900Y-35000000D02*
X42926900Y-35454300D01*
%TO.N,ADC_CS*%
X58900000Y-36594300D02*
X59254600Y-36239700D01*
X33278800Y-28504400D02*
X31774400Y-27000000D01*
X29852400Y-27000000D02*
X29648100Y-27204300D01*
X30700000Y-30175000D02*
X29648100Y-30175000D01*
X59254600Y-36239700D02*
X51519300Y-28504400D01*
X29648100Y-27204300D02*
X29648100Y-30175000D01*
X51519300Y-28504400D02*
X33278800Y-28504400D01*
X31774400Y-27000000D02*
X29852400Y-27000000D01*
X58900000Y-37050000D02*
X58900000Y-36594300D01*
%TO.N,ADC_MISO*%
X60298100Y-38950000D02*
X60298100Y-33701900D01*
X60298100Y-33701900D02*
X65000000Y-29000000D01*
X61100000Y-38950000D02*
X60298100Y-38950000D01*
%TO.N,ADC_MOSI*%
X30700000Y-28905000D02*
X31751900Y-28905000D01*
X31751900Y-28905000D02*
X32899800Y-30052900D01*
X32899800Y-30052900D02*
X40000400Y-30052900D01*
%TO.N,ADC_OUT_RAW*%
X49004400Y-28906300D02*
X58098100Y-38000000D01*
X31751900Y-27635000D02*
X33023200Y-28906300D01*
X33023200Y-28906300D02*
X49004400Y-28906300D01*
X30700000Y-27635000D02*
X31751900Y-27635000D01*
X58900000Y-38000000D02*
X58098100Y-38000000D01*
%TO.N,ADC_SCK*%
X31893800Y-26223100D02*
X58223100Y-26223100D01*
X31751900Y-26365000D02*
X31893800Y-26223100D01*
X58223100Y-26223100D02*
X61000000Y-29000000D01*
X30700000Y-26365000D02*
X31751900Y-26365000D01*
%TO.N,GND*%
X30700000Y-25095000D02*
X29648100Y-25095000D01*
X14976900Y-19046200D02*
X14800000Y-19223100D01*
X24196600Y-30843100D02*
X19683800Y-30843100D01*
X14800000Y-25786400D02*
X14800000Y-25000000D01*
X67800000Y-22000000D02*
X62000000Y-27800000D01*
X12473100Y-19372000D02*
X12622000Y-19223100D01*
X59897700Y-29989600D02*
X59897700Y-29897700D01*
X62000000Y-29447800D02*
X61458200Y-29989600D01*
X55800000Y-36335400D02*
X55800000Y-37223100D01*
X54464600Y-35000000D02*
X55800000Y-36335400D01*
X59877100Y-38774800D02*
X59877100Y-30010200D01*
X44526900Y-35000000D02*
X54464600Y-35000000D01*
X44986800Y-9013200D02*
X44000000Y-10000000D01*
X58900000Y-38950000D02*
X59701900Y-38950000D01*
X26293300Y-29533800D02*
X29648100Y-26179000D01*
X14976900Y-10976900D02*
X14976900Y-19046200D01*
X57476900Y-38950000D02*
X58900000Y-38950000D01*
X43800000Y-35000000D02*
X44526900Y-35000000D01*
X47000000Y-11017100D02*
X48982900Y-11017100D01*
X24442100Y-29533800D02*
X26293300Y-29533800D01*
X14800000Y-30000000D02*
X14800000Y-25786400D01*
X43073100Y-25000000D02*
X43073100Y-25454300D01*
X35526900Y-27000000D02*
X57000000Y-27000000D01*
X55800000Y-38000000D02*
X55800000Y-37223100D01*
X14800000Y-25786400D02*
X12650400Y-25786400D01*
X43073100Y-25454300D02*
X42750500Y-25776900D01*
X31943400Y-31636500D02*
X43800000Y-31636500D01*
X12473100Y-25609100D02*
X12473100Y-19372000D01*
X14976900Y-10976900D02*
X14000000Y-10000000D01*
X43800000Y-20000000D02*
X43800000Y-14217100D01*
X43800000Y-20000000D02*
X43800000Y-25000000D01*
X48982900Y-11017100D02*
X50000000Y-10000000D01*
X46431400Y-9013200D02*
X44986800Y-9013200D01*
X33004700Y-8995300D02*
X32000000Y-10000000D01*
X34800000Y-23000000D02*
X35526900Y-23000000D01*
X43800000Y-31636500D02*
X43800000Y-35000000D01*
X43800000Y-25000000D02*
X43073100Y-25000000D01*
X55800000Y-38000000D02*
X56526900Y-38000000D01*
X12650400Y-25786400D02*
X12473100Y-25609100D01*
X29648100Y-26179000D02*
X29648100Y-25095000D01*
X30700000Y-31445000D02*
X31751900Y-31445000D01*
X43800000Y-30000000D02*
X43800000Y-30776900D01*
X19683800Y-30843100D02*
X15526900Y-35000000D01*
X14800000Y-35000000D02*
X15526900Y-35000000D01*
X30996700Y-11003300D02*
X27003300Y-11003300D01*
X59701900Y-38950000D02*
X59877100Y-38774800D01*
X38000000Y-10000000D02*
X36995300Y-8995300D01*
X12622000Y-19223100D02*
X14800000Y-19223100D01*
X43800000Y-14217100D02*
X47000000Y-11017100D01*
X34800000Y-27000000D02*
X35526900Y-27000000D01*
X59897700Y-29897700D02*
X59000000Y-29000000D01*
X43800000Y-30776900D02*
X43800000Y-31636500D01*
X20000000Y-10000000D02*
X19023100Y-10976900D01*
X36995300Y-8995300D02*
X33004700Y-8995300D01*
X62000000Y-27800000D02*
X62000000Y-29447800D01*
X57000000Y-27000000D02*
X59000000Y-29000000D01*
X24196600Y-30843100D02*
X24196600Y-29779300D01*
X27003300Y-11003300D02*
X26000000Y-10000000D01*
X14800000Y-20000000D02*
X14800000Y-19223100D01*
X34073100Y-23000000D02*
X34073100Y-23454300D01*
X26453700Y-30843100D02*
X27055600Y-31445000D01*
X56526900Y-38000000D02*
X57476900Y-38950000D01*
X42750500Y-25776900D02*
X38303800Y-25776900D01*
X47000000Y-9581800D02*
X46431400Y-9013200D01*
X61458200Y-29989600D02*
X59897700Y-29989600D01*
X27055600Y-31445000D02*
X30700000Y-31445000D01*
X32000000Y-10000000D02*
X30996700Y-11003300D01*
X38303800Y-25776900D02*
X35526900Y-23000000D01*
X34800000Y-23000000D02*
X34073100Y-23000000D01*
X24196600Y-29779300D02*
X24442100Y-29533800D01*
X19023100Y-10976900D02*
X14976900Y-10976900D01*
X31751900Y-31445000D02*
X31943400Y-31636500D01*
X24196600Y-30843100D02*
X26453700Y-30843100D01*
X59877100Y-30010200D02*
X59897700Y-29989600D01*
X34073100Y-23454300D02*
X32432400Y-25095000D01*
X47000000Y-11017100D02*
X47000000Y-9581800D01*
X32432400Y-25095000D02*
X30700000Y-25095000D01*
%TO.N,MID*%
X67436600Y-18000000D02*
X67073100Y-18000000D01*
X66742000Y-17214600D02*
X67073100Y-17545700D01*
X67800000Y-18000000D02*
X67436600Y-18000000D01*
X67436600Y-18000000D02*
X66926900Y-18509700D01*
X66200000Y-22000000D02*
X66926900Y-22000000D01*
X61000000Y-18000000D02*
X61785400Y-17214600D01*
X66926900Y-18509700D02*
X66926900Y-22000000D01*
X61785400Y-17214600D02*
X66742000Y-17214600D01*
X67073100Y-17545700D02*
X67073100Y-18000000D01*
%TO.N,SENS_3V3*%
X61677500Y-39606600D02*
X61901900Y-39382200D01*
X56023100Y-29000000D02*
X55125600Y-28102500D01*
X32179400Y-22706300D02*
X32473100Y-23000000D01*
X33926900Y-27454300D02*
X33926900Y-27000000D01*
X65473100Y-18000000D02*
X64496200Y-18976900D01*
X31955700Y-22706300D02*
X32179400Y-22706300D01*
X54200000Y-36766900D02*
X54200000Y-37223100D01*
X34575100Y-28102500D02*
X33926900Y-27454300D01*
X60000000Y-16000000D02*
X54000000Y-10000000D01*
X60000000Y-18448300D02*
X60000000Y-16000000D01*
X31777200Y-22706300D02*
X31955700Y-22706300D01*
X57000000Y-29000000D02*
X56023100Y-29000000D01*
X53013200Y-9013200D02*
X54000000Y-10000000D01*
X33200000Y-27000000D02*
X33926900Y-27000000D01*
X48000000Y-10000000D02*
X48986800Y-9013200D01*
X60528600Y-18976900D02*
X60000000Y-18448300D01*
X56079200Y-39606600D02*
X61677500Y-39606600D01*
X54926900Y-38000000D02*
X54926900Y-38454300D01*
X55125600Y-28102500D02*
X34575100Y-28102500D01*
X30700000Y-23825000D02*
X31751900Y-23825000D01*
X33200000Y-23000000D02*
X32473100Y-23000000D01*
X64496200Y-18976900D02*
X60528600Y-18976900D01*
X31751900Y-22910100D02*
X31955700Y-22706300D01*
X31625900Y-22555000D02*
X31777200Y-22706300D01*
X48986800Y-9013200D02*
X53013200Y-9013200D01*
X66200000Y-18000000D02*
X65473100Y-18000000D01*
X61901900Y-39382200D02*
X61901900Y-37050000D01*
X53641100Y-36208000D02*
X54200000Y-36766900D01*
X54200000Y-38000000D02*
X54926900Y-38000000D01*
X30700000Y-22555000D02*
X31625900Y-22555000D01*
X61100000Y-37050000D02*
X61901900Y-37050000D01*
X31751900Y-23825000D02*
X31751900Y-22910100D01*
X54926900Y-38454300D02*
X56079200Y-39606600D01*
X54200000Y-38000000D02*
X54200000Y-37223100D01*
%TD*%
M02*
