%TF.GenerationSoftware,KiCad,Pcbnew,9.0.9-9.0.9~ubuntu24.04.1*%
%TF.CreationDate,2026-10-04T13:19:41+00:00*%
%TF.ProjectId,adc,6164632e-6b69-4636-9164-5f7063625858,rev?*%
%TF.SameCoordinates,Original*%
%TF.FileFunction,Copper,L1,Top*%
%TF.FilePolarity,Positive*%
%FSLAX46Y46*%
G04 Gerber Fmt 4.6, Leading zero omitted, Abs format (unit mm)*
G04 Created by KiCad (PCBNEW 9.0.9-9.0.9~ubuntu24.04.1) date 2026-10-04 13:19:41*
%MOMM*%
%LPD*%
G01*
G04 APERTURE LIST*
%TA.AperFunction,ComponentPad*%
%ADD10R,1.350000X1.350000*%
%TD*%
%TA.AperFunction,ComponentPad*%
%ADD11C,1.350000*%
%TD*%
%TA.AperFunction,SMDPad,CuDef*%
%ADD12R,0.850000X0.950000*%
%TD*%
%TA.AperFunction,SMDPad,CuDef*%
%ADD13R,1.500000X0.600000*%
%TD*%
%TA.AperFunction,SMDPad,CuDef*%
%ADD14R,1.000000X0.600000*%
%TD*%
%TA.AperFunction,ViaPad*%
%ADD15C,0.600000*%
%TD*%
%TA.AperFunction,Conductor*%
%ADD16C,0.200000*%
%TD*%
G04 APERTURE END LIST*
D10*
%TO.P,J2,1*%
%TO.N,SENS_3V3*%
X12000000Y-10000000D03*
D11*
%TO.P,J2,2*%
%TO.N,GND*%
X14000000Y-10000000D03*
%TO.P,J2,3*%
%TO.N,A0*%
X16000000Y-10000000D03*
%TO.P,J2,4*%
%TO.N,SENS_3V3*%
X18000000Y-10000000D03*
%TO.P,J2,5*%
%TO.N,GND*%
X20000000Y-10000000D03*
%TO.P,J2,6*%
%TO.N,A1*%
X22000000Y-10000000D03*
%TO.P,J2,7*%
%TO.N,SENS_3V3*%
X24000000Y-10000000D03*
%TO.P,J2,8*%
%TO.N,GND*%
X26000000Y-10000000D03*
%TO.P,J2,9*%
%TO.N,A2*%
X28000000Y-10000000D03*
%TO.P,J2,10*%
%TO.N,SENS_3V3*%
X30000000Y-10000000D03*
%TO.P,J2,11*%
%TO.N,GND*%
X32000000Y-10000000D03*
%TO.P,J2,12*%
%TO.N,A3*%
X34000000Y-10000000D03*
%TO.P,J2,13*%
%TO.N,SENS_3V3*%
X36000000Y-10000000D03*
%TO.P,J2,14*%
%TO.N,GND*%
X38000000Y-10000000D03*
%TO.P,J2,15*%
%TO.N,A4*%
X40000000Y-10000000D03*
%TO.P,J2,16*%
%TO.N,SENS_3V3*%
X42000000Y-10000000D03*
%TO.P,J2,17*%
%TO.N,GND*%
X44000000Y-10000000D03*
%TO.P,J2,18*%
%TO.N,A5*%
X46000000Y-10000000D03*
%TO.P,J2,19*%
%TO.N,SENS_3V3*%
X48000000Y-10000000D03*
%TO.P,J2,20*%
%TO.N,GND*%
X50000000Y-10000000D03*
%TO.P,J2,21*%
%TO.N,A6*%
X52000000Y-10000000D03*
%TO.P,J2,22*%
%TO.N,SENS_3V3*%
X54000000Y-10000000D03*
%TO.P,J2,23*%
%TO.N,GND*%
X56000000Y-10000000D03*
%TO.P,J2,24*%
%TO.N,IN7*%
X58000000Y-10000000D03*
%TD*%
D12*
%TO.P,R3,1*%
%TO.N,A2*%
X13200000Y-30000000D03*
%TO.P,R3,2*%
%TO.N,GND*%
X14800000Y-30000000D03*
%TD*%
%TO.P,C1,1*%
%TO.N,SENS_3V3*%
X33200000Y-23000000D03*
%TO.P,C1,2*%
%TO.N,GND*%
X34800000Y-23000000D03*
%TD*%
%TO.P,C3,1*%
%TO.N,SENS_3V3*%
X54200000Y-38000000D03*
%TO.P,C3,2*%
%TO.N,GND*%
X55800000Y-38000000D03*
%TD*%
%TO.P,R6,1*%
%TO.N,A5*%
X42200000Y-25000000D03*
%TO.P,R6,2*%
%TO.N,GND*%
X43800000Y-25000000D03*
%TD*%
D10*
%TO.P,J1,1*%
%TO.N,SENS_3V3*%
X57000000Y-29000000D03*
D11*
%TO.P,J1,2*%
%TO.N,GND*%
X59000000Y-29000000D03*
%TO.P,J1,3*%
%TO.N,ADC_SCK*%
X61000000Y-29000000D03*
%TO.P,J1,4*%
%TO.N,ADC_MOSI*%
X63000000Y-29000000D03*
%TO.P,J1,5*%
%TO.N,ADC_MISO*%
X65000000Y-29000000D03*
%TO.P,J1,6*%
%TO.N,ADC_CS*%
X67000000Y-29000000D03*
%TD*%
D12*
%TO.P,R7,1*%
%TO.N,A6*%
X42200000Y-30000000D03*
%TO.P,R7,2*%
%TO.N,GND*%
X43800000Y-30000000D03*
%TD*%
%TO.P,R5,1*%
%TO.N,A4*%
X42200000Y-20000000D03*
%TO.P,R5,2*%
%TO.N,GND*%
X43800000Y-20000000D03*
%TD*%
%TO.P,R4,1*%
%TO.N,A3*%
X13200000Y-35000000D03*
%TO.P,R4,2*%
%TO.N,GND*%
X14800000Y-35000000D03*
%TD*%
D10*
%TO.P,JP1,1*%
%TO.N,IN7*%
X57000000Y-18000000D03*
D11*
%TO.P,JP1,2*%
%TO.N,A7*%
X59000000Y-18000000D03*
%TO.P,JP1,3*%
%TO.N,MID*%
X61000000Y-18000000D03*
%TD*%
D12*
%TO.P,R10,1*%
%TO.N,MID*%
X66200000Y-22000000D03*
%TO.P,R10,2*%
%TO.N,GND*%
X67800000Y-22000000D03*
%TD*%
%TO.P,R8,1*%
%TO.N,A7*%
X42200000Y-35000000D03*
%TO.P,R8,2*%
%TO.N,GND*%
X43800000Y-35000000D03*
%TD*%
D13*
%TO.P,U1,1*%
%TO.N,A0*%
X25300000Y-22555000D03*
%TO.P,U1,2*%
%TO.N,A1*%
X25300000Y-23825000D03*
%TO.P,U1,3*%
%TO.N,A2*%
X25300000Y-25095000D03*
%TO.P,U1,4*%
%TO.N,A3*%
X25300000Y-26365000D03*
%TO.P,U1,5*%
%TO.N,A4*%
X25300000Y-27634999D03*
%TO.P,U1,6*%
%TO.N,A5*%
X25300000Y-28904999D03*
%TO.P,U1,7*%
%TO.N,A6*%
X25300000Y-30175000D03*
%TO.P,U1,8*%
%TO.N,A7*%
X25300000Y-31445000D03*
%TO.P,U1,9*%
%TO.N,GND*%
X30700000Y-31445000D03*
%TO.P,U1,10*%
%TO.N,ADC_CS*%
X30700000Y-30175000D03*
%TO.P,U1,11*%
%TO.N,ADC_MOSI*%
X30700000Y-28905000D03*
%TO.P,U1,12*%
%TO.N,ADC_OUT_RAW*%
X30700000Y-27635000D03*
%TO.P,U1,13*%
%TO.N,ADC_SCK*%
X30700000Y-26365001D03*
%TO.P,U1,14*%
%TO.N,GND*%
X30700000Y-25095001D03*
%TO.P,U1,15*%
%TO.N,SENS_3V3*%
X30700000Y-23825000D03*
%TO.P,U1,16*%
X30700000Y-22555000D03*
%TD*%
D14*
%TO.P,U2,1*%
%TO.N,ADC_CS*%
X58900000Y-37050000D03*
%TO.P,U2,2*%
%TO.N,ADC_OUT_RAW*%
X58900000Y-38000000D03*
%TO.P,U2,3*%
%TO.N,GND*%
X58900000Y-38950000D03*
%TO.P,U2,4*%
%TO.N,ADC_MISO*%
X61100000Y-38950000D03*
%TO.P,U2,5*%
%TO.N,SENS_3V3*%
X61100000Y-37050000D03*
%TD*%
D12*
%TO.P,R9,1*%
%TO.N,SENS_3V3*%
X66200000Y-18000000D03*
%TO.P,R9,2*%
%TO.N,MID*%
X67800000Y-18000000D03*
%TD*%
%TO.P,C2,1*%
%TO.N,SENS_3V3*%
X33200000Y-27000000D03*
%TO.P,C2,2*%
%TO.N,GND*%
X34800000Y-27000000D03*
%TD*%
%TO.P,R1,1*%
%TO.N,A0*%
X13200000Y-20000000D03*
%TO.P,R1,2*%
%TO.N,GND*%
X14800000Y-20000000D03*
%TD*%
%TO.P,R2,1*%
%TO.N,A1*%
X13200000Y-25000000D03*
%TO.P,R2,2*%
%TO.N,GND*%
X14800000Y-25000000D03*
%TD*%
D15*
%TO.N,A2*%
X26568400Y-25094300D03*
%TO.N,A3*%
X26806100Y-26365000D03*
%TO.N,A4*%
X27587200Y-27146100D03*
%TO.N,A6*%
X41876700Y-29004100D03*
%TO.N,A7*%
X52791400Y-36617500D03*
%TO.N,ADC_OUT_RAW*%
X42620300Y-33530800D03*
X37554200Y-28236600D03*
%TD*%
D16*
%TO.N,A0*%
X13528000Y-9014600D02*
X15014600Y-9014600D01*
X15014600Y-9014600D02*
X16000000Y-10000000D01*
X13200000Y-20000000D02*
X13449900Y-20000000D01*
X16004900Y-22555000D02*
X13449900Y-20000000D01*
X25300000Y-22555000D02*
X16004900Y-22555000D01*
X13449900Y-20000000D02*
X12999900Y-19550000D01*
X12999900Y-9542700D02*
X13528000Y-9014600D01*
X12999900Y-19550000D02*
X12999900Y-9542700D01*
%TO.N,A1*%
X14647600Y-23825000D02*
X25300000Y-23825000D01*
X26351900Y-14351900D02*
X22000000Y-10000000D01*
X13926900Y-24545700D02*
X14647600Y-23825000D01*
X26351900Y-23825000D02*
X26351900Y-14351900D01*
X13200000Y-25000000D02*
X13926900Y-25000000D01*
X25300000Y-23825000D02*
X26351900Y-23825000D01*
X13926900Y-25000000D02*
X13926900Y-24545700D01*
%TO.N,A2*%
X17328100Y-25095000D02*
X25300000Y-25095000D01*
X26567700Y-25095000D02*
X26568400Y-25094300D01*
X13200000Y-29223100D02*
X17328100Y-25095000D01*
X25300000Y-25095000D02*
X26351900Y-25095000D01*
X13200000Y-30000000D02*
X13200000Y-29223100D01*
X26351900Y-25095000D02*
X26567700Y-25095000D01*
%TO.N,A3*%
X13926900Y-29513100D02*
X17074900Y-26365100D01*
X24875000Y-26365000D02*
X24248100Y-26365000D01*
X24248100Y-26365100D02*
X24248100Y-26365000D01*
X13200000Y-35000000D02*
X13926900Y-35000000D01*
X24875000Y-26365000D02*
X25300000Y-26365000D01*
X25300000Y-26365000D02*
X26806100Y-26365000D01*
X17074900Y-26365100D02*
X24248100Y-26365100D01*
X13926900Y-35000000D02*
X13926900Y-29513100D01*
%TO.N,A4*%
X42200000Y-12200000D02*
X40000000Y-10000000D01*
X42200000Y-20000000D02*
X42200000Y-12200000D01*
X27588300Y-27147200D02*
X27587200Y-27146100D01*
X26839700Y-27147200D02*
X27588300Y-27147200D01*
X25300000Y-27635000D02*
X26351900Y-27635000D01*
X26351900Y-27635000D02*
X26839700Y-27147200D01*
%TO.N,A5*%
X26679700Y-28905000D02*
X26351900Y-28905000D01*
X31684600Y-25726900D02*
X29857800Y-25726900D01*
X25300000Y-28905000D02*
X26351900Y-28905000D01*
X42250000Y-25776900D02*
X44413700Y-25776900D01*
X46000000Y-24190600D02*
X46000000Y-10000000D01*
X42200000Y-25000000D02*
X41473100Y-25000000D01*
X41473100Y-25000000D02*
X42250000Y-25776900D01*
X31992200Y-25419300D02*
X31684600Y-25726900D01*
X29857800Y-25726900D02*
X26679700Y-28905000D01*
X44413700Y-25776900D02*
X46000000Y-24190600D01*
X41053800Y-25419300D02*
X31992200Y-25419300D01*
X41473100Y-25000000D02*
X41053800Y-25419300D01*
%TO.N,A6*%
X26351900Y-30175000D02*
X26920100Y-30175000D01*
X26920100Y-30175000D02*
X27522000Y-29573100D01*
X41307700Y-29573100D02*
X41473100Y-29738500D01*
X41307700Y-29573100D02*
X41876700Y-29004100D01*
X42200000Y-30000000D02*
X41473100Y-30000000D01*
X27522000Y-29573100D02*
X41307700Y-29573100D01*
X25300000Y-30175000D02*
X26351900Y-30175000D01*
X41473100Y-29738500D02*
X41473100Y-30000000D01*
%TO.N,A7*%
X43817500Y-36617500D02*
X52791400Y-36617500D01*
X25300000Y-31445000D02*
X26351900Y-31445000D01*
X42200000Y-35000000D02*
X43817500Y-36617500D01*
X29906900Y-35000000D02*
X42200000Y-35000000D01*
X26351900Y-31445000D02*
X29906900Y-35000000D01*
%TO.N,ADC_CS*%
X64000000Y-29381600D02*
X58107800Y-35273800D01*
X55273700Y-32449400D02*
X34026300Y-32449400D01*
X64598200Y-27962900D02*
X64000000Y-28561100D01*
X30700000Y-30175000D02*
X31751900Y-30175000D01*
X58098100Y-35273800D02*
X58098100Y-37050000D01*
X67000000Y-29000000D02*
X65962900Y-27962900D01*
X34026300Y-32449400D02*
X31751900Y-30175000D01*
X65962900Y-27962900D02*
X64598200Y-27962900D01*
X58107800Y-35273800D02*
X58098100Y-35273800D01*
X58900000Y-37050000D02*
X58098100Y-37050000D01*
X58098100Y-35273800D02*
X55273700Y-32449400D01*
X64000000Y-28561100D02*
X64000000Y-29381600D01*
%TO.N,ADC_MISO*%
X60298100Y-33701900D02*
X60298100Y-38950000D01*
X65000000Y-29000000D02*
X60298100Y-33701900D01*
X61100000Y-38950000D02*
X60298100Y-38950000D01*
%TO.N,ADC_MOSI*%
X40113600Y-28905000D02*
X31751900Y-28905000D01*
X63000000Y-29000000D02*
X61223100Y-30776900D01*
X43000000Y-30541300D02*
X43000000Y-29270700D01*
X40654300Y-28364300D02*
X40113600Y-28905000D01*
X61223100Y-30776900D02*
X43235600Y-30776900D01*
X30700000Y-28905000D02*
X31751900Y-28905000D01*
X43000000Y-29270700D02*
X42093600Y-28364300D01*
X43235600Y-30776900D02*
X43000000Y-30541300D01*
X42093600Y-28364300D02*
X40654300Y-28364300D01*
%TO.N,ADC_OUT_RAW*%
X30700000Y-27635000D02*
X31751900Y-27635000D01*
X32353500Y-28236600D02*
X37554200Y-28236600D01*
X31751900Y-27635000D02*
X32353500Y-28236600D01*
X53628900Y-33530800D02*
X42620300Y-33530800D01*
X58098100Y-38000000D02*
X53628900Y-33530800D01*
X58900000Y-38000000D02*
X58098100Y-38000000D01*
%TO.N,ADC_SCK*%
X58223100Y-26223100D02*
X34695500Y-26223100D01*
X34695500Y-26223100D02*
X34293600Y-25821200D01*
X61000000Y-29000000D02*
X58223100Y-26223100D01*
X30700000Y-26365000D02*
X31751900Y-26365000D01*
X34293600Y-25821200D02*
X32295700Y-25821200D01*
X32295700Y-25821200D02*
X31751900Y-26365000D01*
%TO.N,GND*%
X24374700Y-29573100D02*
X26579900Y-29573100D01*
X43800000Y-19223100D02*
X44000000Y-19023100D01*
X57476900Y-38950000D02*
X56526900Y-38000000D01*
X57000000Y-27000000D02*
X59000000Y-29000000D01*
X32525000Y-26223100D02*
X33750500Y-26223100D01*
X14800000Y-25000000D02*
X12473100Y-27326900D01*
X15163500Y-35000000D02*
X16370000Y-33793500D01*
X34800000Y-23000000D02*
X34073100Y-23000000D01*
X24216000Y-29731800D02*
X24374700Y-29573100D01*
X14976900Y-10976900D02*
X14000000Y-10000000D01*
X31748000Y-27000100D02*
X32525000Y-26223100D01*
X43800000Y-30000000D02*
X44526900Y-30000000D01*
X44000000Y-19023100D02*
X44000000Y-10000000D01*
X61976900Y-27823100D02*
X61976900Y-29440900D01*
X16370000Y-33793500D02*
X16370000Y-30843100D01*
X34800000Y-27000000D02*
X34073100Y-27000000D01*
X43800000Y-23000000D02*
X43800000Y-25000000D01*
X55073100Y-38000000D02*
X55073100Y-37545700D01*
X24216000Y-30843100D02*
X24216000Y-29731800D01*
X12626500Y-35803000D02*
X14360500Y-35803000D01*
X44540500Y-29986400D02*
X44526900Y-30000000D01*
X34073100Y-23000000D02*
X34073100Y-23454300D01*
X59000000Y-29986400D02*
X44540500Y-29986400D01*
X20000000Y-10000000D02*
X19023100Y-10976900D01*
X14360500Y-35803000D02*
X15163500Y-35000000D01*
X32510000Y-25017400D02*
X30777600Y-25017400D01*
X14800000Y-11153800D02*
X14976900Y-10976900D01*
X12473100Y-35649600D02*
X12626500Y-35803000D01*
X29046200Y-30843100D02*
X29648100Y-31445000D01*
X43800000Y-20000000D02*
X43800000Y-23000000D01*
X61431400Y-29986400D02*
X59000000Y-29986400D01*
X30700000Y-31445000D02*
X31751900Y-31445000D01*
X19023100Y-10976900D02*
X14976900Y-10976900D01*
X34512900Y-34206000D02*
X31751900Y-31445000D01*
X33750500Y-26223100D02*
X34073100Y-26545700D01*
X43800000Y-20000000D02*
X43800000Y-19223100D01*
X67800000Y-22000000D02*
X61976900Y-27823100D01*
X16370000Y-30843100D02*
X24216000Y-30843100D01*
X43073100Y-34545700D02*
X42733400Y-34206000D01*
X55800000Y-38000000D02*
X56526900Y-38000000D01*
X14800000Y-30000000D02*
X15526900Y-30000000D01*
X34073100Y-26545700D02*
X34073100Y-27000000D01*
X58900000Y-38950000D02*
X57476900Y-38950000D01*
X14800000Y-20000000D02*
X14800000Y-11153800D01*
X16370000Y-30843100D02*
X15526900Y-30000000D01*
X12473100Y-27326900D02*
X12473100Y-35649600D01*
X30700000Y-31445000D02*
X29648100Y-31445000D01*
X43800000Y-23000000D02*
X35526900Y-23000000D01*
X59000000Y-29986400D02*
X59000000Y-29000000D01*
X34073100Y-23454300D02*
X32510000Y-25017400D01*
X14800000Y-35000000D02*
X15163500Y-35000000D01*
X29152900Y-27000100D02*
X31748000Y-27000100D01*
X61976900Y-29440900D02*
X61431400Y-29986400D01*
X43800000Y-35000000D02*
X43073100Y-35000000D01*
X52527400Y-35000000D02*
X43800000Y-35000000D01*
X26579900Y-29573100D02*
X29152900Y-27000100D01*
X24216000Y-30843100D02*
X29046200Y-30843100D01*
X34800000Y-27000000D02*
X57000000Y-27000000D01*
X42733400Y-34206000D02*
X34512900Y-34206000D01*
X43073100Y-35000000D02*
X43073100Y-34545700D01*
X55073100Y-37545700D02*
X52527400Y-35000000D01*
X34800000Y-23000000D02*
X35526900Y-23000000D01*
X30777600Y-25017400D02*
X30700000Y-25095000D01*
X55800000Y-38000000D02*
X55073100Y-38000000D01*
%TO.N,MID*%
X67436600Y-18000000D02*
X66926900Y-18509700D01*
X61000000Y-18000000D02*
X61776900Y-17223100D01*
X67436600Y-17867900D02*
X67436600Y-18000000D01*
X66200000Y-22000000D02*
X66926900Y-22000000D01*
X61776900Y-17223100D02*
X66791800Y-17223100D01*
X67800000Y-18000000D02*
X67436600Y-18000000D01*
X66926900Y-18509700D02*
X66926900Y-22000000D01*
X66791800Y-17223100D02*
X67436600Y-17867900D01*
%TO.N,SENS_3V3*%
X47023100Y-9023100D02*
X48000000Y-10000000D01*
X60610700Y-18997400D02*
X60000000Y-18386700D01*
X31751900Y-23721200D02*
X32473100Y-23000000D01*
X61766800Y-39580800D02*
X55780800Y-39580800D01*
X67912100Y-16770300D02*
X60000000Y-16770300D01*
X68565200Y-17423400D02*
X67912100Y-16770300D01*
X29019700Y-10980300D02*
X24980300Y-10980300D01*
X61901900Y-37050000D02*
X61901900Y-39445700D01*
X36000000Y-10000000D02*
X36976900Y-9023100D01*
X18986800Y-9013200D02*
X18000000Y-10000000D01*
X23013200Y-9013200D02*
X18986800Y-9013200D01*
X32028100Y-22555000D02*
X32473100Y-23000000D01*
X61801000Y-37050000D02*
X61901900Y-37050000D01*
X36976900Y-9023100D02*
X41023100Y-9023100D01*
X60000000Y-16770300D02*
X60000000Y-16000000D01*
X36627500Y-27634600D02*
X36485200Y-27776900D01*
X56023100Y-29000000D02*
X54657700Y-27634600D01*
X42000000Y-10000000D02*
X42976900Y-9023100D01*
X31751900Y-10979800D02*
X31751900Y-22555000D01*
X48976900Y-9023100D02*
X48000000Y-10000000D01*
X65473100Y-18000000D02*
X64475700Y-18997400D01*
X61901900Y-39445700D02*
X61766800Y-39580800D01*
X31751900Y-22555000D02*
X32028100Y-22555000D01*
X54000000Y-10000000D02*
X53023100Y-9023100D01*
X33200000Y-23000000D02*
X32473100Y-23000000D01*
X54657700Y-27634600D02*
X36627500Y-27634600D01*
X36485200Y-27776900D02*
X33976900Y-27776900D01*
X61100000Y-37050000D02*
X61801000Y-37050000D01*
X30000000Y-10000000D02*
X30979800Y-10979800D01*
X30700000Y-22555000D02*
X31751900Y-22555000D01*
X60000000Y-18386700D02*
X60000000Y-16770300D01*
X41023100Y-9023100D02*
X42000000Y-10000000D01*
X60000000Y-16000000D02*
X54000000Y-10000000D01*
X42976900Y-9023100D02*
X47023100Y-9023100D01*
X31751900Y-23825000D02*
X31751900Y-23721200D01*
X61901900Y-37050000D02*
X68565200Y-30386700D01*
X24980300Y-10980300D02*
X24000000Y-10000000D01*
X53023100Y-9023100D02*
X48976900Y-9023100D01*
X35020200Y-10979800D02*
X36000000Y-10000000D01*
X24000000Y-10000000D02*
X23013200Y-9013200D01*
X30979800Y-10979800D02*
X31751900Y-10979800D01*
X30000000Y-10000000D02*
X29019700Y-10980300D01*
X64475700Y-18997400D02*
X60610700Y-18997400D01*
X55780800Y-39580800D02*
X54200000Y-38000000D01*
X33976900Y-27776900D02*
X33200000Y-27000000D01*
X66200000Y-18000000D02*
X65473100Y-18000000D01*
X30700000Y-23825000D02*
X31751900Y-23825000D01*
X31751900Y-10979800D02*
X35020200Y-10979800D01*
X57000000Y-29000000D02*
X56023100Y-29000000D01*
X68565200Y-30386700D02*
X68565200Y-17423400D01*
%TD*%
M02*
