%TF.GenerationSoftware,KiCad,Pcbnew,9.0.9-9.0.9~ubuntu24.04.1*%
%TF.CreationDate,2026-10-04T14:00:57+00:00*%
%TF.ProjectId,adc,6164632e-6b69-4636-9164-5f7063625858,rev?*%
%TF.SameCoordinates,Original*%
%TF.FileFunction,Legend,Top*%
%TF.FilePolarity,Positive*%
%FSLAX46Y46*%
G04 Gerber Fmt 4.6, Leading zero omitted, Abs format (unit mm)*
G04 Created by KiCad (PCBNEW 9.0.9-9.0.9~ubuntu24.04.1) date 2026-10-04 14:00:57*
%MOMM*%
%LPD*%
G01*
G04 APERTURE LIST*
%ADD10C,0.120000*%
G04 APERTURE END LIST*
D10*
X37514285Y-48495831D02*
X37428571Y-48452974D01*
X37428571Y-48452974D02*
X37342857Y-48367260D01*
X37342857Y-48367260D02*
X37214285Y-48238688D01*
X37214285Y-48238688D02*
X37128571Y-48195831D01*
X37128571Y-48195831D02*
X37042857Y-48195831D01*
X37085714Y-48410117D02*
X37000000Y-48367260D01*
X37000000Y-48367260D02*
X36914285Y-48281545D01*
X36914285Y-48281545D02*
X36871428Y-48110117D01*
X36871428Y-48110117D02*
X36871428Y-47810117D01*
X36871428Y-47810117D02*
X36914285Y-47638688D01*
X36914285Y-47638688D02*
X37000000Y-47552974D01*
X37000000Y-47552974D02*
X37085714Y-47510117D01*
X37085714Y-47510117D02*
X37257142Y-47510117D01*
X37257142Y-47510117D02*
X37342857Y-47552974D01*
X37342857Y-47552974D02*
X37428571Y-47638688D01*
X37428571Y-47638688D02*
X37471428Y-47810117D01*
X37471428Y-47810117D02*
X37471428Y-48110117D01*
X37471428Y-48110117D02*
X37428571Y-48281545D01*
X37428571Y-48281545D02*
X37342857Y-48367260D01*
X37342857Y-48367260D02*
X37257142Y-48410117D01*
X37257142Y-48410117D02*
X37085714Y-48410117D01*
X37857142Y-47510117D02*
X37857142Y-48238688D01*
X37857142Y-48238688D02*
X37899999Y-48324402D01*
X37899999Y-48324402D02*
X37942857Y-48367260D01*
X37942857Y-48367260D02*
X38028571Y-48410117D01*
X38028571Y-48410117D02*
X38199999Y-48410117D01*
X38199999Y-48410117D02*
X38285714Y-48367260D01*
X38285714Y-48367260D02*
X38328571Y-48324402D01*
X38328571Y-48324402D02*
X38371428Y-48238688D01*
X38371428Y-48238688D02*
X38371428Y-47510117D01*
X39228571Y-48410117D02*
X38799999Y-48410117D01*
X38799999Y-48410117D02*
X38799999Y-47510117D01*
X39485713Y-48152974D02*
X39914285Y-48152974D01*
X39399999Y-48410117D02*
X39699999Y-47510117D01*
X39699999Y-47510117D02*
X39999999Y-48410117D01*
X40471428Y-47981545D02*
X40471428Y-48410117D01*
X40171428Y-47510117D02*
X40471428Y-47981545D01*
X40471428Y-47981545D02*
X40771428Y-47510117D01*
X42271428Y-48410117D02*
X41971428Y-47981545D01*
X41757142Y-48410117D02*
X41757142Y-47510117D01*
X41757142Y-47510117D02*
X42099999Y-47510117D01*
X42099999Y-47510117D02*
X42185714Y-47552974D01*
X42185714Y-47552974D02*
X42228571Y-47595831D01*
X42228571Y-47595831D02*
X42271428Y-47681545D01*
X42271428Y-47681545D02*
X42271428Y-47810117D01*
X42271428Y-47810117D02*
X42228571Y-47895831D01*
X42228571Y-47895831D02*
X42185714Y-47938688D01*
X42185714Y-47938688D02*
X42099999Y-47981545D01*
X42099999Y-47981545D02*
X41757142Y-47981545D01*
X42614285Y-47595831D02*
X42657142Y-47552974D01*
X42657142Y-47552974D02*
X42742857Y-47510117D01*
X42742857Y-47510117D02*
X42957142Y-47510117D01*
X42957142Y-47510117D02*
X43042857Y-47552974D01*
X43042857Y-47552974D02*
X43085714Y-47595831D01*
X43085714Y-47595831D02*
X43128571Y-47681545D01*
X43128571Y-47681545D02*
X43128571Y-47767260D01*
X43128571Y-47767260D02*
X43085714Y-47895831D01*
X43085714Y-47895831D02*
X42571428Y-48410117D01*
X42571428Y-48410117D02*
X43128571Y-48410117D01*
M02*
