M48
; DRILL file {KiCad 9.0.9-9.0.9~ubuntu24.04.1} date 2026-10-04T13:56:13+0000
; FORMAT={-:-/ absolute / metric / decimal}
; #@! TF.CreationDate,2026-10-04T13:56:13+00:00
; #@! TF.GenerationSoftware,Kicad,Pcbnew,9.0.9-9.0.9~ubuntu24.04.1
; #@! TF.FileFunction,MixedPlating,1,2
FMAT,2
METRIC
; #@! TA.AperFunction,Plated,PTH,ViaDrill
T1C0.300
; #@! TA.AperFunction,Plated,PTH,ComponentDrill
T2C0.750
; #@! TA.AperFunction,NonPlated,NPTH,ComponentDrill
T3C2.200
%
G90
G05
T1
X31.956Y-22.706
X40.0Y-30.053
X42.448Y-30.988
X53.641Y-36.208
X54.187Y-35.619
X59.255Y-36.24
T2
X12.0Y-10.0
X14.0Y-10.0
X16.0Y-10.0
X18.0Y-10.0
X20.0Y-10.0
X22.0Y-10.0
X24.0Y-10.0
X26.0Y-10.0
X28.0Y-10.0
X30.0Y-10.0
X32.0Y-10.0
X34.0Y-10.0
X36.0Y-10.0
X38.0Y-10.0
X40.0Y-10.0
X42.0Y-10.0
X44.0Y-10.0
X46.0Y-10.0
X48.0Y-10.0
X50.0Y-10.0
X52.0Y-10.0
X54.0Y-10.0
X56.0Y-10.0
X57.0Y-18.0
X57.0Y-29.0
X58.0Y-10.0
X59.0Y-18.0
X59.0Y-29.0
X61.0Y-18.0
X61.0Y-29.0
X63.0Y-29.0
X65.0Y-29.0
X67.0Y-29.0
T3
X4.0Y-4.0
X4.0Y-46.0
X76.0Y-4.0
X76.0Y-46.0
M30
