%TF.GenerationSoftware,KiCad,Pcbnew,9.0.9-9.0.9~ubuntu24.04.1*%
%TF.CreationDate,2026-10-04T14:20:18+00:00*%
%TF.ProjectId,power_good,706f7765-725f-4676-9f6f-642e6b696361,rev?*%
%TF.SameCoordinates,Original*%
%TF.FileFunction,AssemblyDrawing,Top*%
%FSLAX46Y46*%
G04 Gerber Fmt 4.6, Leading zero omitted, Abs format (unit mm)*
G04 Created by KiCad (PCBNEW 9.0.9-9.0.9~ubuntu24.04.1) date 2026-10-04 14:20:18*
%MOMM*%
%LPD*%
G01*
G04 APERTURE LIST*
%ADD10C,0.120000*%
G04 APERTURE END LIST*
D10*
X7514285Y-18495831D02*
X7428571Y-18452974D01*
X7428571Y-18452974D02*
X7342857Y-18367260D01*
X7342857Y-18367260D02*
X7214285Y-18238688D01*
X7214285Y-18238688D02*
X7128571Y-18195831D01*
X7128571Y-18195831D02*
X7042857Y-18195831D01*
X7085714Y-18410117D02*
X7000000Y-18367260D01*
X7000000Y-18367260D02*
X6914285Y-18281545D01*
X6914285Y-18281545D02*
X6871428Y-18110117D01*
X6871428Y-18110117D02*
X6871428Y-17810117D01*
X6871428Y-17810117D02*
X6914285Y-17638688D01*
X6914285Y-17638688D02*
X7000000Y-17552974D01*
X7000000Y-17552974D02*
X7085714Y-17510117D01*
X7085714Y-17510117D02*
X7257142Y-17510117D01*
X7257142Y-17510117D02*
X7342857Y-17552974D01*
X7342857Y-17552974D02*
X7428571Y-17638688D01*
X7428571Y-17638688D02*
X7471428Y-17810117D01*
X7471428Y-17810117D02*
X7471428Y-18110117D01*
X7471428Y-18110117D02*
X7428571Y-18281545D01*
X7428571Y-18281545D02*
X7342857Y-18367260D01*
X7342857Y-18367260D02*
X7257142Y-18410117D01*
X7257142Y-18410117D02*
X7085714Y-18410117D01*
X7857142Y-17510117D02*
X7857142Y-18238688D01*
X7857142Y-18238688D02*
X7899999Y-18324402D01*
X7899999Y-18324402D02*
X7942857Y-18367260D01*
X7942857Y-18367260D02*
X8028571Y-18410117D01*
X8028571Y-18410117D02*
X8199999Y-18410117D01*
X8199999Y-18410117D02*
X8285714Y-18367260D01*
X8285714Y-18367260D02*
X8328571Y-18324402D01*
X8328571Y-18324402D02*
X8371428Y-18238688D01*
X8371428Y-18238688D02*
X8371428Y-17510117D01*
X9228571Y-18410117D02*
X8799999Y-18410117D01*
X8799999Y-18410117D02*
X8799999Y-17510117D01*
X9485713Y-18152974D02*
X9914285Y-18152974D01*
X9399999Y-18410117D02*
X9699999Y-17510117D01*
X9699999Y-17510117D02*
X9999999Y-18410117D01*
X10471428Y-17981545D02*
X10471428Y-18410117D01*
X10171428Y-17510117D02*
X10471428Y-17981545D01*
X10471428Y-17981545D02*
X10771428Y-17510117D01*
X12271428Y-18410117D02*
X11971428Y-17981545D01*
X11757142Y-18410117D02*
X11757142Y-17510117D01*
X11757142Y-17510117D02*
X12099999Y-17510117D01*
X12099999Y-17510117D02*
X12185714Y-17552974D01*
X12185714Y-17552974D02*
X12228571Y-17595831D01*
X12228571Y-17595831D02*
X12271428Y-17681545D01*
X12271428Y-17681545D02*
X12271428Y-17810117D01*
X12271428Y-17810117D02*
X12228571Y-17895831D01*
X12228571Y-17895831D02*
X12185714Y-17938688D01*
X12185714Y-17938688D02*
X12099999Y-17981545D01*
X12099999Y-17981545D02*
X11757142Y-17981545D01*
X12614285Y-17595831D02*
X12657142Y-17552974D01*
X12657142Y-17552974D02*
X12742857Y-17510117D01*
X12742857Y-17510117D02*
X12957142Y-17510117D01*
X12957142Y-17510117D02*
X13042857Y-17552974D01*
X13042857Y-17552974D02*
X13085714Y-17595831D01*
X13085714Y-17595831D02*
X13128571Y-17681545D01*
X13128571Y-17681545D02*
X13128571Y-17767260D01*
X13128571Y-17767260D02*
X13085714Y-17895831D01*
X13085714Y-17895831D02*
X12571428Y-18410117D01*
X12571428Y-18410117D02*
X13128571Y-18410117D01*
X13866667Y-4287664D02*
X13828571Y-4325760D01*
X13828571Y-4325760D02*
X13714286Y-4363855D01*
X13714286Y-4363855D02*
X13638095Y-4363855D01*
X13638095Y-4363855D02*
X13523809Y-4325760D01*
X13523809Y-4325760D02*
X13447619Y-4249569D01*
X13447619Y-4249569D02*
X13409524Y-4173379D01*
X13409524Y-4173379D02*
X13371428Y-4020998D01*
X13371428Y-4020998D02*
X13371428Y-3906712D01*
X13371428Y-3906712D02*
X13409524Y-3754331D01*
X13409524Y-3754331D02*
X13447619Y-3678140D01*
X13447619Y-3678140D02*
X13523809Y-3601950D01*
X13523809Y-3601950D02*
X13638095Y-3563855D01*
X13638095Y-3563855D02*
X13714286Y-3563855D01*
X13714286Y-3563855D02*
X13828571Y-3601950D01*
X13828571Y-3601950D02*
X13866667Y-3640045D01*
X14628571Y-4363855D02*
X14171428Y-4363855D01*
X14400000Y-4363855D02*
X14400000Y-3563855D01*
X14400000Y-3563855D02*
X14323809Y-3678140D01*
X14323809Y-3678140D02*
X14247619Y-3754331D01*
X14247619Y-3754331D02*
X14171428Y-3792426D01*
X9390476Y-5563855D02*
X9390476Y-6211474D01*
X9390476Y-6211474D02*
X9428571Y-6287664D01*
X9428571Y-6287664D02*
X9466666Y-6325760D01*
X9466666Y-6325760D02*
X9542857Y-6363855D01*
X9542857Y-6363855D02*
X9695238Y-6363855D01*
X9695238Y-6363855D02*
X9771428Y-6325760D01*
X9771428Y-6325760D02*
X9809523Y-6287664D01*
X9809523Y-6287664D02*
X9847619Y-6211474D01*
X9847619Y-6211474D02*
X9847619Y-5563855D01*
X10647618Y-6363855D02*
X10190475Y-6363855D01*
X10419047Y-6363855D02*
X10419047Y-5563855D01*
X10419047Y-5563855D02*
X10342856Y-5678140D01*
X10342856Y-5678140D02*
X10266666Y-5754331D01*
X10266666Y-5754331D02*
X10190475Y-5792426D01*
X9866667Y-1863855D02*
X9600000Y-1482902D01*
X9409524Y-1863855D02*
X9409524Y-1063855D01*
X9409524Y-1063855D02*
X9714286Y-1063855D01*
X9714286Y-1063855D02*
X9790476Y-1101950D01*
X9790476Y-1101950D02*
X9828571Y-1140045D01*
X9828571Y-1140045D02*
X9866667Y-1216236D01*
X9866667Y-1216236D02*
X9866667Y-1330521D01*
X9866667Y-1330521D02*
X9828571Y-1406712D01*
X9828571Y-1406712D02*
X9790476Y-1444807D01*
X9790476Y-1444807D02*
X9714286Y-1482902D01*
X9714286Y-1482902D02*
X9409524Y-1482902D01*
X10628571Y-1863855D02*
X10171428Y-1863855D01*
X10400000Y-1863855D02*
X10400000Y-1063855D01*
X10400000Y-1063855D02*
X10323809Y-1178140D01*
X10323809Y-1178140D02*
X10247619Y-1254331D01*
X10247619Y-1254331D02*
X10171428Y-1292426D01*
X6733333Y-11563855D02*
X6733333Y-12135283D01*
X6733333Y-12135283D02*
X6695238Y-12249569D01*
X6695238Y-12249569D02*
X6619047Y-12325760D01*
X6619047Y-12325760D02*
X6504762Y-12363855D01*
X6504762Y-12363855D02*
X6428571Y-12363855D01*
X7533333Y-12363855D02*
X7076190Y-12363855D01*
X7304762Y-12363855D02*
X7304762Y-11563855D01*
X7304762Y-11563855D02*
X7228571Y-11678140D01*
X7228571Y-11678140D02*
X7152381Y-11754331D01*
X7152381Y-11754331D02*
X7076190Y-11792426D01*
M02*
