%TF.GenerationSoftware,KiCad,Pcbnew,9.0.9-9.0.9~ubuntu24.04.1*%
%TF.CreationDate,2026-10-04T14:20:18+00:00*%
%TF.ProjectId,power_good,706f7765-725f-4676-9f6f-642e6b696361,rev?*%
%TF.SameCoordinates,Original*%
%TF.FileFunction,Copper,L1,Top*%
%TF.FilePolarity,Positive*%
%FSLAX46Y46*%
G04 Gerber Fmt 4.6, Leading zero omitted, Abs format (unit mm)*
G04 Created by KiCad (PCBNEW 9.0.9-9.0.9~ubuntu24.04.1) date 2026-10-04 14:20:18*
%MOMM*%
%LPD*%
G01*
G04 APERTURE LIST*
%TA.AperFunction,SMDPad,CuDef*%
%ADD10R,0.850000X0.950000*%
%TD*%
%TA.AperFunction,SMDPad,CuDef*%
%ADD11R,1.000000X0.600000*%
%TD*%
%TA.AperFunction,ComponentPad*%
%ADD12R,1.350000X1.350000*%
%TD*%
%TA.AperFunction,ComponentPad*%
%ADD13C,1.350000*%
%TD*%
%TA.AperFunction,ViaPad*%
%ADD14C,0.600000*%
%TD*%
%TA.AperFunction,Conductor*%
%ADD15C,0.200000*%
%TD*%
G04 APERTURE END LIST*
D10*
%TO.P,C1,1*%
%TO.N,PICO_3V3*%
X13200000Y-7000000D03*
%TO.P,C1,2*%
%TO.N,GND*%
X14800000Y-7000000D03*
%TD*%
D11*
%TO.P,U1,1*%
%TO.N,POWER_GOOD*%
X8900000Y-8050000D03*
%TO.P,U1,2*%
%TO.N,GND*%
X8900000Y-9000000D03*
%TO.P,U1,3*%
%TO.N,PICO_3V3*%
X8900000Y-9950000D03*
%TO.P,U1,4*%
%TO.N,N/C*%
X11100000Y-9950000D03*
%TO.P,U1,5*%
%TO.N,SENS_3V3*%
X11100000Y-9000000D03*
%TO.P,U1,6*%
%TO.N,PICO_3V3*%
X11100000Y-8050000D03*
%TD*%
D10*
%TO.P,R1,1*%
%TO.N,SENS_3V3*%
X9200000Y-4500000D03*
%TO.P,R1,2*%
%TO.N,POWER_GOOD*%
X10800000Y-4500000D03*
%TD*%
D12*
%TO.P,J1,1*%
%TO.N,PICO_3V3*%
X7000000Y-15000000D03*
D13*
%TO.P,J1,2*%
%TO.N,GND*%
X9000000Y-15000000D03*
%TO.P,J1,3*%
%TO.N,SENS_3V3*%
X11000000Y-15000000D03*
%TO.P,J1,4*%
%TO.N,POWER_GOOD*%
X13000000Y-15000000D03*
%TD*%
D14*
%TO.N,GND*%
X7894700Y-9000000D03*
%TD*%
D15*
%TO.N,GND*%
X9000000Y-15000000D02*
X14800000Y-9200000D01*
X14800000Y-9200000D02*
X14800000Y-7000000D01*
X8900000Y-9000000D02*
X8098100Y-9000000D01*
X8098100Y-9000000D02*
X7894700Y-9000000D01*
%TO.N,PICO_3V3*%
X11100000Y-8050000D02*
X10298100Y-8050000D01*
X7000000Y-14023100D02*
X8098100Y-12925000D01*
X11300500Y-8050000D02*
X11100000Y-8050000D01*
X12473100Y-7077900D02*
X12473100Y-7000000D01*
X11300500Y-8050000D02*
X11501000Y-8050000D01*
X8900000Y-9950000D02*
X8098100Y-9950000D01*
X7000000Y-15000000D02*
X7000000Y-14023100D01*
X11501000Y-8050000D02*
X12473100Y-7077900D01*
X8900000Y-9950000D02*
X9701900Y-9950000D01*
X13200000Y-7000000D02*
X12473100Y-7000000D01*
X10298100Y-8050000D02*
X9701900Y-8646200D01*
X9701900Y-8646200D02*
X9701900Y-9950000D01*
X8098100Y-12925000D02*
X8098100Y-9950000D01*
%TO.N,POWER_GOOD*%
X8900000Y-8050000D02*
X9701900Y-8050000D01*
X15526900Y-6337800D02*
X14335700Y-5146600D01*
X10800000Y-4500000D02*
X11526900Y-4500000D01*
X9701900Y-7023000D02*
X9701900Y-8050000D01*
X14335700Y-5146600D02*
X11578300Y-5146600D01*
X13000000Y-15000000D02*
X15526900Y-12473100D01*
X15526900Y-12473100D02*
X15526900Y-6337800D01*
X11526900Y-4500000D02*
X11526900Y-5095200D01*
X11526900Y-5095200D02*
X11578300Y-5146600D01*
X11578300Y-5146600D02*
X9701900Y-7023000D01*
%TO.N,SENS_3V3*%
X6236700Y-16013700D02*
X7814800Y-16013700D01*
X11100000Y-9000000D02*
X10298100Y-9000000D01*
X8473100Y-4500000D02*
X6023100Y-6950000D01*
X8194800Y-15633700D02*
X8572900Y-16011900D01*
X8023100Y-14595400D02*
X8023100Y-15462100D01*
X8572900Y-16011900D02*
X9988100Y-16011900D01*
X9988100Y-16011900D02*
X11000000Y-15000000D01*
X6023100Y-15800100D02*
X6236700Y-16013700D01*
X10298100Y-9000000D02*
X10298100Y-12320400D01*
X8023100Y-15462100D02*
X8194800Y-15633700D01*
X6023100Y-6950000D02*
X6023100Y-15800100D01*
X10298100Y-12320400D02*
X8023100Y-14595400D01*
X9200000Y-4500000D02*
X8473100Y-4500000D01*
X7814800Y-16013700D02*
X8194800Y-15633700D01*
%TD*%
M02*
