%TF.GenerationSoftware,KiCad,Pcbnew,9.0.9-9.0.9~ubuntu24.04.1*%
%TF.CreationDate,2026-10-02T19:33:08+00:00*%
%TF.ProjectId,carrier,63617272-6965-4722-9e6b-696361645f70,rev?*%
%TF.SameCoordinates,Original*%
%TF.FileFunction,Copper,L1,Top*%
%TF.FilePolarity,Positive*%
%FSLAX46Y46*%
G04 Gerber Fmt 4.6, Leading zero omitted, Abs format (unit mm)*
G04 Created by KiCad (PCBNEW 9.0.9-9.0.9~ubuntu24.04.1) date 2026-10-02 19:33:08*
%MOMM*%
%LPD*%
G01*
G04 APERTURE LIST*
%TA.AperFunction,ComponentPad*%
%ADD10R,1.350000X1.350000*%
%TD*%
%TA.AperFunction,ComponentPad*%
%ADD11C,1.350000*%
%TD*%
%TA.AperFunction,SMDPad,CuDef*%
%ADD12R,0.850000X0.950000*%
%TD*%
%TA.AperFunction,ComponentPad*%
%ADD13R,1.700000X1.700000*%
%TD*%
%TA.AperFunction,ComponentPad*%
%ADD14C,1.700000*%
%TD*%
%TA.AperFunction,SMDPad,CuDef*%
%ADD15R,1.200000X1.800000*%
%TD*%
%TA.AperFunction,ViaPad*%
%ADD16C,0.600000*%
%TD*%
%TA.AperFunction,Conductor*%
%ADD17C,0.200000*%
%TD*%
G04 APERTURE END LIST*
D10*
%TO.P,J1,1*%
%TO.N,EXT_3V3*%
X57000000Y-12000000D03*
D11*
%TO.P,J1,2*%
%TO.N,GND*%
X59000000Y-12000000D03*
%TD*%
D12*
%TO.P,C2,1*%
%TO.N,SENS_3V3*%
X66200000Y-22000000D03*
%TO.P,C2,2*%
%TO.N,GND*%
X67800000Y-22000000D03*
%TD*%
D13*
%TO.P,U1,1*%
%TO.N,ODO_A*%
X16110000Y-22870000D03*
D14*
%TO.P,U1,2*%
%TO.N,ODO_B*%
X16110000Y-25410000D03*
%TO.P,U1,3*%
%TO.N,GND*%
X16110000Y-27950001D03*
%TO.P,U1,4*%
%TO.N,SCK0*%
X16110000Y-30490001D03*
%TO.P,U1,5*%
%TO.N,MOSI0*%
X16110000Y-33030001D03*
%TO.P,U1,6*%
%TO.N,MISO0*%
X16110000Y-35570000D03*
%TO.P,U1,7*%
%TO.N,CS0*%
X16110000Y-38110001D03*
%TO.P,U1,8*%
%TO.N,GND*%
X16110000Y-40650001D03*
%TO.P,U1,9*%
%TO.N,CS1*%
X16110000Y-43190001D03*
%TO.P,U1,10*%
%TO.N,CS2*%
X16110000Y-45730001D03*
%TO.P,U1,11*%
%TO.N,CS3*%
X16110000Y-48269999D03*
%TO.P,U1,12*%
%TO.N,N/C*%
X16110000Y-50810000D03*
%TO.P,U1,13*%
%TO.N,GND*%
X16110000Y-53350000D03*
%TO.P,U1,14*%
%TO.N,SCK1*%
X16110000Y-55890000D03*
%TO.P,U1,15*%
%TO.N,MOSI1*%
X16110000Y-58430000D03*
%TO.P,U1,16*%
%TO.N,MISO1*%
X16110000Y-60970000D03*
%TO.P,U1,17*%
%TO.N,CS_ADXL*%
X16110000Y-63510000D03*
%TO.P,U1,18*%
%TO.N,GND*%
X16110000Y-66050000D03*
%TO.P,U1,19*%
%TO.N,DRDY_ADXL*%
X16110000Y-68590000D03*
%TO.P,U1,20*%
%TO.N,N/C*%
X16110000Y-71130000D03*
%TO.P,U1,21*%
X33890000Y-71130000D03*
%TO.P,U1,22*%
X33890000Y-68590000D03*
%TO.P,U1,23*%
%TO.N,GND*%
X33890000Y-66049999D03*
%TO.P,U1,24*%
%TO.N,N/C*%
X33890000Y-63509999D03*
%TO.P,U1,25*%
X33890000Y-60969999D03*
%TO.P,U1,26*%
X33890000Y-58430000D03*
%TO.P,U1,27*%
X33890000Y-55889999D03*
%TO.P,U1,28*%
%TO.N,GND*%
X33890000Y-53349999D03*
%TO.P,U1,29*%
%TO.N,N/C*%
X33890000Y-50809999D03*
%TO.P,U1,30*%
X33890000Y-48269999D03*
%TO.P,U1,31*%
X33890000Y-45730001D03*
%TO.P,U1,32*%
X33890000Y-43190000D03*
%TO.P,U1,33*%
%TO.N,GND*%
X33890000Y-40650000D03*
%TO.P,U1,34*%
%TO.N,N/C*%
X33890000Y-38110000D03*
%TO.P,U1,35*%
X33890000Y-35570000D03*
%TO.P,U1,36*%
%TO.N,PICO_3V3*%
X33890000Y-33030000D03*
%TO.P,U1,37*%
%TO.N,N/C*%
X33890000Y-30490000D03*
%TO.P,U1,38*%
%TO.N,GND*%
X33890000Y-27950000D03*
%TO.P,U1,39*%
%TO.N,N/C*%
X33890000Y-25410000D03*
%TO.P,U1,40*%
X33890000Y-22870000D03*
%TD*%
D10*
%TO.P,J7,1*%
%TO.N,PICO_3V3*%
X14000000Y-85000000D03*
D11*
%TO.P,J7,2*%
%TO.N,GND*%
X16000000Y-85000000D03*
%TO.P,J7,3*%
%TO.N,ODO_A*%
X18000000Y-85000000D03*
%TO.P,J7,4*%
%TO.N,ODO_B*%
X20000000Y-85000000D03*
%TD*%
D10*
%TO.P,J3,1*%
%TO.N,SENS_3V3*%
X54000000Y-41000000D03*
D11*
%TO.P,J3,2*%
%TO.N,GND*%
X56000000Y-41000000D03*
%TO.P,J3,3*%
%TO.N,CS1*%
X58000000Y-41000000D03*
%TO.P,J3,4*%
%TO.N,SCK0*%
X60000000Y-41000000D03*
%TO.P,J3,5*%
%TO.N,MOSI0*%
X62000000Y-41000000D03*
%TO.P,J3,6*%
%TO.N,MISO0*%
X64000000Y-41000000D03*
%TD*%
D15*
%TO.P,F1,1*%
%TO.N,EXT_3V3*%
X58400000Y-18000000D03*
%TO.P,F1,2*%
%TO.N,SENS_3V3*%
X61600000Y-18000000D03*
%TD*%
D12*
%TO.P,C1,1*%
%TO.N,SENS_3V3*%
X66200000Y-18000000D03*
%TO.P,C1,2*%
%TO.N,GND*%
X67800000Y-18000000D03*
%TD*%
D10*
%TO.P,J2,1*%
%TO.N,SENS_3V3*%
X54000000Y-30000000D03*
D11*
%TO.P,J2,2*%
%TO.N,GND*%
X56000000Y-30000000D03*
%TO.P,J2,3*%
%TO.N,CS0*%
X58000000Y-30000000D03*
%TO.P,J2,4*%
%TO.N,SCK0*%
X60000000Y-30000000D03*
%TO.P,J2,5*%
%TO.N,MOSI0*%
X62000000Y-30000000D03*
%TO.P,J2,6*%
%TO.N,MISO0*%
X64000000Y-30000000D03*
%TD*%
D10*
%TO.P,J5,1*%
%TO.N,SENS_3V3*%
X54000000Y-63000000D03*
D11*
%TO.P,J5,2*%
%TO.N,GND*%
X56000000Y-63000000D03*
%TO.P,J5,3*%
%TO.N,CS3*%
X58000000Y-63000000D03*
%TO.P,J5,4*%
%TO.N,SCK0*%
X60000000Y-63000000D03*
%TO.P,J5,5*%
%TO.N,MOSI0*%
X62000000Y-63000000D03*
%TO.P,J5,6*%
%TO.N,MISO0*%
X64000000Y-63000000D03*
%TD*%
D10*
%TO.P,J6,1*%
%TO.N,PICO_3V3*%
X52000000Y-80000000D03*
D11*
%TO.P,J6,2*%
%TO.N,GND*%
X54000000Y-80000000D03*
%TO.P,J6,3*%
%TO.N,SCK1*%
X56000000Y-80000000D03*
%TO.P,J6,4*%
%TO.N,MOSI1*%
X58000000Y-80000000D03*
%TO.P,J6,5*%
%TO.N,MISO1*%
X60000000Y-80000000D03*
%TO.P,J6,6*%
%TO.N,CS_ADXL*%
X62000000Y-80000000D03*
%TO.P,J6,7*%
%TO.N,DRDY_ADXL*%
X64000000Y-80000000D03*
%TD*%
D10*
%TO.P,J4,1*%
%TO.N,SENS_3V3*%
X54000000Y-52000000D03*
D11*
%TO.P,J4,2*%
%TO.N,GND*%
X56000000Y-52000000D03*
%TO.P,J4,3*%
%TO.N,CS2*%
X58000000Y-52000000D03*
%TO.P,J4,4*%
%TO.N,SCK0*%
X60000000Y-52000000D03*
%TO.P,J4,5*%
%TO.N,MOSI0*%
X62000000Y-52000000D03*
%TO.P,J4,6*%
%TO.N,MISO0*%
X64000000Y-52000000D03*
%TD*%
D16*
%TO.N,CS0*%
X56218800Y-34801900D03*
%TD*%
D17*
%TO.N,CS0*%
X58000000Y-30000000D02*
X58000000Y-33020700D01*
X58000000Y-33020700D02*
X56218800Y-34801900D01*
%TO.N,EXT_3V3*%
X58400000Y-18000000D02*
X58400000Y-14376700D01*
X58400000Y-14376700D02*
X57000000Y-12976700D01*
X57000000Y-12000000D02*
X57000000Y-12976700D01*
%TO.N,GND*%
X67073300Y-18000000D02*
X67073300Y-17545800D01*
X14938800Y-29121200D02*
X14938800Y-39478800D01*
X14938100Y-54521900D02*
X14938100Y-64878100D01*
X16110000Y-40650000D02*
X14939600Y-41820400D01*
X17028700Y-86028700D02*
X18353400Y-86028700D01*
X55617100Y-35051000D02*
X55617100Y-30382900D01*
X16110000Y-53350000D02*
X14938100Y-54521900D01*
X19000000Y-85382100D02*
X19000000Y-68940000D01*
X60965400Y-25034600D02*
X64492900Y-25034600D01*
X16110000Y-27950000D02*
X14938800Y-29121200D01*
X32730200Y-64890200D02*
X33890000Y-66050000D01*
X32731900Y-29108100D02*
X33890000Y-27950000D01*
X67800000Y-18000000D02*
X67800000Y-22000000D01*
X33890000Y-53350000D02*
X32730200Y-54509800D01*
X32731900Y-39491900D02*
X32731900Y-29108100D01*
X19000000Y-68940000D02*
X16110000Y-66050000D01*
X14938100Y-64878100D02*
X16110000Y-66050000D01*
X64492900Y-25034600D02*
X67073300Y-22454200D01*
X16000000Y-85000000D02*
X17028700Y-86028700D01*
X55999900Y-35433800D02*
X55617100Y-35051000D01*
X55617100Y-30382900D02*
X56000000Y-30000000D01*
X56000000Y-35433800D02*
X55999900Y-35433800D01*
X56000000Y-52000000D02*
X56000000Y-41000000D01*
X56000000Y-63000000D02*
X56000000Y-52000000D01*
X67800000Y-18000000D02*
X67073300Y-18000000D01*
X56000000Y-41000000D02*
X56000000Y-35433800D01*
X33890000Y-40650000D02*
X32731900Y-39491900D01*
X32730200Y-54509800D02*
X32730200Y-64890200D01*
X67073300Y-17545800D02*
X61527500Y-12000000D01*
X14938800Y-39478800D02*
X16110000Y-40650000D01*
X14939600Y-52179600D02*
X16110000Y-53350000D01*
X61527500Y-12000000D02*
X59000000Y-12000000D01*
X33890000Y-40650000D02*
X32725900Y-41814100D01*
X56000000Y-30000000D02*
X60965400Y-25034600D01*
X54000000Y-80000000D02*
X54000000Y-65000000D01*
X67800000Y-22000000D02*
X67073300Y-22000000D01*
X18353400Y-86028700D02*
X19000000Y-85382100D01*
X14939600Y-41820400D02*
X14939600Y-52179600D01*
X67073300Y-22454200D02*
X67073300Y-22000000D01*
X32725900Y-52185900D02*
X33890000Y-53350000D01*
X32725900Y-41814100D02*
X32725900Y-52185900D01*
X54000000Y-65000000D02*
X56000000Y-63000000D01*
%TO.N,MISO0*%
X64000000Y-63000000D02*
X64000000Y-52000000D01*
X64000000Y-52000000D02*
X64000000Y-41000000D01*
%TO.N,MOSI0*%
X62000000Y-41000000D02*
X62000000Y-52000000D01*
X62000000Y-52000000D02*
X62000000Y-63000000D01*
X62000000Y-30000000D02*
X62000000Y-41000000D01*
%TO.N,ODO_A*%
X16110000Y-22870000D02*
X16110000Y-24021700D01*
X15822000Y-24021700D02*
X14514600Y-25329100D01*
X16110000Y-24021700D02*
X15822000Y-24021700D01*
X14514600Y-81514600D02*
X18000000Y-85000000D01*
X14514600Y-25329100D02*
X14514600Y-81514600D01*
%TO.N,ODO_B*%
X20000000Y-29300000D02*
X16110000Y-25410000D01*
X20000000Y-85000000D02*
X20000000Y-29300000D01*
%TO.N,PICO_3V3*%
X52000000Y-80000000D02*
X52000000Y-51140000D01*
X52000000Y-51140000D02*
X33890000Y-33030000D01*
%TO.N,SCK0*%
X60000000Y-30000000D02*
X60000000Y-41000000D01*
X60000000Y-52000000D02*
X60000000Y-41000000D01*
X60000000Y-63000000D02*
X60000000Y-52000000D01*
%TO.N,SENS_3V3*%
X65473300Y-18000000D02*
X66200000Y-18000000D01*
X54000000Y-63000000D02*
X54000000Y-52000000D01*
X65473300Y-18000000D02*
X65473300Y-22000000D01*
X54976700Y-29633700D02*
X54976700Y-30000000D01*
X65473300Y-18000000D02*
X61600000Y-18000000D01*
X62610400Y-22000000D02*
X54976700Y-29633700D01*
X54000000Y-30000000D02*
X54976700Y-30000000D01*
X65473300Y-22000000D02*
X62610400Y-22000000D01*
X54000000Y-41000000D02*
X54000000Y-30000000D01*
X66200000Y-22000000D02*
X65473300Y-22000000D01*
X54000000Y-52000000D02*
X54000000Y-41000000D01*
%TD*%
M02*
