M48
; DRILL file {KiCad 9.0.9-9.0.9~ubuntu24.04.1} date 2026-10-02T19:38:44+0000
; FORMAT={-:-/ absolute / metric / decimal}
; #@! TF.CreationDate,2026-10-02T19:38:44+00:00
; #@! TF.GenerationSoftware,Kicad,Pcbnew,9.0.9-9.0.9~ubuntu24.04.1
; #@! TF.FileFunction,MixedPlating,1,2
FMAT,2
METRIC
; #@! TA.AperFunction,Plated,PTH,ComponentDrill
T1C0.750
; #@! TA.AperFunction,Plated,PTH,ComponentDrill
T2C1.000
; #@! TA.AperFunction,NonPlated,NPTH,ComponentDrill
T3C2.200
%
G90
G05
T1
X14.0Y-85.0
X16.0Y-85.0
X18.0Y-85.0
X20.0Y-85.0
X52.0Y-80.0
X54.0Y-30.0
X54.0Y-41.0
X54.0Y-52.0
X54.0Y-63.0
X54.0Y-80.0
X56.0Y-30.0
X56.0Y-41.0
X56.0Y-52.0
X56.0Y-63.0
X56.0Y-80.0
X57.0Y-12.0
X58.0Y-30.0
X58.0Y-41.0
X58.0Y-52.0
X58.0Y-63.0
X58.0Y-80.0
X59.0Y-12.0
X60.0Y-30.0
X60.0Y-41.0
X60.0Y-52.0
X60.0Y-63.0
X60.0Y-80.0
X62.0Y-30.0
X62.0Y-41.0
X62.0Y-52.0
X62.0Y-63.0
X62.0Y-80.0
X64.0Y-30.0
X64.0Y-41.0
X64.0Y-52.0
X64.0Y-63.0
X64.0Y-80.0
T2
X16.11Y-22.87
X16.11Y-25.41
X16.11Y-27.95
X16.11Y-30.49
X16.11Y-33.03
X16.11Y-35.57
X16.11Y-38.11
X16.11Y-40.65
X16.11Y-43.19
X16.11Y-45.73
X16.11Y-48.27
X16.11Y-50.81
X16.11Y-53.35
X16.11Y-55.89
X16.11Y-58.43
X16.11Y-60.97
X16.11Y-63.51
X16.11Y-66.05
X16.11Y-68.59
X16.11Y-71.13
X33.89Y-22.87
X33.89Y-25.41
X33.89Y-27.95
X33.89Y-30.49
X33.89Y-33.03
X33.89Y-35.57
X33.89Y-38.11
X33.89Y-40.65
X33.89Y-43.19
X33.89Y-45.73
X33.89Y-48.27
X33.89Y-50.81
X33.89Y-53.35
X33.89Y-55.89
X33.89Y-58.43
X33.89Y-60.97
X33.89Y-63.51
X33.89Y-66.05
X33.89Y-68.59
X33.89Y-71.13
T3
X4.0Y-4.0
X4.0Y-96.0
X76.0Y-4.0
X76.0Y-96.0
M30
