%TF.GenerationSoftware,KiCad,Pcbnew,9.0.9-9.0.9~ubuntu24.04.1*%
%TF.CreationDate,2026-10-02T19:33:08+00:00*%
%TF.ProjectId,carrier,63617272-6965-4722-9e6b-696361645f70,rev?*%
%TF.SameCoordinates,Original*%
%TF.FileFunction,Soldermask,Bot*%
%TF.FilePolarity,Negative*%
%FSLAX46Y46*%
G04 Gerber Fmt 4.6, Leading zero omitted, Abs format (unit mm)*
G04 Created by KiCad (PCBNEW 9.0.9-9.0.9~ubuntu24.04.1) date 2026-10-02 19:33:08*
%MOMM*%
%LPD*%
G01*
G04 APERTURE LIST*
%ADD10C,2.200000*%
%ADD11R,1.350000X1.350000*%
%ADD12C,1.350000*%
%ADD13R,1.700000X1.700000*%
%ADD14C,1.700000*%
G04 APERTURE END LIST*
D10*
%TO.C,MH2*%
X76000000Y-4000000D03*
%TD*%
%TO.C,MH4*%
X76000000Y-96000000D03*
%TD*%
D11*
%TO.C,J1*%
X57000000Y-12000000D03*
D12*
X59000000Y-12000000D03*
%TD*%
D13*
%TO.C,U1*%
X16110000Y-22870000D03*
D14*
X16110000Y-25410000D03*
X16110000Y-27950001D03*
X16110000Y-30490001D03*
X16110000Y-33030001D03*
X16110000Y-35570000D03*
X16110000Y-38110001D03*
X16110000Y-40650001D03*
X16110000Y-43190001D03*
X16110000Y-45730001D03*
X16110000Y-48269999D03*
X16110000Y-50810000D03*
X16110000Y-53350000D03*
X16110000Y-55890000D03*
X16110000Y-58430000D03*
X16110000Y-60970000D03*
X16110000Y-63510000D03*
X16110000Y-66050000D03*
X16110000Y-68590000D03*
X16110000Y-71130000D03*
X33890000Y-71130000D03*
X33890000Y-68590000D03*
X33890000Y-66049999D03*
X33890000Y-63509999D03*
X33890000Y-60969999D03*
X33890000Y-58430000D03*
X33890000Y-55889999D03*
X33890000Y-53349999D03*
X33890000Y-50809999D03*
X33890000Y-48269999D03*
X33890000Y-45730001D03*
X33890000Y-43190000D03*
X33890000Y-40650000D03*
X33890000Y-38110000D03*
X33890000Y-35570000D03*
X33890000Y-33030000D03*
X33890000Y-30490000D03*
X33890000Y-27950000D03*
X33890000Y-25410000D03*
X33890000Y-22870000D03*
%TD*%
D10*
%TO.C,MH1*%
X4000000Y-4000000D03*
%TD*%
%TO.C,MH3*%
X4000000Y-96000000D03*
%TD*%
D11*
%TO.C,J7*%
X14000000Y-85000000D03*
D12*
X16000000Y-85000000D03*
X18000000Y-85000000D03*
X20000000Y-85000000D03*
%TD*%
D11*
%TO.C,J3*%
X54000000Y-41000000D03*
D12*
X56000000Y-41000000D03*
X58000000Y-41000000D03*
X60000000Y-41000000D03*
X62000000Y-41000000D03*
X64000000Y-41000000D03*
%TD*%
D11*
%TO.C,J2*%
X54000000Y-30000000D03*
D12*
X56000000Y-30000000D03*
X58000000Y-30000000D03*
X60000000Y-30000000D03*
X62000000Y-30000000D03*
X64000000Y-30000000D03*
%TD*%
D11*
%TO.C,J5*%
X54000000Y-63000000D03*
D12*
X56000000Y-63000000D03*
X58000000Y-63000000D03*
X60000000Y-63000000D03*
X62000000Y-63000000D03*
X64000000Y-63000000D03*
%TD*%
D11*
%TO.C,J6*%
X52000000Y-80000000D03*
D12*
X54000000Y-80000000D03*
X56000000Y-80000000D03*
X58000000Y-80000000D03*
X60000000Y-80000000D03*
X62000000Y-80000000D03*
X64000000Y-80000000D03*
%TD*%
D11*
%TO.C,J4*%
X54000000Y-52000000D03*
D12*
X56000000Y-52000000D03*
X58000000Y-52000000D03*
X60000000Y-52000000D03*
X62000000Y-52000000D03*
X64000000Y-52000000D03*
%TD*%
M02*
