%TF.GenerationSoftware,KiCad,Pcbnew,9.0.9-9.0.9~ubuntu24.04.1*%
%TF.CreationDate,2026-10-02T19:33:08+00:00*%
%TF.ProjectId,carrier,63617272-6965-4722-9e6b-696361645f70,rev?*%
%TF.SameCoordinates,Original*%
%TF.FileFunction,Copper,L2,Bot*%
%TF.FilePolarity,Positive*%
%FSLAX46Y46*%
G04 Gerber Fmt 4.6, Leading zero omitted, Abs format (unit mm)*
G04 Created by KiCad (PCBNEW 9.0.9-9.0.9~ubuntu24.04.1) date 2026-10-02 19:33:08*
%MOMM*%
%LPD*%
G01*
G04 APERTURE LIST*
%TA.AperFunction,ComponentPad*%
%ADD10R,1.350000X1.350000*%
%TD*%
%TA.AperFunction,ComponentPad*%
%ADD11C,1.350000*%
%TD*%
%TA.AperFunction,ComponentPad*%
%ADD12R,1.700000X1.700000*%
%TD*%
%TA.AperFunction,ComponentPad*%
%ADD13C,1.700000*%
%TD*%
%TA.AperFunction,ViaPad*%
%ADD14C,0.600000*%
%TD*%
%TA.AperFunction,Conductor*%
%ADD15C,0.200000*%
%TD*%
G04 APERTURE END LIST*
D10*
%TO.P,J1,1*%
%TO.N,EXT_3V3*%
X57000000Y-12000000D03*
D11*
%TO.P,J1,2*%
%TO.N,GND*%
X59000000Y-12000000D03*
%TD*%
D12*
%TO.P,U1,1*%
%TO.N,ODO_A*%
X16110000Y-22870000D03*
D13*
%TO.P,U1,2*%
%TO.N,ODO_B*%
X16110000Y-25410000D03*
%TO.P,U1,3*%
%TO.N,GND*%
X16110000Y-27950001D03*
%TO.P,U1,4*%
%TO.N,SCK0*%
X16110000Y-30490001D03*
%TO.P,U1,5*%
%TO.N,MOSI0*%
X16110000Y-33030001D03*
%TO.P,U1,6*%
%TO.N,MISO0*%
X16110000Y-35570000D03*
%TO.P,U1,7*%
%TO.N,CS0*%
X16110000Y-38110001D03*
%TO.P,U1,8*%
%TO.N,GND*%
X16110000Y-40650001D03*
%TO.P,U1,9*%
%TO.N,CS1*%
X16110000Y-43190001D03*
%TO.P,U1,10*%
%TO.N,CS2*%
X16110000Y-45730001D03*
%TO.P,U1,11*%
%TO.N,CS3*%
X16110000Y-48269999D03*
%TO.P,U1,12*%
%TO.N,N/C*%
X16110000Y-50810000D03*
%TO.P,U1,13*%
%TO.N,GND*%
X16110000Y-53350000D03*
%TO.P,U1,14*%
%TO.N,SCK1*%
X16110000Y-55890000D03*
%TO.P,U1,15*%
%TO.N,MOSI1*%
X16110000Y-58430000D03*
%TO.P,U1,16*%
%TO.N,MISO1*%
X16110000Y-60970000D03*
%TO.P,U1,17*%
%TO.N,CS_ADXL*%
X16110000Y-63510000D03*
%TO.P,U1,18*%
%TO.N,GND*%
X16110000Y-66050000D03*
%TO.P,U1,19*%
%TO.N,DRDY_ADXL*%
X16110000Y-68590000D03*
%TO.P,U1,20*%
%TO.N,N/C*%
X16110000Y-71130000D03*
%TO.P,U1,21*%
X33890000Y-71130000D03*
%TO.P,U1,22*%
X33890000Y-68590000D03*
%TO.P,U1,23*%
%TO.N,GND*%
X33890000Y-66049999D03*
%TO.P,U1,24*%
%TO.N,N/C*%
X33890000Y-63509999D03*
%TO.P,U1,25*%
X33890000Y-60969999D03*
%TO.P,U1,26*%
X33890000Y-58430000D03*
%TO.P,U1,27*%
X33890000Y-55889999D03*
%TO.P,U1,28*%
%TO.N,GND*%
X33890000Y-53349999D03*
%TO.P,U1,29*%
%TO.N,N/C*%
X33890000Y-50809999D03*
%TO.P,U1,30*%
X33890000Y-48269999D03*
%TO.P,U1,31*%
X33890000Y-45730001D03*
%TO.P,U1,32*%
X33890000Y-43190000D03*
%TO.P,U1,33*%
%TO.N,GND*%
X33890000Y-40650000D03*
%TO.P,U1,34*%
%TO.N,N/C*%
X33890000Y-38110000D03*
%TO.P,U1,35*%
X33890000Y-35570000D03*
%TO.P,U1,36*%
%TO.N,PICO_3V3*%
X33890000Y-33030000D03*
%TO.P,U1,37*%
%TO.N,N/C*%
X33890000Y-30490000D03*
%TO.P,U1,38*%
%TO.N,GND*%
X33890000Y-27950000D03*
%TO.P,U1,39*%
%TO.N,N/C*%
X33890000Y-25410000D03*
%TO.P,U1,40*%
X33890000Y-22870000D03*
%TD*%
D10*
%TO.P,J7,1*%
%TO.N,PICO_3V3*%
X14000000Y-85000000D03*
D11*
%TO.P,J7,2*%
%TO.N,GND*%
X16000000Y-85000000D03*
%TO.P,J7,3*%
%TO.N,ODO_A*%
X18000000Y-85000000D03*
%TO.P,J7,4*%
%TO.N,ODO_B*%
X20000000Y-85000000D03*
%TD*%
D10*
%TO.P,J3,1*%
%TO.N,SENS_3V3*%
X54000000Y-41000000D03*
D11*
%TO.P,J3,2*%
%TO.N,GND*%
X56000000Y-41000000D03*
%TO.P,J3,3*%
%TO.N,CS1*%
X58000000Y-41000000D03*
%TO.P,J3,4*%
%TO.N,SCK0*%
X60000000Y-41000000D03*
%TO.P,J3,5*%
%TO.N,MOSI0*%
X62000000Y-41000000D03*
%TO.P,J3,6*%
%TO.N,MISO0*%
X64000000Y-41000000D03*
%TD*%
D10*
%TO.P,J2,1*%
%TO.N,SENS_3V3*%
X54000000Y-30000000D03*
D11*
%TO.P,J2,2*%
%TO.N,GND*%
X56000000Y-30000000D03*
%TO.P,J2,3*%
%TO.N,CS0*%
X58000000Y-30000000D03*
%TO.P,J2,4*%
%TO.N,SCK0*%
X60000000Y-30000000D03*
%TO.P,J2,5*%
%TO.N,MOSI0*%
X62000000Y-30000000D03*
%TO.P,J2,6*%
%TO.N,MISO0*%
X64000000Y-30000000D03*
%TD*%
D10*
%TO.P,J5,1*%
%TO.N,SENS_3V3*%
X54000000Y-63000000D03*
D11*
%TO.P,J5,2*%
%TO.N,GND*%
X56000000Y-63000000D03*
%TO.P,J5,3*%
%TO.N,CS3*%
X58000000Y-63000000D03*
%TO.P,J5,4*%
%TO.N,SCK0*%
X60000000Y-63000000D03*
%TO.P,J5,5*%
%TO.N,MOSI0*%
X62000000Y-63000000D03*
%TO.P,J5,6*%
%TO.N,MISO0*%
X64000000Y-63000000D03*
%TD*%
D10*
%TO.P,J6,1*%
%TO.N,PICO_3V3*%
X52000000Y-80000000D03*
D11*
%TO.P,J6,2*%
%TO.N,GND*%
X54000000Y-80000000D03*
%TO.P,J6,3*%
%TO.N,SCK1*%
X56000000Y-80000000D03*
%TO.P,J6,4*%
%TO.N,MOSI1*%
X58000000Y-80000000D03*
%TO.P,J6,5*%
%TO.N,MISO1*%
X60000000Y-80000000D03*
%TO.P,J6,6*%
%TO.N,CS_ADXL*%
X62000000Y-80000000D03*
%TO.P,J6,7*%
%TO.N,DRDY_ADXL*%
X64000000Y-80000000D03*
%TD*%
D10*
%TO.P,J4,1*%
%TO.N,SENS_3V3*%
X54000000Y-52000000D03*
D11*
%TO.P,J4,2*%
%TO.N,GND*%
X56000000Y-52000000D03*
%TO.P,J4,3*%
%TO.N,CS2*%
X58000000Y-52000000D03*
%TO.P,J4,4*%
%TO.N,SCK0*%
X60000000Y-52000000D03*
%TO.P,J4,5*%
%TO.N,MOSI0*%
X62000000Y-52000000D03*
%TO.P,J4,6*%
%TO.N,MISO0*%
X64000000Y-52000000D03*
%TD*%
D14*
%TO.N,CS0*%
X56218800Y-34801900D03*
%TD*%
D15*
%TO.N,CS0*%
X17380000Y-36840000D02*
X16110000Y-38110000D01*
X56218800Y-34801900D02*
X54180700Y-36840000D01*
X54180700Y-36840000D02*
X17380000Y-36840000D01*
%TO.N,CS1*%
X53004500Y-42378400D02*
X56621600Y-42378400D01*
X52654300Y-42028200D02*
X53004500Y-42378400D01*
X56621600Y-42378400D02*
X58000000Y-41000000D01*
X17271800Y-42028200D02*
X52654300Y-42028200D01*
X16110000Y-43190000D02*
X17271800Y-42028200D01*
%TO.N,CS2*%
X53000000Y-47000000D02*
X17380000Y-47000000D01*
X58000000Y-52000000D02*
X53000000Y-47000000D01*
X17380000Y-47000000D02*
X16110000Y-45730000D01*
%TO.N,CS3*%
X58000000Y-63000000D02*
X49620000Y-54620000D01*
X49620000Y-54620000D02*
X22460000Y-54620000D01*
X22460000Y-54620000D02*
X16110000Y-48270000D01*
%TO.N,CS_ADXL*%
X22460000Y-69860000D02*
X16110000Y-63510000D01*
X62000000Y-80000000D02*
X51860000Y-69860000D01*
X51860000Y-69860000D02*
X22460000Y-69860000D01*
%TO.N,DRDY_ADXL*%
X16110000Y-68590000D02*
X26519600Y-78999600D01*
X53000000Y-79185100D02*
X53000000Y-80401000D01*
X53000000Y-80401000D02*
X54017100Y-81418100D01*
X54017100Y-81418100D02*
X62581900Y-81418100D01*
X26519600Y-78999600D02*
X52814500Y-78999600D01*
X62581900Y-81418100D02*
X64000000Y-80000000D01*
X52814500Y-78999600D02*
X53000000Y-79185100D01*
%TO.N,GND*%
X53200000Y-41976700D02*
X51873300Y-40650000D01*
X56000000Y-41000000D02*
X55023300Y-41976700D01*
X51873300Y-40650000D02*
X33890000Y-40650000D01*
X33890000Y-27950000D02*
X16110000Y-27950000D01*
X55023300Y-41976700D02*
X53200000Y-41976700D01*
%TO.N,MISO0*%
X64000000Y-41000000D02*
X64000000Y-38400400D01*
X64000000Y-30000000D02*
X59799800Y-34200200D01*
X59799800Y-34200200D02*
X17479800Y-34200200D01*
X17479800Y-34200200D02*
X16110000Y-35570000D01*
X64000000Y-38400400D02*
X59799800Y-34200200D01*
%TO.N,MISO1*%
X55549600Y-80991600D02*
X56443800Y-80991600D01*
X57000000Y-80435400D02*
X57000000Y-79584700D01*
X14521600Y-66134500D02*
X15707100Y-67320000D01*
X17795400Y-67320000D02*
X28375600Y-77900200D01*
X15707100Y-67320000D02*
X17795400Y-67320000D01*
X54976700Y-80418700D02*
X55549600Y-80991600D01*
X54976700Y-79570000D02*
X54976700Y-80418700D01*
X53306900Y-77900200D02*
X54976700Y-79570000D01*
X57563900Y-79020800D02*
X59020800Y-79020800D01*
X28375600Y-77900200D02*
X53306900Y-77900200D01*
X56443800Y-80991600D02*
X57000000Y-80435400D01*
X57000000Y-79584700D02*
X57563900Y-79020800D01*
X59020800Y-79020800D02*
X60000000Y-80000000D01*
X16110000Y-60970000D02*
X14521600Y-62558400D01*
X14521600Y-62558400D02*
X14521600Y-66134500D01*
%TO.N,MOSI0*%
X62000000Y-30000000D02*
X60300000Y-31700000D01*
X17440000Y-31700000D02*
X16110000Y-33030000D01*
X60300000Y-31700000D02*
X17440000Y-31700000D01*
%TO.N,MOSI1*%
X63000000Y-80406600D02*
X63000000Y-79543000D01*
X58995000Y-80995000D02*
X62411600Y-80995000D01*
X22460000Y-64780000D02*
X16110000Y-58430000D01*
X63000000Y-79543000D02*
X48237000Y-64780000D01*
X48237000Y-64780000D02*
X22460000Y-64780000D01*
X58000000Y-80000000D02*
X58995000Y-80995000D01*
X62411600Y-80995000D02*
X63000000Y-80406600D01*
%TO.N,PICO_3V3*%
X52000000Y-80000000D02*
X19610400Y-80000000D01*
X19610400Y-80000000D02*
X14976700Y-84633700D01*
X14976700Y-84633700D02*
X14976700Y-85000000D01*
X14000000Y-85000000D02*
X14976700Y-85000000D01*
%TO.N,SCK0*%
X60000000Y-30000000D02*
X59021900Y-29021900D01*
X43675100Y-29220000D02*
X17380000Y-29220000D01*
X43873200Y-29021900D02*
X43675100Y-29220000D01*
X59021900Y-29021900D02*
X43873200Y-29021900D01*
X17380000Y-29220000D02*
X16110000Y-30490000D01*
%TO.N,SCK1*%
X14957800Y-57042200D02*
X16110000Y-55890000D01*
X15673200Y-64780000D02*
X14941600Y-64048400D01*
X14941600Y-64048400D02*
X14941600Y-62983600D01*
X14941600Y-62983600D02*
X15685200Y-62240000D01*
X56000000Y-80000000D02*
X48281700Y-72281700D01*
X16471900Y-59700000D02*
X15717500Y-59700000D01*
X24142100Y-72281700D02*
X16640400Y-64780000D01*
X15685200Y-62240000D02*
X16472700Y-62240000D01*
X17261700Y-61451000D02*
X17261700Y-60489800D01*
X15717500Y-59700000D02*
X14957800Y-58940300D01*
X16472700Y-62240000D02*
X17261700Y-61451000D01*
X14957800Y-58940300D02*
X14957800Y-57042200D01*
X48281700Y-72281700D02*
X24142100Y-72281700D01*
X16640400Y-64780000D02*
X15673200Y-64780000D01*
X17261700Y-60489800D02*
X16471900Y-59700000D01*
%TD*%
M02*
