%TF.GenerationSoftware,KiCad,Pcbnew,9.0.9-9.0.9~ubuntu24.04.1*%
%TF.CreationDate,2026-10-04T14:20:15+00:00*%
%TF.ProjectId,carrier_r2,63617272-6965-4725-9f72-322e6b696361,rev?*%
%TF.SameCoordinates,Original*%
%TF.FileFunction,Soldermask,Bot*%
%TF.FilePolarity,Negative*%
%FSLAX46Y46*%
G04 Gerber Fmt 4.6, Leading zero omitted, Abs format (unit mm)*
G04 Created by KiCad (PCBNEW 9.0.9-9.0.9~ubuntu24.04.1) date 2026-10-04 14:20:15*
%MOMM*%
%LPD*%
G01*
G04 APERTURE LIST*
%ADD10C,2.200000*%
%ADD11R,1.700000X1.700000*%
%ADD12C,1.700000*%
%ADD13R,1.350000X1.350000*%
%ADD14C,1.350000*%
G04 APERTURE END LIST*
D10*
%TO.C,MH1*%
X4000000Y-4000000D03*
%TD*%
D11*
%TO.C,U1*%
X15110000Y-19870000D03*
D12*
X15110000Y-22410000D03*
X15110000Y-24950001D03*
X15110000Y-27490001D03*
X15110000Y-30030001D03*
X15110000Y-32570000D03*
X15110000Y-35110001D03*
X15110000Y-37650001D03*
X15110000Y-40190001D03*
X15110000Y-42730001D03*
X15110000Y-45269999D03*
X15110000Y-47810000D03*
X15110000Y-50350000D03*
X15110000Y-52890000D03*
X15110000Y-55430000D03*
X15110000Y-57970000D03*
X15110000Y-60510000D03*
X15110000Y-63050000D03*
X15110000Y-65590000D03*
X15110000Y-68130000D03*
X32890000Y-68130000D03*
X32890000Y-65590000D03*
X32890000Y-63049999D03*
X32890000Y-60509999D03*
X32890000Y-57969999D03*
X32890000Y-55430000D03*
X32890000Y-52889999D03*
X32890000Y-50349999D03*
X32890000Y-47809999D03*
X32890000Y-45269999D03*
X32890000Y-42730001D03*
X32890000Y-40190000D03*
X32890000Y-37650000D03*
X32890000Y-35110000D03*
X32890000Y-32570000D03*
X32890000Y-30030000D03*
X32890000Y-27490000D03*
X32890000Y-24950000D03*
X32890000Y-22410000D03*
X32890000Y-19870000D03*
%TD*%
D13*
%TO.C,J7*%
X15000000Y-83000000D03*
D14*
X17000000Y-83000000D03*
X19000000Y-83000000D03*
X21000000Y-83000000D03*
%TD*%
D13*
%TO.C,J2*%
X76000000Y-29000000D03*
D14*
X78000000Y-29000000D03*
X80000000Y-29000000D03*
X82000000Y-29000000D03*
X84000000Y-29000000D03*
X86000000Y-29000000D03*
%TD*%
D13*
%TO.C,J4*%
X76000000Y-51000000D03*
D14*
X78000000Y-51000000D03*
X80000000Y-51000000D03*
X82000000Y-51000000D03*
X84000000Y-51000000D03*
X86000000Y-51000000D03*
%TD*%
D10*
%TO.C,MH4*%
X96000000Y-136000000D03*
%TD*%
D13*
%TO.C,J6*%
X76000000Y-81000000D03*
D14*
X78000000Y-81000000D03*
X80000000Y-81000000D03*
X82000000Y-81000000D03*
X84000000Y-81000000D03*
X86000000Y-81000000D03*
X88000000Y-81000000D03*
%TD*%
D13*
%TO.C,J8*%
X72000000Y-96000000D03*
D14*
X74000000Y-96000000D03*
X76000000Y-96000000D03*
X78000000Y-96000000D03*
X80000000Y-96000000D03*
X82000000Y-96000000D03*
X84000000Y-96000000D03*
X86000000Y-96000000D03*
X88000000Y-96000000D03*
X90000000Y-96000000D03*
%TD*%
D13*
%TO.C,J3*%
X76000000Y-40000000D03*
D14*
X78000000Y-40000000D03*
X80000000Y-40000000D03*
X82000000Y-40000000D03*
X84000000Y-40000000D03*
X86000000Y-40000000D03*
%TD*%
D13*
%TO.C,J9*%
X74000000Y-124000000D03*
D14*
X76000000Y-124000000D03*
X78000000Y-124000000D03*
X80000000Y-124000000D03*
%TD*%
D10*
%TO.C,MH3*%
X4000000Y-136000000D03*
%TD*%
D13*
%TO.C,J5*%
X76000000Y-62000000D03*
D14*
X78000000Y-62000000D03*
X80000000Y-62000000D03*
X82000000Y-62000000D03*
X84000000Y-62000000D03*
X86000000Y-62000000D03*
%TD*%
D10*
%TO.C,MH2*%
X96000000Y-4000000D03*
%TD*%
D13*
%TO.C,J1*%
X79000000Y-12000000D03*
D14*
X81000000Y-12000000D03*
%TD*%
M02*
