%TF.GenerationSoftware,KiCad,Pcbnew,9.0.9-9.0.9~ubuntu24.04.1*%
%TF.CreationDate,2026-10-04T13:19:43+00:00*%
%TF.ProjectId,carrier_r2,63617272-6965-4725-9f72-322e6b696361,rev?*%
%TF.SameCoordinates,Original*%
%TF.FileFunction,Copper,L1,Top*%
%TF.FilePolarity,Positive*%
%FSLAX46Y46*%
G04 Gerber Fmt 4.6, Leading zero omitted, Abs format (unit mm)*
G04 Created by KiCad (PCBNEW 9.0.9-9.0.9~ubuntu24.04.1) date 2026-10-04 13:19:43*
%MOMM*%
%LPD*%
G01*
G04 APERTURE LIST*
%TA.AperFunction,SMDPad,CuDef*%
%ADD10R,1.000000X0.600000*%
%TD*%
%TA.AperFunction,SMDPad,CuDef*%
%ADD11R,0.850000X0.950000*%
%TD*%
%TA.AperFunction,ComponentPad*%
%ADD12R,1.350000X1.350000*%
%TD*%
%TA.AperFunction,ComponentPad*%
%ADD13C,1.350000*%
%TD*%
%TA.AperFunction,SMDPad,CuDef*%
%ADD14R,1.500000X0.450000*%
%TD*%
%TA.AperFunction,SMDPad,CuDef*%
%ADD15R,1.500000X0.600000*%
%TD*%
%TA.AperFunction,ComponentPad*%
%ADD16R,1.700000X1.700000*%
%TD*%
%TA.AperFunction,ComponentPad*%
%ADD17C,1.700000*%
%TD*%
%TA.AperFunction,ViaPad*%
%ADD18C,0.600000*%
%TD*%
%TA.AperFunction,Conductor*%
%ADD19C,0.200000*%
%TD*%
G04 APERTURE END LIST*
D10*
%TO.P,Q1,1*%
%TO.N,Q_BASE*%
X23900000Y-113050000D03*
%TO.P,Q1,2*%
%TO.N,GND*%
X23900000Y-114950000D03*
%TO.P,Q1,3*%
%TO.N,OE_SENS_N*%
X26100000Y-114000000D03*
%TD*%
D11*
%TO.P,C2,1*%
%TO.N,SENS_3V3*%
X60200000Y-68000000D03*
%TO.P,C2,2*%
%TO.N,GND*%
X61800000Y-68000000D03*
%TD*%
%TO.P,R14,1*%
%TO.N,MISO1_RAW*%
X52200000Y-120000000D03*
%TO.P,R14,2*%
%TO.N,GND*%
X53800000Y-120000000D03*
%TD*%
%TO.P,R7,1*%
%TO.N,SENS_3V3*%
X39200000Y-70000000D03*
%TO.P,R7,2*%
%TO.N,ADC_CS2*%
X40800000Y-70000000D03*
%TD*%
D12*
%TO.P,J8,1*%
%TO.N,SENS_3V3*%
X72000000Y-96000000D03*
D13*
%TO.P,J8,2*%
%TO.N,GND*%
X74000000Y-96000000D03*
%TO.P,J8,3*%
%TO.N,ADC_SCK*%
X76000000Y-96000000D03*
%TO.P,J8,4*%
%TO.N,ADC_MOSI*%
X78000000Y-96000000D03*
%TO.P,J8,5*%
%TO.N,MISO1_RAW*%
X80000000Y-96000000D03*
%TO.P,J8,6*%
%TO.N,ADC_CS0*%
X82000000Y-96000000D03*
%TO.P,J8,7*%
%TO.N,ADC_CS1*%
X84000000Y-96000000D03*
%TO.P,J8,8*%
%TO.N,ADC_CS2*%
X86000000Y-96000000D03*
%TO.P,J8,9*%
%TO.N,ADC_CS3*%
X88000000Y-96000000D03*
%TO.P,J8,10*%
%TO.N,GND*%
X90000000Y-96000000D03*
%TD*%
D11*
%TO.P,R11,1*%
%TO.N,SENS_3V3*%
X31200000Y-114000000D03*
%TO.P,R11,2*%
%TO.N,OE_SENS_N*%
X32800000Y-114000000D03*
%TD*%
%TO.P,R5,1*%
%TO.N,SENS_3V3*%
X39200000Y-52000000D03*
%TO.P,R5,2*%
%TO.N,ADC_CS0*%
X40800000Y-52000000D03*
%TD*%
D12*
%TO.P,J6,1*%
%TO.N,PICO_3V3*%
X76000000Y-81000000D03*
D13*
%TO.P,J6,2*%
%TO.N,GND*%
X78000000Y-81000000D03*
%TO.P,J6,3*%
%TO.N,P_SCK1*%
X80000000Y-81000000D03*
%TO.P,J6,4*%
%TO.N,P_MOSI1*%
X82000000Y-81000000D03*
%TO.P,J6,5*%
%TO.N,MISO1_RAW*%
X84000000Y-81000000D03*
%TO.P,J6,6*%
%TO.N,CS_ADXL*%
X86000000Y-81000000D03*
%TO.P,J6,7*%
%TO.N,DRDY_ADXL*%
X88000000Y-81000000D03*
%TD*%
D11*
%TO.P,R15,1*%
%TO.N,SCK0_BUF*%
X63200000Y-29000000D03*
%TO.P,R15,2*%
%TO.N,SCK0*%
X64800000Y-29000000D03*
%TD*%
D14*
%TO.P,U3,1*%
%TO.N,OE_SENS_N*%
X50150000Y-65075000D03*
%TO.P,U3,2*%
%TO.N,P_ADC_CS0*%
X50150000Y-65725000D03*
%TO.P,U3,3*%
%TO.N,N/C*%
X50150000Y-66375001D03*
%TO.P,U3,4*%
%TO.N,P_ADC_CS1*%
X50150000Y-67025001D03*
%TO.P,U3,5*%
%TO.N,N/C*%
X50150000Y-67675001D03*
%TO.P,U3,6*%
%TO.N,P_ADC_CS2*%
X50150000Y-68325000D03*
%TO.P,U3,7*%
%TO.N,N/C*%
X50150000Y-68975000D03*
%TO.P,U3,8*%
%TO.N,P_ADC_CS3*%
X50150000Y-69625000D03*
%TO.P,U3,9*%
%TO.N,N/C*%
X50150000Y-70275000D03*
%TO.P,U3,10*%
%TO.N,GND*%
X50150000Y-70925000D03*
%TO.P,U3,11*%
X55850000Y-70925000D03*
%TO.P,U3,12*%
%TO.N,ADC_CS3*%
X55850000Y-70275000D03*
%TO.P,U3,13*%
%TO.N,GND*%
X55850000Y-69624999D03*
%TO.P,U3,14*%
%TO.N,ADC_CS2*%
X55850000Y-68974999D03*
%TO.P,U3,15*%
%TO.N,GND*%
X55850000Y-68324999D03*
%TO.P,U3,16*%
%TO.N,ADC_CS1*%
X55850000Y-67675000D03*
%TO.P,U3,17*%
%TO.N,GND*%
X55850000Y-67025000D03*
%TO.P,U3,18*%
%TO.N,ADC_CS0*%
X55850000Y-66375000D03*
%TO.P,U3,19*%
%TO.N,OE_SENS_N*%
X55850000Y-65725000D03*
%TO.P,U3,20*%
%TO.N,SENS_3V3*%
X55850000Y-65075000D03*
%TD*%
D15*
%TO.P,U4,1*%
%TO.N,GND*%
X50300000Y-100190000D03*
%TO.P,U4,2*%
%TO.N,MISO0_RAW*%
X50300000Y-101460000D03*
%TO.P,U4,3*%
%TO.N,MISO0*%
X50300000Y-102730000D03*
%TO.P,U4,4*%
%TO.N,GND*%
X50300000Y-104000000D03*
%TO.P,U4,5*%
%TO.N,MISO1_RAW*%
X50300000Y-105270000D03*
%TO.P,U4,6*%
%TO.N,MISO1*%
X50300000Y-106539999D03*
%TO.P,U4,7*%
%TO.N,GND*%
X50300000Y-107810000D03*
%TO.P,U4,8*%
%TO.N,N/C*%
X55700000Y-107810000D03*
%TO.P,U4,9*%
%TO.N,GND*%
X55700000Y-106540000D03*
%TO.P,U4,10*%
%TO.N,PICO_3V3*%
X55700000Y-105270000D03*
%TO.P,U4,11*%
%TO.N,N/C*%
X55700000Y-104000000D03*
%TO.P,U4,12*%
%TO.N,GND*%
X55700000Y-102730000D03*
%TO.P,U4,13*%
%TO.N,PICO_3V3*%
X55700000Y-101460001D03*
%TO.P,U4,14*%
X55700000Y-100190000D03*
%TD*%
D11*
%TO.P,R4,1*%
%TO.N,SENS_3V3*%
X39200000Y-43000000D03*
%TO.P,R4,2*%
%TO.N,CS3*%
X40800000Y-43000000D03*
%TD*%
%TO.P,R9,1*%
%TO.N,SENSOR_ENABLE*%
X17200000Y-110000000D03*
%TO.P,R9,2*%
%TO.N,Q_BASE*%
X18800000Y-110000000D03*
%TD*%
%TO.P,R13,1*%
%TO.N,MISO0_RAW*%
X52200000Y-115000000D03*
%TO.P,R13,2*%
%TO.N,GND*%
X53800000Y-115000000D03*
%TD*%
D12*
%TO.P,J9,1*%
%TO.N,GND*%
X74000000Y-124000000D03*
D13*
%TO.P,J9,2*%
%TO.N,LIFT_STOWED_N*%
X76000000Y-124000000D03*
%TO.P,J9,3*%
%TO.N,POWER_GOOD*%
X78000000Y-124000000D03*
%TO.P,J9,4*%
%TO.N,PICO_3V3*%
X80000000Y-124000000D03*
%TD*%
D11*
%TO.P,R3,1*%
%TO.N,SENS_3V3*%
X39200000Y-34000000D03*
%TO.P,R3,2*%
%TO.N,CS2*%
X40800000Y-34000000D03*
%TD*%
%TO.P,R1,1*%
%TO.N,SENS_3V3*%
X39200000Y-16000000D03*
%TO.P,R1,2*%
%TO.N,CS0*%
X40800000Y-16000000D03*
%TD*%
D12*
%TO.P,J1,1*%
%TO.N,SENS_3V3*%
X79000000Y-12000000D03*
D13*
%TO.P,J1,2*%
%TO.N,GND*%
X81000000Y-12000000D03*
%TD*%
D12*
%TO.P,J5,1*%
%TO.N,SENS_3V3*%
X76000000Y-62000000D03*
D13*
%TO.P,J5,2*%
%TO.N,GND*%
X78000000Y-62000000D03*
%TO.P,J5,3*%
%TO.N,CS3*%
X80000000Y-62000000D03*
%TO.P,J5,4*%
%TO.N,SCK0*%
X82000000Y-62000000D03*
%TO.P,J5,5*%
%TO.N,MOSI0*%
X84000000Y-62000000D03*
%TO.P,J5,6*%
%TO.N,MISO0_RAW*%
X86000000Y-62000000D03*
%TD*%
D11*
%TO.P,R2,1*%
%TO.N,SENS_3V3*%
X39200000Y-25000000D03*
%TO.P,R2,2*%
%TO.N,CS1*%
X40800000Y-25000000D03*
%TD*%
D12*
%TO.P,J4,1*%
%TO.N,SENS_3V3*%
X76000000Y-51000000D03*
D13*
%TO.P,J4,2*%
%TO.N,GND*%
X78000000Y-51000000D03*
%TO.P,J4,3*%
%TO.N,CS2*%
X80000000Y-51000000D03*
%TO.P,J4,4*%
%TO.N,SCK0*%
X82000000Y-51000000D03*
%TO.P,J4,5*%
%TO.N,MOSI0*%
X84000000Y-51000000D03*
%TO.P,J4,6*%
%TO.N,MISO0_RAW*%
X86000000Y-51000000D03*
%TD*%
D11*
%TO.P,R12,1*%
%TO.N,POWER_GOOD*%
X63200000Y-125000000D03*
%TO.P,R12,2*%
%TO.N,GND*%
X64800000Y-125000000D03*
%TD*%
%TO.P,R8,1*%
%TO.N,SENS_3V3*%
X39200000Y-79000000D03*
%TO.P,R8,2*%
%TO.N,ADC_CS3*%
X40800000Y-79000000D03*
%TD*%
%TO.P,C4,1*%
%TO.N,SENS_3V3*%
X87200000Y-17000000D03*
%TO.P,C4,2*%
%TO.N,GND*%
X88800000Y-17000000D03*
%TD*%
D12*
%TO.P,J2,1*%
%TO.N,SENS_3V3*%
X76000000Y-29000000D03*
D13*
%TO.P,J2,2*%
%TO.N,GND*%
X78000000Y-29000000D03*
%TO.P,J2,3*%
%TO.N,CS0*%
X80000000Y-29000000D03*
%TO.P,J2,4*%
%TO.N,SCK0*%
X82000000Y-29000000D03*
%TO.P,J2,5*%
%TO.N,MOSI0*%
X84000000Y-29000000D03*
%TO.P,J2,6*%
%TO.N,MISO0_RAW*%
X86000000Y-29000000D03*
%TD*%
D14*
%TO.P,U2,1*%
%TO.N,OE_SENS_N*%
X50150000Y-34075000D03*
%TO.P,U2,2*%
%TO.N,P_SCK0*%
X50150000Y-34725000D03*
%TO.P,U2,3*%
%TO.N,ADC_MOSI_BUF*%
X50150000Y-35375001D03*
%TO.P,U2,4*%
%TO.N,P_MOSI0*%
X50150000Y-36025001D03*
%TO.P,U2,5*%
%TO.N,ADC_SCK_BUF*%
X50150000Y-36675001D03*
%TO.P,U2,6*%
%TO.N,P_CS0*%
X50150000Y-37325000D03*
%TO.P,U2,7*%
%TO.N,CS3*%
X50150000Y-37975000D03*
%TO.P,U2,8*%
%TO.N,P_CS1*%
X50150000Y-38625000D03*
%TO.P,U2,9*%
%TO.N,CS2*%
X50150000Y-39275000D03*
%TO.P,U2,10*%
%TO.N,GND*%
X50150000Y-39925000D03*
%TO.P,U2,11*%
%TO.N,P_CS2*%
X55850000Y-39925000D03*
%TO.P,U2,12*%
%TO.N,CS1*%
X55850000Y-39275000D03*
%TO.P,U2,13*%
%TO.N,P_CS3*%
X55850000Y-38624999D03*
%TO.P,U2,14*%
%TO.N,CS0*%
X55850000Y-37974999D03*
%TO.P,U2,15*%
%TO.N,P_SCK1*%
X55850000Y-37324999D03*
%TO.P,U2,16*%
%TO.N,MOSI0_BUF*%
X55850000Y-36675000D03*
%TO.P,U2,17*%
%TO.N,P_MOSI1*%
X55850000Y-36025000D03*
%TO.P,U2,18*%
%TO.N,SCK0_BUF*%
X55850000Y-35375000D03*
%TO.P,U2,19*%
%TO.N,OE_SENS_N*%
X55850000Y-34725000D03*
%TO.P,U2,20*%
%TO.N,SENS_3V3*%
X55850000Y-34075000D03*
%TD*%
D12*
%TO.P,J3,1*%
%TO.N,SENS_3V3*%
X76000000Y-40000000D03*
D13*
%TO.P,J3,2*%
%TO.N,GND*%
X78000000Y-40000000D03*
%TO.P,J3,3*%
%TO.N,CS1*%
X80000000Y-40000000D03*
%TO.P,J3,4*%
%TO.N,SCK0*%
X82000000Y-40000000D03*
%TO.P,J3,5*%
%TO.N,MOSI0*%
X84000000Y-40000000D03*
%TO.P,J3,6*%
%TO.N,MISO0_RAW*%
X86000000Y-40000000D03*
%TD*%
D11*
%TO.P,R10,1*%
%TO.N,Q_BASE*%
X17200000Y-116000000D03*
%TO.P,R10,2*%
%TO.N,GND*%
X18800000Y-116000000D03*
%TD*%
%TO.P,R16,1*%
%TO.N,MOSI0_BUF*%
X63200000Y-33000000D03*
%TO.P,R16,2*%
%TO.N,MOSI0*%
X64800000Y-33000000D03*
%TD*%
D16*
%TO.P,U1,1*%
%TO.N,ODO_A*%
X15110000Y-19870000D03*
D17*
%TO.P,U1,2*%
%TO.N,ODO_B*%
X15110000Y-22410000D03*
%TO.P,U1,3*%
%TO.N,GND*%
X15110000Y-24950001D03*
%TO.P,U1,4*%
%TO.N,P_SCK0*%
X15110000Y-27490001D03*
%TO.P,U1,5*%
%TO.N,P_MOSI0*%
X15110000Y-30030001D03*
%TO.P,U1,6*%
%TO.N,MISO0*%
X15110000Y-32570000D03*
%TO.P,U1,7*%
%TO.N,P_CS0*%
X15110000Y-35110001D03*
%TO.P,U1,8*%
%TO.N,GND*%
X15110000Y-37650001D03*
%TO.P,U1,9*%
%TO.N,P_CS1*%
X15110000Y-40190001D03*
%TO.P,U1,10*%
%TO.N,P_CS2*%
X15110000Y-42730001D03*
%TO.P,U1,11*%
%TO.N,P_CS3*%
X15110000Y-45269999D03*
%TO.P,U1,12*%
%TO.N,N/C*%
X15110000Y-47810000D03*
%TO.P,U1,13*%
%TO.N,GND*%
X15110000Y-50350000D03*
%TO.P,U1,14*%
%TO.N,P_SCK1*%
X15110000Y-52890000D03*
%TO.P,U1,15*%
%TO.N,P_MOSI1*%
X15110000Y-55430000D03*
%TO.P,U1,16*%
%TO.N,MISO1*%
X15110000Y-57970000D03*
%TO.P,U1,17*%
%TO.N,CS_ADXL*%
X15110000Y-60510000D03*
%TO.P,U1,18*%
%TO.N,GND*%
X15110000Y-63050000D03*
%TO.P,U1,19*%
%TO.N,DRDY_ADXL*%
X15110000Y-65590000D03*
%TO.P,U1,20*%
%TO.N,N/C*%
X15110000Y-68130000D03*
%TO.P,U1,21*%
%TO.N,P_ADC_CS0*%
X32890000Y-68130000D03*
%TO.P,U1,22*%
%TO.N,P_ADC_CS1*%
X32890000Y-65590000D03*
%TO.P,U1,23*%
%TO.N,GND*%
X32890000Y-63049999D03*
%TO.P,U1,24*%
%TO.N,P_ADC_CS2*%
X32890000Y-60509999D03*
%TO.P,U1,25*%
%TO.N,P_ADC_CS3*%
X32890000Y-57969999D03*
%TO.P,U1,26*%
%TO.N,LIFT_STOWED_N*%
X32890000Y-55430000D03*
%TO.P,U1,27*%
%TO.N,POWER_GOOD*%
X32890000Y-52889999D03*
%TO.P,U1,28*%
%TO.N,GND*%
X32890000Y-50349999D03*
%TO.P,U1,29*%
%TO.N,SENSOR_ENABLE*%
X32890000Y-47809999D03*
%TO.P,U1,30*%
%TO.N,N/C*%
X32890000Y-45269999D03*
%TO.P,U1,31*%
X32890000Y-42730001D03*
%TO.P,U1,32*%
X32890000Y-40190000D03*
%TO.P,U1,33*%
%TO.N,GND*%
X32890000Y-37650000D03*
%TO.P,U1,34*%
%TO.N,N/C*%
X32890000Y-35110000D03*
%TO.P,U1,35*%
X32890000Y-32570000D03*
%TO.P,U1,36*%
%TO.N,PICO_3V3*%
X32890000Y-30030000D03*
%TO.P,U1,37*%
%TO.N,N/C*%
X32890000Y-27490000D03*
%TO.P,U1,38*%
%TO.N,GND*%
X32890000Y-24950000D03*
%TO.P,U1,39*%
%TO.N,N/C*%
X32890000Y-22410000D03*
%TO.P,U1,40*%
X32890000Y-19870000D03*
%TD*%
D11*
%TO.P,R17,1*%
%TO.N,ADC_SCK_BUF*%
X63200000Y-45000000D03*
%TO.P,R17,2*%
%TO.N,ADC_SCK*%
X64800000Y-45000000D03*
%TD*%
%TO.P,R18,1*%
%TO.N,ADC_MOSI_BUF*%
X63200000Y-49000000D03*
%TO.P,R18,2*%
%TO.N,ADC_MOSI*%
X64800000Y-49000000D03*
%TD*%
%TO.P,R6,1*%
%TO.N,SENS_3V3*%
X39200000Y-61000000D03*
%TO.P,R6,2*%
%TO.N,ADC_CS1*%
X40800000Y-61000000D03*
%TD*%
%TO.P,C3,1*%
%TO.N,PICO_3V3*%
X60200000Y-104000000D03*
%TO.P,C3,2*%
%TO.N,GND*%
X61800000Y-104000000D03*
%TD*%
%TO.P,C1,1*%
%TO.N,SENS_3V3*%
X60200000Y-37000000D03*
%TO.P,C1,2*%
%TO.N,GND*%
X61800000Y-37000000D03*
%TD*%
D12*
%TO.P,J7,1*%
%TO.N,PICO_3V3*%
X15000000Y-83000000D03*
D13*
%TO.P,J7,2*%
%TO.N,GND*%
X17000000Y-83000000D03*
%TO.P,J7,3*%
%TO.N,ODO_A*%
X19000000Y-83000000D03*
%TO.P,J7,4*%
%TO.N,ODO_B*%
X21000000Y-83000000D03*
%TD*%
D18*
%TO.N,ADC_CS0*%
X61021900Y-84043100D03*
%TO.N,ADC_CS1*%
X60420000Y-83078200D03*
%TO.N,ADC_CS2*%
X58027700Y-82180100D03*
%TO.N,ADC_CS3*%
X56743900Y-81606300D03*
%TO.N,ADC_MOSI_BUF*%
X51961000Y-39070300D03*
X63200000Y-47428100D03*
%TO.N,ADC_SCK_BUF*%
X51407800Y-36955000D03*
X63200000Y-39997400D03*
%TO.N,CS0*%
X58706900Y-36343800D03*
X42665800Y-16305500D03*
%TO.N,CS1*%
X40800000Y-25985500D03*
X57136600Y-39272600D03*
%TO.N,CS2*%
X48455800Y-39523100D03*
%TO.N,CS3*%
X51524600Y-41045600D03*
%TO.N,GND*%
X39861500Y-63706100D03*
%TO.N,MISO0*%
X49016100Y-102800000D03*
%TO.N,MISO0_RAW*%
X51852800Y-108433700D03*
X51561100Y-101669200D03*
X76931200Y-90786300D03*
%TO.N,MISO1*%
X36750000Y-80670000D03*
%TO.N,MISO1_RAW*%
X52472600Y-105795500D03*
%TO.N,MOSI0*%
X65752100Y-33000000D03*
%TO.N,OE_SENS_N*%
X52953000Y-64221300D03*
X30718500Y-68629300D03*
X48887500Y-64992100D03*
%TO.N,PICO_3V3*%
X54648100Y-81000000D03*
X26632500Y-79624600D03*
%TO.N,P_ADC_CS0*%
X48554900Y-66356000D03*
%TO.N,P_ADC_CS1*%
X46642900Y-66320300D03*
%TO.N,P_ADC_CS2*%
X43195500Y-63724000D03*
%TO.N,P_ADC_CS3*%
X41003100Y-63117500D03*
%TO.N,P_CS0*%
X48545600Y-37282800D03*
%TO.N,P_CS1*%
X48880400Y-38790900D03*
%TO.N,P_CS2*%
X54583800Y-40267500D03*
%TO.N,P_CS3*%
X53968700Y-39725800D03*
%TO.N,P_MOSI0*%
X48868800Y-35987500D03*
%TO.N,P_MOSI1*%
X52569300Y-46361300D03*
%TO.N,P_SCK0*%
X48892200Y-34725000D03*
%TO.N,P_SCK1*%
X53366700Y-43778400D03*
%TO.N,SCK0*%
X65777300Y-29024800D03*
%TO.N,SENS_3V3*%
X31200000Y-114992600D03*
%TD*%
D19*
%TO.N,ADC_CS0*%
X56376000Y-66375000D02*
X56901900Y-66375000D01*
X40800000Y-52919400D02*
X54255600Y-66375000D01*
X61021900Y-82543500D02*
X59814700Y-81336300D01*
X54255600Y-66375000D02*
X54798100Y-66375000D01*
X61021900Y-84043100D02*
X61021900Y-82543500D01*
X40800000Y-52000000D02*
X40800000Y-52776900D01*
X40800000Y-52776900D02*
X40800000Y-52919400D01*
X56376000Y-66375000D02*
X55850000Y-66375000D01*
X59814700Y-81336300D02*
X59814700Y-69287800D01*
X55850000Y-66375000D02*
X54798100Y-66375000D01*
X59814700Y-69287800D02*
X56901900Y-66375000D01*
%TO.N,ADC_CS1*%
X54419000Y-67675000D02*
X54798100Y-67675000D01*
X40800000Y-61000000D02*
X47744000Y-61000000D01*
X47744000Y-61000000D02*
X54419000Y-67675000D01*
X55324100Y-67675000D02*
X54798100Y-67675000D01*
X59412800Y-82071000D02*
X59412800Y-70185900D01*
X55324100Y-67675000D02*
X55850000Y-67675000D01*
X55850000Y-67675000D02*
X56901900Y-67675000D01*
X60420000Y-83078200D02*
X59412800Y-82071000D01*
X59412800Y-70185900D02*
X56901900Y-67675000D01*
%TO.N,ADC_CS2*%
X55324100Y-68975000D02*
X55850000Y-68975000D01*
X55850000Y-68975000D02*
X56901900Y-68975000D01*
X54798100Y-68975000D02*
X52321200Y-71451900D01*
X42978800Y-71451900D02*
X41526900Y-70000000D01*
X40800000Y-70000000D02*
X41526900Y-70000000D01*
X55324100Y-68975000D02*
X54798100Y-68975000D01*
X56901900Y-68975000D02*
X58027700Y-70100800D01*
X58027700Y-70100800D02*
X58027700Y-82180100D01*
X52321200Y-71451900D02*
X42978800Y-71451900D01*
%TO.N,ADC_CS3*%
X56730700Y-79000000D02*
X56730700Y-81593100D01*
X56730700Y-79000000D02*
X41526900Y-79000000D01*
X56730700Y-81593100D02*
X56743900Y-81606300D01*
X56901900Y-78828800D02*
X56730700Y-79000000D01*
X40800000Y-79000000D02*
X41526900Y-79000000D01*
X55850000Y-70275000D02*
X56901900Y-70275000D01*
X56901900Y-70275000D02*
X56901900Y-78828800D01*
%TO.N,ADC_MOSI*%
X76994200Y-70479900D02*
X64800000Y-58285700D01*
X78000000Y-96000000D02*
X78000000Y-92842000D01*
X76329100Y-89869100D02*
X76994200Y-89204000D01*
X76329100Y-91171100D02*
X76329100Y-89869100D01*
X64800000Y-58285700D02*
X64800000Y-49000000D01*
X76994200Y-89204000D02*
X76994200Y-70479900D01*
X78000000Y-92842000D02*
X76329100Y-91171100D01*
%TO.N,ADC_MOSI_BUF*%
X51201900Y-35375000D02*
X52038200Y-36211300D01*
X50150000Y-35375000D02*
X51201900Y-35375000D01*
X52038200Y-36211300D02*
X52038200Y-38993100D01*
X52038200Y-38993100D02*
X51961000Y-39070300D01*
X63200000Y-49000000D02*
X63200000Y-47428100D01*
%TO.N,ADC_SCK*%
X76000000Y-95716700D02*
X64073100Y-83789800D01*
X76000000Y-96000000D02*
X76000000Y-95716700D01*
X64073100Y-83789800D02*
X64073100Y-45000000D01*
X64800000Y-45000000D02*
X64073100Y-45000000D01*
%TO.N,ADC_SCK_BUF*%
X51201900Y-36675000D02*
X51201900Y-36749100D01*
X63200000Y-39997400D02*
X63200000Y-45000000D01*
X50150000Y-36675000D02*
X51201900Y-36675000D01*
X51201900Y-36749100D02*
X51407800Y-36955000D01*
%TO.N,CS0*%
X42665800Y-16305500D02*
X41832400Y-16305500D01*
X57075700Y-37975000D02*
X58706900Y-36343800D01*
X55850000Y-37975000D02*
X57075700Y-37975000D01*
X40800000Y-16000000D02*
X41526900Y-16000000D01*
X41832400Y-16305500D02*
X41526900Y-16000000D01*
%TO.N,CS1*%
X57134200Y-39275000D02*
X57136600Y-39272600D01*
X55850000Y-39275000D02*
X57134200Y-39275000D01*
X40800000Y-25000000D02*
X40800000Y-25776900D01*
X40800000Y-25776900D02*
X40800000Y-25985500D01*
%TO.N,CS2*%
X49293500Y-39275000D02*
X49045400Y-39523100D01*
X48455800Y-39523100D02*
X47050000Y-39523100D01*
X40800000Y-34000000D02*
X41526900Y-34000000D01*
X47050000Y-39523100D02*
X41526900Y-34000000D01*
X49045400Y-39523100D02*
X48455800Y-39523100D01*
X50150000Y-39275000D02*
X49293500Y-39275000D01*
%TO.N,CS3*%
X51201900Y-40397400D02*
X51039200Y-40560100D01*
X40800000Y-43000000D02*
X41526900Y-43000000D01*
X51039200Y-40560100D02*
X51524600Y-41045600D01*
X51201900Y-37975000D02*
X51201900Y-40397400D01*
X50150000Y-37975000D02*
X51201900Y-37975000D01*
X51039200Y-40560100D02*
X48599300Y-43000000D01*
X48599300Y-43000000D02*
X41526900Y-43000000D01*
%TO.N,GND*%
X23900000Y-115551900D02*
X23451900Y-116000000D01*
X55850000Y-69625000D02*
X54798100Y-69625000D01*
X55850000Y-68325000D02*
X56913700Y-68325000D01*
X48571200Y-40451900D02*
X49098100Y-39925000D01*
X74000000Y-96000000D02*
X72975900Y-97024100D01*
X40056300Y-60207300D02*
X40056300Y-63511300D01*
X60136500Y-120000000D02*
X64800000Y-124663500D01*
X32890000Y-24950000D02*
X34041900Y-26101900D01*
X51351900Y-104000000D02*
X51351900Y-103200900D01*
X16289400Y-36470600D02*
X15110000Y-37650000D01*
X61800000Y-104000000D02*
X61073100Y-104000000D01*
X50300000Y-107810000D02*
X51351900Y-107810000D01*
X34041900Y-26101900D02*
X34041900Y-36498100D01*
X58652000Y-82422000D02*
X58273900Y-82800100D01*
X78000000Y-51000000D02*
X78000000Y-62000000D01*
X16284800Y-51524800D02*
X16284800Y-61875200D01*
X32890000Y-50350000D02*
X34064800Y-49175200D01*
X47080400Y-70925000D02*
X50150000Y-70925000D01*
X81000000Y-12775000D02*
X86001900Y-17776900D01*
X53800000Y-107810000D02*
X53800000Y-107388100D01*
X16261900Y-38801900D02*
X16261900Y-49198100D01*
X50150000Y-39925000D02*
X49098100Y-39925000D01*
X57769500Y-82800100D02*
X57351800Y-82382400D01*
X54337300Y-67025000D02*
X55850000Y-67025000D01*
X66880300Y-97024100D02*
X62526900Y-101377500D01*
X58273900Y-88417700D02*
X58273900Y-82800100D01*
X61800000Y-67223100D02*
X61800000Y-37776900D01*
X61800000Y-68000000D02*
X61800000Y-67223100D01*
X31693800Y-61853800D02*
X31693800Y-51546200D01*
X52198100Y-70925000D02*
X50150000Y-70925000D01*
X57351800Y-82382400D02*
X57351800Y-70074900D01*
X16473100Y-116600100D02*
X16649900Y-116776900D01*
X74000000Y-94285000D02*
X74000000Y-96000000D01*
X55507600Y-68325000D02*
X54798100Y-68325000D01*
X53800000Y-120000000D02*
X60136500Y-120000000D01*
X15110000Y-63050000D02*
X17000000Y-64940000D01*
X41997500Y-40451900D02*
X48571200Y-40451900D01*
X52670400Y-101882400D02*
X51351900Y-100563900D01*
X56913700Y-68325000D02*
X58652000Y-70063300D01*
X51351900Y-103200900D02*
X52670400Y-101882400D01*
X58987400Y-106540000D02*
X61073100Y-104454300D01*
X34041900Y-36498100D02*
X32890000Y-37650000D01*
X61800000Y-104000000D02*
X62526900Y-104000000D01*
X17000000Y-83000000D02*
X16473100Y-83526900D01*
X15110000Y-24950000D02*
X16289400Y-26129400D01*
X18073100Y-116454300D02*
X18073100Y-116000000D01*
X17750500Y-116776900D02*
X18073100Y-116454300D01*
X40056300Y-42393100D02*
X41997500Y-40451900D01*
X17000000Y-64940000D02*
X17000000Y-83000000D01*
X32890000Y-63050000D02*
X31693800Y-61853800D01*
X16289400Y-26129400D02*
X16289400Y-36470600D01*
X78000000Y-29000000D02*
X78000000Y-25778800D01*
X81000000Y-12000000D02*
X81000000Y-12775000D01*
X64800000Y-124663500D02*
X72359600Y-124663500D01*
X78000000Y-40000000D02*
X78000000Y-29000000D01*
X62526900Y-101377500D02*
X62526900Y-104000000D01*
X55507600Y-68325000D02*
X55850000Y-68325000D01*
X54798100Y-68325000D02*
X52198100Y-70925000D01*
X61800000Y-37000000D02*
X61800000Y-37776900D01*
X16473100Y-83526900D02*
X16473100Y-116600100D01*
X55700000Y-102730000D02*
X54749000Y-102730000D01*
X54648100Y-106540000D02*
X54648100Y-102730000D01*
X39861500Y-63706100D02*
X47080400Y-70925000D01*
X16261900Y-49198100D02*
X15110000Y-50350000D01*
X31693800Y-51546200D02*
X32890000Y-50350000D01*
X23900000Y-114950000D02*
X23900000Y-115551900D01*
X78000000Y-25778800D02*
X86001900Y-17776900D01*
X34064800Y-49175200D02*
X34064800Y-38824800D01*
X18800000Y-116000000D02*
X18073100Y-116000000D01*
X34064800Y-38824800D02*
X32890000Y-37650000D01*
X55174100Y-106540000D02*
X55700000Y-106540000D01*
X55174100Y-106540000D02*
X54648100Y-106540000D01*
X66880300Y-97024100D02*
X58273900Y-88417700D01*
X54749000Y-102730000D02*
X54648100Y-102730000D01*
X53800000Y-120000000D02*
X53800000Y-115000000D01*
X72975900Y-97024100D02*
X66880300Y-97024100D01*
X53800000Y-115000000D02*
X53800000Y-107810000D01*
X55850000Y-70925000D02*
X54798100Y-70925000D01*
X58273900Y-82800100D02*
X57769500Y-82800100D01*
X53800500Y-101882400D02*
X52670400Y-101882400D01*
X23451900Y-116000000D02*
X18800000Y-116000000D01*
X61800000Y-68000000D02*
X61800000Y-82085000D01*
X54798100Y-70925000D02*
X54798100Y-69625000D01*
X53800000Y-107810000D02*
X51351900Y-107810000D01*
X78000000Y-81000000D02*
X78000000Y-62000000D01*
X51351900Y-100563900D02*
X51351900Y-100190000D01*
X50300000Y-104000000D02*
X51351900Y-104000000D01*
X78000000Y-40000000D02*
X78000000Y-51000000D01*
X61073100Y-104454300D02*
X61073100Y-104000000D01*
X15110000Y-37650000D02*
X16261900Y-38801900D01*
X61800000Y-82085000D02*
X74000000Y-94285000D01*
X87750500Y-17776900D02*
X88073100Y-17454300D01*
X50300000Y-100190000D02*
X51351900Y-100190000D01*
X54648100Y-102730000D02*
X53800500Y-101882400D01*
X15110000Y-50350000D02*
X16284800Y-51524800D01*
X74000000Y-124000000D02*
X73023100Y-124000000D01*
X40056300Y-63511300D02*
X39861500Y-63706100D01*
X55700000Y-106540000D02*
X58987400Y-106540000D01*
X72359600Y-124663500D02*
X73023100Y-124000000D01*
X88800000Y-17000000D02*
X88073100Y-17000000D01*
X88073100Y-17454300D02*
X88073100Y-17000000D01*
X57351800Y-70074900D02*
X56901900Y-69625000D01*
X86001900Y-17776900D02*
X87750500Y-17776900D01*
X58652000Y-70063300D02*
X58652000Y-82422000D01*
X16284800Y-61875200D02*
X15110000Y-63050000D01*
X47519600Y-60207300D02*
X54337300Y-67025000D01*
X53800000Y-107388100D02*
X54648100Y-106540000D01*
X40056300Y-60207300D02*
X47519600Y-60207300D01*
X55850000Y-69625000D02*
X56901900Y-69625000D01*
X16649900Y-116776900D02*
X17750500Y-116776900D01*
X64800000Y-124663500D02*
X64800000Y-125000000D01*
X40056300Y-60207300D02*
X40056300Y-42393100D01*
%TO.N,LIFT_STOWED_N*%
X76000000Y-124000000D02*
X77001900Y-122998100D01*
X56447200Y-126182300D02*
X34041900Y-103777000D01*
X79000000Y-124457100D02*
X77274800Y-126182300D01*
X77001900Y-122998100D02*
X78404700Y-122998100D01*
X78404700Y-122998100D02*
X79000000Y-123593400D01*
X77274800Y-126182300D02*
X56447200Y-126182300D01*
X79000000Y-123593400D02*
X79000000Y-124457100D01*
X34041900Y-103777000D02*
X34041900Y-56581900D01*
X34041900Y-56581900D02*
X32890000Y-55430000D01*
%TO.N,MISO0*%
X50300000Y-102730000D02*
X49248100Y-102730000D01*
X49016100Y-102800000D02*
X49178100Y-102800000D01*
X49178100Y-102800000D02*
X49248100Y-102730000D01*
%TO.N,MISO0_RAW*%
X86000000Y-51000000D02*
X86000000Y-62000000D01*
X86000000Y-40000000D02*
X86000000Y-51000000D01*
X52200000Y-114223100D02*
X51852800Y-113875900D01*
X86000000Y-29000000D02*
X86000000Y-40000000D01*
X51561100Y-101669200D02*
X51351900Y-101460000D01*
X52200000Y-115000000D02*
X52200000Y-114223100D01*
X51852800Y-113875900D02*
X51852800Y-108433700D01*
X50300000Y-101460000D02*
X51351900Y-101460000D01*
X82976900Y-65023100D02*
X86000000Y-62000000D01*
X76931200Y-90786300D02*
X82976900Y-84740600D01*
X82976900Y-84740600D02*
X82976900Y-65023100D01*
%TO.N,MISO1*%
X36750000Y-80670000D02*
X36750000Y-94041900D01*
X50300000Y-106540000D02*
X49248100Y-106540000D01*
X36750000Y-94041900D02*
X49248100Y-106540000D01*
%TO.N,MISO1_RAW*%
X52200000Y-120000000D02*
X51473100Y-120000000D01*
X80000000Y-96000000D02*
X84000000Y-92000000D01*
X49479300Y-107141900D02*
X51175100Y-107141900D01*
X51175100Y-107141900D02*
X51351900Y-106965100D01*
X51351900Y-105795500D02*
X51351900Y-105270000D01*
X49222800Y-117749700D02*
X49222800Y-107398400D01*
X84000000Y-92000000D02*
X84000000Y-81000000D01*
X51351900Y-106965100D02*
X51351900Y-105795500D01*
X51473100Y-120000000D02*
X49222800Y-117749700D01*
X50300000Y-105270000D02*
X51351900Y-105270000D01*
X51351900Y-105795500D02*
X52472600Y-105795500D01*
X49222800Y-107398400D02*
X49479300Y-107141900D01*
%TO.N,MOSI0*%
X65360500Y-33000000D02*
X65752100Y-33000000D01*
X84000000Y-51000000D02*
X84000000Y-62000000D01*
X64800000Y-33000000D02*
X65360500Y-33000000D01*
X84000000Y-40000000D02*
X84000000Y-51000000D01*
%TO.N,MOSI0_BUF*%
X57500000Y-36675000D02*
X61175000Y-33000000D01*
X61175000Y-33000000D02*
X63200000Y-33000000D01*
X55850000Y-36675000D02*
X57500000Y-36675000D01*
%TO.N,ODO_A*%
X14822000Y-21021900D02*
X13932600Y-21911300D01*
X14789100Y-23798100D02*
X15637300Y-23798100D01*
X15110000Y-19870000D02*
X15110000Y-21021900D01*
X13932600Y-22941600D02*
X14789100Y-23798100D01*
X13932600Y-21911300D02*
X13932600Y-22941600D01*
X15110000Y-21021900D02*
X14822000Y-21021900D01*
X15637300Y-23798100D02*
X19000000Y-27160800D01*
X19000000Y-27160800D02*
X19000000Y-83000000D01*
%TO.N,ODO_B*%
X21000000Y-28300000D02*
X15110000Y-22410000D01*
X21000000Y-83000000D02*
X21000000Y-28300000D01*
%TO.N,OE_SENS_N*%
X49098100Y-65075000D02*
X49015200Y-64992100D01*
X52562900Y-35436000D02*
X51201900Y-34075000D01*
X55850000Y-65725000D02*
X54798100Y-65725000D01*
X26275000Y-113223100D02*
X26100000Y-113398100D01*
X55850000Y-34725000D02*
X54798100Y-34725000D01*
X54087100Y-35436000D02*
X52562900Y-35436000D01*
X50150000Y-65075000D02*
X49098100Y-65075000D01*
X53294400Y-64221300D02*
X52953000Y-64221300D01*
X49015200Y-64992100D02*
X48887500Y-64992100D01*
X30718500Y-113223100D02*
X30718500Y-68629300D01*
X52562900Y-41136600D02*
X52562900Y-35436000D01*
X52953000Y-64221300D02*
X51908500Y-63176800D01*
X32073100Y-114000000D02*
X32073100Y-113545700D01*
X54798100Y-65725000D02*
X53294400Y-64221300D01*
X51908500Y-41791000D02*
X52562900Y-41136600D01*
X32073100Y-113545700D02*
X31750500Y-113223100D01*
X51908500Y-63176800D02*
X51908500Y-41791000D01*
X50150000Y-34075000D02*
X51201900Y-34075000D01*
X30718500Y-113223100D02*
X26275000Y-113223100D01*
X54798100Y-34725000D02*
X54087100Y-35436000D01*
X26100000Y-114000000D02*
X26100000Y-113398100D01*
X31750500Y-113223100D02*
X30718500Y-113223100D01*
X32800000Y-114000000D02*
X32073100Y-114000000D01*
%TO.N,PICO_3V3*%
X32890000Y-30030000D02*
X26632500Y-36287500D01*
X60200000Y-104000000D02*
X59473100Y-104000000D01*
X54648100Y-100190000D02*
X54648100Y-81000000D01*
X58656200Y-103364200D02*
X58837300Y-103364200D01*
X56751900Y-100190000D02*
X56751900Y-101460000D01*
X56751900Y-105270000D02*
X56751900Y-105268500D01*
X55700000Y-105270000D02*
X56751900Y-105270000D01*
X55700000Y-101460000D02*
X56751900Y-101460000D01*
X75897700Y-82079200D02*
X76000000Y-81976900D01*
X56751900Y-101460000D02*
X58656200Y-103364200D01*
X56751900Y-105268500D02*
X58656200Y-103364200D01*
X26632500Y-36287500D02*
X26632500Y-79624600D01*
X55700000Y-100190000D02*
X54648100Y-100190000D01*
X55700000Y-100190000D02*
X56751900Y-100190000D01*
X80000000Y-124000000D02*
X77000000Y-121000000D01*
X58837300Y-103364200D02*
X59473100Y-104000000D01*
X76000000Y-81000000D02*
X76000000Y-81976900D01*
X77000000Y-93814100D02*
X75897700Y-92711800D01*
X75897700Y-92711800D02*
X75897700Y-82079200D01*
X77000000Y-121000000D02*
X77000000Y-93814100D01*
%TO.N,POWER_GOOD*%
X63200000Y-125000000D02*
X62473100Y-125000000D01*
X78000000Y-124000000D02*
X76223100Y-125776900D01*
X35354100Y-104519800D02*
X35354100Y-55354100D01*
X64249500Y-125776900D02*
X63926900Y-125454300D01*
X63200000Y-125000000D02*
X63926900Y-125000000D01*
X63926900Y-125454300D02*
X63926900Y-125000000D01*
X55834300Y-125000000D02*
X35354100Y-104519800D01*
X76223100Y-125776900D02*
X64249500Y-125776900D01*
X62473100Y-125000000D02*
X55834300Y-125000000D01*
X35354100Y-55354100D02*
X32890000Y-52890000D01*
%TO.N,P_ADC_CS0*%
X49098100Y-65812800D02*
X49098100Y-65725000D01*
X50150000Y-65725000D02*
X49098100Y-65725000D01*
X48554900Y-66356000D02*
X49098100Y-65812800D01*
%TO.N,P_ADC_CS1*%
X46642900Y-66320300D02*
X47347600Y-67025000D01*
X47347600Y-67025000D02*
X50150000Y-67025000D01*
%TO.N,P_ADC_CS2*%
X43195500Y-63724000D02*
X47796500Y-68325000D01*
X47796500Y-68325000D02*
X50150000Y-68325000D01*
%TO.N,P_ADC_CS3*%
X47510600Y-69625000D02*
X50150000Y-69625000D01*
X41003100Y-63117500D02*
X47510600Y-69625000D01*
%TO.N,P_CS0*%
X48545600Y-37282900D02*
X48545600Y-37282800D01*
X49098100Y-37325000D02*
X49056000Y-37282900D01*
X50150000Y-37325000D02*
X49098100Y-37325000D01*
X49056000Y-37282900D02*
X48545600Y-37282900D01*
%TO.N,P_CS1*%
X49098100Y-38625000D02*
X48932300Y-38790800D01*
X48932300Y-38790800D02*
X48880400Y-38790800D01*
X50150000Y-38625000D02*
X49098100Y-38625000D01*
X48880400Y-38790800D02*
X48880400Y-38790900D01*
%TO.N,P_CS2*%
X54798100Y-40053200D02*
X54798100Y-39925000D01*
X54583800Y-40267500D02*
X54798100Y-40053200D01*
X55850000Y-39925000D02*
X54798100Y-39925000D01*
%TO.N,P_CS3*%
X54798100Y-38896400D02*
X53968700Y-39725800D01*
X54798100Y-38625000D02*
X54798100Y-38896400D01*
X55850000Y-38625000D02*
X54798100Y-38625000D01*
%TO.N,P_MOSI0*%
X49060600Y-35987500D02*
X49098100Y-36025000D01*
X50150000Y-36025000D02*
X49098100Y-36025000D01*
X48868800Y-35987500D02*
X49060600Y-35987500D01*
%TO.N,P_MOSI1*%
X52964800Y-41310200D02*
X52964800Y-37858300D01*
X55850000Y-36025000D02*
X54798100Y-36025000D01*
X52569300Y-41705700D02*
X52964800Y-41310200D01*
X52569300Y-46361300D02*
X52569300Y-41705700D01*
X52964800Y-37858300D02*
X54798100Y-36025000D01*
%TO.N,P_SCK0*%
X50150000Y-34725000D02*
X48892200Y-34725000D01*
%TO.N,P_SCK1*%
X53366700Y-38756400D02*
X54798100Y-37325000D01*
X53366700Y-43778400D02*
X53366700Y-38756400D01*
X55850000Y-37325000D02*
X54798100Y-37325000D01*
%TO.N,Q_BASE*%
X18800000Y-110336500D02*
X21788400Y-110336500D01*
X18800000Y-110336500D02*
X18800000Y-110000000D01*
X17200000Y-116000000D02*
X17200000Y-111936500D01*
X23900000Y-113050000D02*
X23900000Y-112448100D01*
X21788400Y-110336500D02*
X23900000Y-112448100D01*
X17200000Y-111936500D02*
X18800000Y-110336500D01*
%TO.N,SCK0*%
X65777300Y-29024800D02*
X65551700Y-29024800D01*
X82000000Y-29000000D02*
X82000000Y-40000000D01*
X65551700Y-29024800D02*
X65526900Y-29000000D01*
X82000000Y-40000000D02*
X82000000Y-51000000D01*
X82000000Y-51000000D02*
X82000000Y-62000000D01*
X64800000Y-29000000D02*
X65526900Y-29000000D01*
%TO.N,SCK0_BUF*%
X56901900Y-34571200D02*
X62473100Y-29000000D01*
X63200000Y-29000000D02*
X62473100Y-29000000D01*
X55850000Y-35375000D02*
X56901900Y-35375000D01*
X56901900Y-35375000D02*
X56901900Y-34571200D01*
%TO.N,SENSOR_ENABLE*%
X28427300Y-52272700D02*
X28427300Y-98772700D01*
X17200000Y-110000000D02*
X17926900Y-110000000D01*
X32890000Y-47810000D02*
X28427300Y-52272700D01*
X28427300Y-98772700D02*
X17926900Y-109273100D01*
X17926900Y-109273100D02*
X17926900Y-110000000D01*
%TO.N,SENS_3V3*%
X39200000Y-16000000D02*
X39200000Y-25000000D01*
X60926900Y-37000000D02*
X60926900Y-36545700D01*
X64000000Y-29824200D02*
X76000000Y-29824200D01*
X60200000Y-68000000D02*
X60200000Y-68776900D01*
X60200000Y-37000000D02*
X60926900Y-37000000D01*
X60216600Y-81169900D02*
X60216600Y-68793500D01*
X60216600Y-68793500D02*
X60200000Y-68776900D01*
X39200000Y-61000000D02*
X39200000Y-70000000D01*
X39200000Y-79000000D02*
X39200000Y-70000000D01*
X56801000Y-65075000D02*
X56900400Y-65075000D01*
X55850000Y-34075000D02*
X54798100Y-34075000D01*
X53884200Y-33161100D02*
X54798100Y-34075000D01*
X60926900Y-36545700D02*
X61872600Y-35600000D01*
X63808200Y-28223100D02*
X61701900Y-28223100D01*
X61872600Y-35600000D02*
X62005700Y-35600000D01*
X39200000Y-32140800D02*
X39200000Y-25000000D01*
X76000000Y-15976900D02*
X79000000Y-12976900D01*
X39200000Y-34000000D02*
X39926900Y-34000000D01*
X64000000Y-29824200D02*
X64000000Y-28414900D01*
X61701900Y-28223100D02*
X55850000Y-34075000D01*
X40220300Y-33161100D02*
X39200000Y-32140800D01*
X39926900Y-34000000D02*
X39926900Y-33454500D01*
X76000000Y-51000000D02*
X76000000Y-40000000D01*
X39926900Y-33454500D02*
X40220300Y-33161100D01*
X64000000Y-28414900D02*
X63808200Y-28223100D01*
X81956200Y-10979300D02*
X87200000Y-16223100D01*
X31200000Y-114000000D02*
X31200000Y-114992600D01*
X79000000Y-12000000D02*
X79000000Y-12976900D01*
X39200000Y-52000000D02*
X39200000Y-61000000D01*
X56900400Y-65075000D02*
X60200000Y-61775400D01*
X72000000Y-96000000D02*
X72000000Y-95023100D01*
X72000000Y-92953300D02*
X60216600Y-81169900D01*
X72000000Y-95023100D02*
X72000000Y-92953300D01*
X76000000Y-29824200D02*
X76000000Y-29000000D01*
X76000000Y-40000000D02*
X76000000Y-39023100D01*
X39200000Y-43000000D02*
X39200000Y-34000000D01*
X40220300Y-33161100D02*
X53884200Y-33161100D01*
X79976900Y-12000000D02*
X79976900Y-11633700D01*
X80631300Y-10979300D02*
X81956200Y-10979300D01*
X55850000Y-65075000D02*
X56801000Y-65075000D01*
X76000000Y-29000000D02*
X76000000Y-15976900D01*
X60200000Y-61775400D02*
X60200000Y-37000000D01*
X87200000Y-17000000D02*
X87200000Y-16223100D01*
X79976900Y-11633700D02*
X80631300Y-10979300D01*
X79000000Y-12000000D02*
X79976900Y-12000000D01*
X62005700Y-35600000D02*
X64000000Y-33605700D01*
X60200000Y-68000000D02*
X59473100Y-68000000D01*
X39200000Y-43000000D02*
X39200000Y-52000000D01*
X59473100Y-67647700D02*
X59473100Y-68000000D01*
X56900400Y-65075000D02*
X59473100Y-67647700D01*
X76000000Y-39023100D02*
X76000000Y-29824200D01*
X76000000Y-51000000D02*
X76000000Y-62000000D01*
X64000000Y-33605700D02*
X64000000Y-29824200D01*
%TD*%
M02*
