%TF.GenerationSoftware,KiCad,Pcbnew,9.0.9-9.0.9~ubuntu24.04.1*%
%TF.CreationDate,2026-10-04T14:00:59+00:00*%
%TF.ProjectId,carrier_r2,63617272-6965-4725-9f72-322e6b696361,rev?*%
%TF.SameCoordinates,Original*%
%TF.FileFunction,Copper,L1,Top*%
%TF.FilePolarity,Positive*%
%FSLAX46Y46*%
G04 Gerber Fmt 4.6, Leading zero omitted, Abs format (unit mm)*
G04 Created by KiCad (PCBNEW 9.0.9-9.0.9~ubuntu24.04.1) date 2026-10-04 14:00:59*
%MOMM*%
%LPD*%
G01*
G04 APERTURE LIST*
%TA.AperFunction,ComponentPad*%
%ADD10R,1.350000X1.350000*%
%TD*%
%TA.AperFunction,ComponentPad*%
%ADD11C,1.350000*%
%TD*%
%TA.AperFunction,SMDPad,CuDef*%
%ADD12R,0.850000X0.950000*%
%TD*%
%TA.AperFunction,SMDPad,CuDef*%
%ADD13R,1.000000X0.600000*%
%TD*%
%TA.AperFunction,SMDPad,CuDef*%
%ADD14R,1.500000X0.450000*%
%TD*%
%TA.AperFunction,SMDPad,CuDef*%
%ADD15R,1.500000X0.600000*%
%TD*%
%TA.AperFunction,ComponentPad*%
%ADD16R,1.700000X1.700000*%
%TD*%
%TA.AperFunction,ComponentPad*%
%ADD17C,1.700000*%
%TD*%
%TA.AperFunction,ViaPad*%
%ADD18C,0.600000*%
%TD*%
%TA.AperFunction,Conductor*%
%ADD19C,0.200000*%
%TD*%
G04 APERTURE END LIST*
D10*
%TO.P,J7,1*%
%TO.N,PICO_3V3*%
X15000000Y-83000000D03*
D11*
%TO.P,J7,2*%
%TO.N,GND*%
X17000000Y-83000000D03*
%TO.P,J7,3*%
%TO.N,ODO_A*%
X19000000Y-83000000D03*
%TO.P,J7,4*%
%TO.N,ODO_B*%
X21000000Y-83000000D03*
%TD*%
D12*
%TO.P,R7,1*%
%TO.N,SENS_3V3*%
X39200000Y-70000000D03*
%TO.P,R7,2*%
%TO.N,ADC_CS2*%
X40800000Y-70000000D03*
%TD*%
%TO.P,R3,1*%
%TO.N,SENS_3V3*%
X39200000Y-34000000D03*
%TO.P,R3,2*%
%TO.N,CS2*%
X40800000Y-34000000D03*
%TD*%
%TO.P,C4,1*%
%TO.N,SENS_3V3*%
X87200000Y-17000000D03*
%TO.P,C4,2*%
%TO.N,GND*%
X88800000Y-17000000D03*
%TD*%
D10*
%TO.P,J5,1*%
%TO.N,SENS_3V3*%
X76000000Y-62000000D03*
D11*
%TO.P,J5,2*%
%TO.N,GND*%
X78000000Y-62000000D03*
%TO.P,J5,3*%
%TO.N,CS3*%
X80000000Y-62000000D03*
%TO.P,J5,4*%
%TO.N,SCK0*%
X82000000Y-62000000D03*
%TO.P,J5,5*%
%TO.N,MOSI0*%
X84000000Y-62000000D03*
%TO.P,J5,6*%
%TO.N,MISO0_RAW*%
X86000000Y-62000000D03*
%TD*%
D12*
%TO.P,R11,1*%
%TO.N,SENS_3V3*%
X31200000Y-114000000D03*
%TO.P,R11,2*%
%TO.N,OE_SENS_N*%
X32800000Y-114000000D03*
%TD*%
%TO.P,R18,1*%
%TO.N,ADC_MOSI_BUF*%
X63200000Y-49000000D03*
%TO.P,R18,2*%
%TO.N,ADC_MOSI*%
X64800000Y-49000000D03*
%TD*%
%TO.P,R1,1*%
%TO.N,SENS_3V3*%
X39200000Y-16000000D03*
%TO.P,R1,2*%
%TO.N,CS0*%
X40800000Y-16000000D03*
%TD*%
%TO.P,R4,1*%
%TO.N,SENS_3V3*%
X39200000Y-43000000D03*
%TO.P,R4,2*%
%TO.N,CS3*%
X40800000Y-43000000D03*
%TD*%
%TO.P,C2,1*%
%TO.N,SENS_3V3*%
X60200000Y-68000000D03*
%TO.P,C2,2*%
%TO.N,GND*%
X61800000Y-68000000D03*
%TD*%
D13*
%TO.P,Q1,1*%
%TO.N,Q_BASE*%
X23900000Y-113050000D03*
%TO.P,Q1,2*%
%TO.N,GND*%
X23900000Y-114950000D03*
%TO.P,Q1,3*%
%TO.N,OE_SENS_N*%
X26100000Y-114000000D03*
%TD*%
D12*
%TO.P,R15,1*%
%TO.N,SCK0_BUF*%
X63200000Y-29000000D03*
%TO.P,R15,2*%
%TO.N,SCK0*%
X64800000Y-29000000D03*
%TD*%
D14*
%TO.P,U3,1*%
%TO.N,OE_SENS_N*%
X50150000Y-65075000D03*
%TO.P,U3,2*%
%TO.N,P_ADC_CS0*%
X50150000Y-65725000D03*
%TO.P,U3,3*%
%TO.N,N/C*%
X50150000Y-66375001D03*
%TO.P,U3,4*%
%TO.N,P_ADC_CS1*%
X50150000Y-67025001D03*
%TO.P,U3,5*%
%TO.N,N/C*%
X50150000Y-67675001D03*
%TO.P,U3,6*%
%TO.N,P_ADC_CS2*%
X50150000Y-68325000D03*
%TO.P,U3,7*%
%TO.N,N/C*%
X50150000Y-68975000D03*
%TO.P,U3,8*%
%TO.N,P_ADC_CS3*%
X50150000Y-69625000D03*
%TO.P,U3,9*%
%TO.N,N/C*%
X50150000Y-70275000D03*
%TO.P,U3,10*%
%TO.N,GND*%
X50150000Y-70925000D03*
%TO.P,U3,11*%
X55850000Y-70925000D03*
%TO.P,U3,12*%
%TO.N,ADC_CS3*%
X55850000Y-70275000D03*
%TO.P,U3,13*%
%TO.N,GND*%
X55850000Y-69624999D03*
%TO.P,U3,14*%
%TO.N,ADC_CS2*%
X55850000Y-68974999D03*
%TO.P,U3,15*%
%TO.N,GND*%
X55850000Y-68324999D03*
%TO.P,U3,16*%
%TO.N,ADC_CS1*%
X55850000Y-67675000D03*
%TO.P,U3,17*%
%TO.N,GND*%
X55850000Y-67025000D03*
%TO.P,U3,18*%
%TO.N,ADC_CS0*%
X55850000Y-66375000D03*
%TO.P,U3,19*%
%TO.N,OE_SENS_N*%
X55850000Y-65725000D03*
%TO.P,U3,20*%
%TO.N,SENS_3V3*%
X55850000Y-65075000D03*
%TD*%
D10*
%TO.P,J9,1*%
%TO.N,GND*%
X74000000Y-124000000D03*
D11*
%TO.P,J9,2*%
%TO.N,LIFT_STOWED_N*%
X76000000Y-124000000D03*
%TO.P,J9,3*%
%TO.N,POWER_GOOD*%
X78000000Y-124000000D03*
%TO.P,J9,4*%
%TO.N,PICO_3V3*%
X80000000Y-124000000D03*
%TD*%
D12*
%TO.P,C3,1*%
%TO.N,PICO_3V3*%
X60200000Y-104000000D03*
%TO.P,C3,2*%
%TO.N,GND*%
X61800000Y-104000000D03*
%TD*%
%TO.P,R6,1*%
%TO.N,SENS_3V3*%
X39200000Y-61000000D03*
%TO.P,R6,2*%
%TO.N,ADC_CS1*%
X40800000Y-61000000D03*
%TD*%
%TO.P,C1,1*%
%TO.N,SENS_3V3*%
X60200000Y-37000000D03*
%TO.P,C1,2*%
%TO.N,GND*%
X61800000Y-37000000D03*
%TD*%
%TO.P,R12,1*%
%TO.N,POWER_GOOD*%
X63200000Y-125000000D03*
%TO.P,R12,2*%
%TO.N,GND*%
X64800000Y-125000000D03*
%TD*%
%TO.P,R5,1*%
%TO.N,SENS_3V3*%
X39200000Y-52000000D03*
%TO.P,R5,2*%
%TO.N,ADC_CS0*%
X40800000Y-52000000D03*
%TD*%
%TO.P,R17,1*%
%TO.N,ADC_SCK_BUF*%
X63200000Y-45000000D03*
%TO.P,R17,2*%
%TO.N,ADC_SCK*%
X64800000Y-45000000D03*
%TD*%
%TO.P,R10,1*%
%TO.N,Q_BASE*%
X17200000Y-116000000D03*
%TO.P,R10,2*%
%TO.N,GND*%
X18800000Y-116000000D03*
%TD*%
%TO.P,R14,1*%
%TO.N,MISO1_RAW*%
X52200000Y-120000000D03*
%TO.P,R14,2*%
%TO.N,GND*%
X53800000Y-120000000D03*
%TD*%
%TO.P,R9,1*%
%TO.N,SENSOR_ENABLE*%
X17200000Y-110000000D03*
%TO.P,R9,2*%
%TO.N,Q_BASE*%
X18800000Y-110000000D03*
%TD*%
%TO.P,R16,1*%
%TO.N,MOSI0_BUF*%
X63200000Y-33000000D03*
%TO.P,R16,2*%
%TO.N,MOSI0*%
X64800000Y-33000000D03*
%TD*%
D10*
%TO.P,J6,1*%
%TO.N,PICO_3V3*%
X76000000Y-81000000D03*
D11*
%TO.P,J6,2*%
%TO.N,GND*%
X78000000Y-81000000D03*
%TO.P,J6,3*%
%TO.N,P_SCK1*%
X80000000Y-81000000D03*
%TO.P,J6,4*%
%TO.N,P_MOSI1*%
X82000000Y-81000000D03*
%TO.P,J6,5*%
%TO.N,MISO1_RAW*%
X84000000Y-81000000D03*
%TO.P,J6,6*%
%TO.N,CS_ADXL*%
X86000000Y-81000000D03*
%TO.P,J6,7*%
%TO.N,DRDY_ADXL*%
X88000000Y-81000000D03*
%TD*%
D15*
%TO.P,U4,1*%
%TO.N,GND*%
X50300000Y-100190000D03*
%TO.P,U4,2*%
%TO.N,MISO0_RAW*%
X50300000Y-101460000D03*
%TO.P,U4,3*%
%TO.N,MISO0*%
X50300000Y-102730000D03*
%TO.P,U4,4*%
%TO.N,GND*%
X50300000Y-104000000D03*
%TO.P,U4,5*%
%TO.N,MISO1_RAW*%
X50300000Y-105270000D03*
%TO.P,U4,6*%
%TO.N,MISO1*%
X50300000Y-106539999D03*
%TO.P,U4,7*%
%TO.N,GND*%
X50300000Y-107810000D03*
%TO.P,U4,8*%
%TO.N,N/C*%
X55700000Y-107810000D03*
%TO.P,U4,9*%
%TO.N,GND*%
X55700000Y-106540000D03*
%TO.P,U4,10*%
%TO.N,PICO_3V3*%
X55700000Y-105270000D03*
%TO.P,U4,11*%
%TO.N,N/C*%
X55700000Y-104000000D03*
%TO.P,U4,12*%
%TO.N,GND*%
X55700000Y-102730000D03*
%TO.P,U4,13*%
%TO.N,PICO_3V3*%
X55700000Y-101460001D03*
%TO.P,U4,14*%
X55700000Y-100190000D03*
%TD*%
D10*
%TO.P,J1,1*%
%TO.N,SENS_3V3*%
X79000000Y-12000000D03*
D11*
%TO.P,J1,2*%
%TO.N,GND*%
X81000000Y-12000000D03*
%TD*%
D10*
%TO.P,J4,1*%
%TO.N,SENS_3V3*%
X76000000Y-51000000D03*
D11*
%TO.P,J4,2*%
%TO.N,GND*%
X78000000Y-51000000D03*
%TO.P,J4,3*%
%TO.N,CS2*%
X80000000Y-51000000D03*
%TO.P,J4,4*%
%TO.N,SCK0*%
X82000000Y-51000000D03*
%TO.P,J4,5*%
%TO.N,MOSI0*%
X84000000Y-51000000D03*
%TO.P,J4,6*%
%TO.N,MISO0_RAW*%
X86000000Y-51000000D03*
%TD*%
D16*
%TO.P,U1,1*%
%TO.N,ODO_A*%
X15110000Y-19870000D03*
D17*
%TO.P,U1,2*%
%TO.N,ODO_B*%
X15110000Y-22410000D03*
%TO.P,U1,3*%
%TO.N,GND*%
X15110000Y-24950001D03*
%TO.P,U1,4*%
%TO.N,P_SCK0*%
X15110000Y-27490001D03*
%TO.P,U1,5*%
%TO.N,P_MOSI0*%
X15110000Y-30030001D03*
%TO.P,U1,6*%
%TO.N,MISO0*%
X15110000Y-32570000D03*
%TO.P,U1,7*%
%TO.N,P_CS0*%
X15110000Y-35110001D03*
%TO.P,U1,8*%
%TO.N,GND*%
X15110000Y-37650001D03*
%TO.P,U1,9*%
%TO.N,P_CS1*%
X15110000Y-40190001D03*
%TO.P,U1,10*%
%TO.N,P_CS2*%
X15110000Y-42730001D03*
%TO.P,U1,11*%
%TO.N,P_CS3*%
X15110000Y-45269999D03*
%TO.P,U1,12*%
%TO.N,N/C*%
X15110000Y-47810000D03*
%TO.P,U1,13*%
%TO.N,GND*%
X15110000Y-50350000D03*
%TO.P,U1,14*%
%TO.N,P_SCK1*%
X15110000Y-52890000D03*
%TO.P,U1,15*%
%TO.N,P_MOSI1*%
X15110000Y-55430000D03*
%TO.P,U1,16*%
%TO.N,MISO1*%
X15110000Y-57970000D03*
%TO.P,U1,17*%
%TO.N,CS_ADXL*%
X15110000Y-60510000D03*
%TO.P,U1,18*%
%TO.N,GND*%
X15110000Y-63050000D03*
%TO.P,U1,19*%
%TO.N,DRDY_ADXL*%
X15110000Y-65590000D03*
%TO.P,U1,20*%
%TO.N,N/C*%
X15110000Y-68130000D03*
%TO.P,U1,21*%
%TO.N,P_ADC_CS0*%
X32890000Y-68130000D03*
%TO.P,U1,22*%
%TO.N,P_ADC_CS1*%
X32890000Y-65590000D03*
%TO.P,U1,23*%
%TO.N,GND*%
X32890000Y-63049999D03*
%TO.P,U1,24*%
%TO.N,P_ADC_CS2*%
X32890000Y-60509999D03*
%TO.P,U1,25*%
%TO.N,P_ADC_CS3*%
X32890000Y-57969999D03*
%TO.P,U1,26*%
%TO.N,LIFT_STOWED_N*%
X32890000Y-55430000D03*
%TO.P,U1,27*%
%TO.N,POWER_GOOD*%
X32890000Y-52889999D03*
%TO.P,U1,28*%
%TO.N,GND*%
X32890000Y-50349999D03*
%TO.P,U1,29*%
%TO.N,SENSOR_ENABLE*%
X32890000Y-47809999D03*
%TO.P,U1,30*%
%TO.N,N/C*%
X32890000Y-45269999D03*
%TO.P,U1,31*%
X32890000Y-42730001D03*
%TO.P,U1,32*%
X32890000Y-40190000D03*
%TO.P,U1,33*%
%TO.N,GND*%
X32890000Y-37650000D03*
%TO.P,U1,34*%
%TO.N,N/C*%
X32890000Y-35110000D03*
%TO.P,U1,35*%
X32890000Y-32570000D03*
%TO.P,U1,36*%
%TO.N,PICO_3V3*%
X32890000Y-30030000D03*
%TO.P,U1,37*%
%TO.N,N/C*%
X32890000Y-27490000D03*
%TO.P,U1,38*%
%TO.N,GND*%
X32890000Y-24950000D03*
%TO.P,U1,39*%
%TO.N,N/C*%
X32890000Y-22410000D03*
%TO.P,U1,40*%
X32890000Y-19870000D03*
%TD*%
D10*
%TO.P,J8,1*%
%TO.N,SENS_3V3*%
X72000000Y-96000000D03*
D11*
%TO.P,J8,2*%
%TO.N,GND*%
X74000000Y-96000000D03*
%TO.P,J8,3*%
%TO.N,ADC_SCK*%
X76000000Y-96000000D03*
%TO.P,J8,4*%
%TO.N,ADC_MOSI*%
X78000000Y-96000000D03*
%TO.P,J8,5*%
%TO.N,MISO1_RAW*%
X80000000Y-96000000D03*
%TO.P,J8,6*%
%TO.N,ADC_CS0*%
X82000000Y-96000000D03*
%TO.P,J8,7*%
%TO.N,ADC_CS1*%
X84000000Y-96000000D03*
%TO.P,J8,8*%
%TO.N,ADC_CS2*%
X86000000Y-96000000D03*
%TO.P,J8,9*%
%TO.N,ADC_CS3*%
X88000000Y-96000000D03*
%TO.P,J8,10*%
%TO.N,GND*%
X90000000Y-96000000D03*
%TD*%
D12*
%TO.P,R2,1*%
%TO.N,SENS_3V3*%
X39200000Y-25000000D03*
%TO.P,R2,2*%
%TO.N,CS1*%
X40800000Y-25000000D03*
%TD*%
D14*
%TO.P,U2,1*%
%TO.N,OE_SENS_N*%
X50150000Y-34075000D03*
%TO.P,U2,2*%
%TO.N,P_SCK0*%
X50150000Y-34725000D03*
%TO.P,U2,3*%
%TO.N,ADC_MOSI_BUF*%
X50150000Y-35375001D03*
%TO.P,U2,4*%
%TO.N,P_MOSI0*%
X50150000Y-36025001D03*
%TO.P,U2,5*%
%TO.N,ADC_SCK_BUF*%
X50150000Y-36675001D03*
%TO.P,U2,6*%
%TO.N,P_CS0*%
X50150000Y-37325000D03*
%TO.P,U2,7*%
%TO.N,CS3*%
X50150000Y-37975000D03*
%TO.P,U2,8*%
%TO.N,P_CS1*%
X50150000Y-38625000D03*
%TO.P,U2,9*%
%TO.N,CS2*%
X50150000Y-39275000D03*
%TO.P,U2,10*%
%TO.N,GND*%
X50150000Y-39925000D03*
%TO.P,U2,11*%
%TO.N,P_CS2*%
X55850000Y-39925000D03*
%TO.P,U2,12*%
%TO.N,CS1*%
X55850000Y-39275000D03*
%TO.P,U2,13*%
%TO.N,P_CS3*%
X55850000Y-38624999D03*
%TO.P,U2,14*%
%TO.N,CS0*%
X55850000Y-37974999D03*
%TO.P,U2,15*%
%TO.N,P_SCK1*%
X55850000Y-37324999D03*
%TO.P,U2,16*%
%TO.N,MOSI0_BUF*%
X55850000Y-36675000D03*
%TO.P,U2,17*%
%TO.N,P_MOSI1*%
X55850000Y-36025000D03*
%TO.P,U2,18*%
%TO.N,SCK0_BUF*%
X55850000Y-35375000D03*
%TO.P,U2,19*%
%TO.N,OE_SENS_N*%
X55850000Y-34725000D03*
%TO.P,U2,20*%
%TO.N,SENS_3V3*%
X55850000Y-34075000D03*
%TD*%
D10*
%TO.P,J2,1*%
%TO.N,SENS_3V3*%
X76000000Y-29000000D03*
D11*
%TO.P,J2,2*%
%TO.N,GND*%
X78000000Y-29000000D03*
%TO.P,J2,3*%
%TO.N,CS0*%
X80000000Y-29000000D03*
%TO.P,J2,4*%
%TO.N,SCK0*%
X82000000Y-29000000D03*
%TO.P,J2,5*%
%TO.N,MOSI0*%
X84000000Y-29000000D03*
%TO.P,J2,6*%
%TO.N,MISO0_RAW*%
X86000000Y-29000000D03*
%TD*%
D12*
%TO.P,R8,1*%
%TO.N,SENS_3V3*%
X39200000Y-79000000D03*
%TO.P,R8,2*%
%TO.N,ADC_CS3*%
X40800000Y-79000000D03*
%TD*%
D10*
%TO.P,J3,1*%
%TO.N,SENS_3V3*%
X76000000Y-40000000D03*
D11*
%TO.P,J3,2*%
%TO.N,GND*%
X78000000Y-40000000D03*
%TO.P,J3,3*%
%TO.N,CS1*%
X80000000Y-40000000D03*
%TO.P,J3,4*%
%TO.N,SCK0*%
X82000000Y-40000000D03*
%TO.P,J3,5*%
%TO.N,MOSI0*%
X84000000Y-40000000D03*
%TO.P,J3,6*%
%TO.N,MISO0_RAW*%
X86000000Y-40000000D03*
%TD*%
D12*
%TO.P,R13,1*%
%TO.N,MISO0_RAW*%
X52200000Y-115000000D03*
%TO.P,R13,2*%
%TO.N,GND*%
X53800000Y-115000000D03*
%TD*%
D18*
%TO.N,ADC_CS1*%
X54569400Y-67606600D03*
%TO.N,ADC_CS2*%
X53944600Y-70900700D03*
%TO.N,ADC_CS3*%
X54646100Y-71505200D03*
%TO.N,ADC_MOSI_BUF*%
X55851800Y-40678700D03*
X52455100Y-37379400D03*
%TO.N,ADC_SCK_BUF*%
X62249700Y-44776500D03*
X54077300Y-43131100D03*
%TO.N,CS0*%
X54595500Y-35266400D03*
X41747400Y-16220500D03*
%TO.N,CS1*%
X55210000Y-33191000D03*
X57225700Y-38250700D03*
%TO.N,CS2*%
X48239700Y-39300900D03*
%TO.N,CS3*%
X53306800Y-43954600D03*
%TO.N,GND*%
X62728300Y-68083400D03*
X57109000Y-68090800D03*
X45976500Y-38225400D03*
%TO.N,LIFT_STOWED_N*%
X34042100Y-103768900D03*
%TO.N,MISO0*%
X49016200Y-102766500D03*
%TO.N,MISO1*%
X39926900Y-69105900D03*
%TO.N,MISO1_RAW*%
X51719900Y-105156200D03*
%TO.N,MOSI0*%
X65729700Y-33479000D03*
%TO.N,OE_SENS_N*%
X54568300Y-64896900D03*
X37177100Y-65254100D03*
X48888800Y-65075000D03*
%TO.N,PICO_3V3*%
X56968300Y-81000000D03*
X38633300Y-77188800D03*
%TO.N,POWER_GOOD*%
X37796500Y-78736600D03*
%TO.N,P_ADC_CS0*%
X48468400Y-66418200D03*
%TO.N,P_ADC_CS1*%
X47235200Y-66925700D03*
%TO.N,P_ADC_CS2*%
X43637500Y-64643400D03*
%TO.N,P_ADC_CS3*%
X40690900Y-64105100D03*
%TO.N,P_CS0*%
X48888000Y-37282800D03*
%TO.N,P_CS1*%
X48856600Y-38749300D03*
%TO.N,P_CS2*%
X54216500Y-40789000D03*
%TO.N,P_CS3*%
X54548200Y-39226800D03*
%TO.N,P_MOSI0*%
X48879000Y-36047800D03*
%TO.N,P_MOSI1*%
X57106800Y-36063100D03*
X78957300Y-60273200D03*
%TO.N,P_SCK0*%
X48889600Y-33840400D03*
%TO.N,P_SCK1*%
X57875900Y-42848200D03*
%TO.N,SCK0*%
X65761300Y-28925500D03*
%TO.N,SENS_3V3*%
X60926900Y-67015900D03*
%TD*%
D19*
%TO.N,ADC_CS0*%
X55850000Y-66375000D02*
X56901900Y-66375000D01*
X58141600Y-83918500D02*
X58141600Y-67614700D01*
X41200000Y-52776900D02*
X54798100Y-66375000D01*
X55324100Y-66375000D02*
X54798100Y-66375000D01*
X82000000Y-96000000D02*
X81018200Y-95018200D01*
X55324100Y-66375000D02*
X55850000Y-66375000D01*
X78462500Y-96976900D02*
X71200000Y-96976900D01*
X79527900Y-95018200D02*
X79000000Y-95546100D01*
X79000000Y-95546100D02*
X79000000Y-96439400D01*
X71200000Y-96976900D02*
X58141600Y-83918500D01*
X81018200Y-95018200D02*
X79527900Y-95018200D01*
X40800000Y-52000000D02*
X40800000Y-52776900D01*
X40800000Y-52776900D02*
X41200000Y-52776900D01*
X58141600Y-67614700D02*
X56901900Y-66375000D01*
X79000000Y-96439400D02*
X78462500Y-96976900D01*
%TO.N,ADC_CS1*%
X55850000Y-67675000D02*
X54637800Y-67675000D01*
X54569400Y-67606600D02*
X47962800Y-61000000D01*
X47962800Y-61000000D02*
X40800000Y-61000000D01*
X54637800Y-67675000D02*
X54569400Y-67606600D01*
%TO.N,ADC_CS2*%
X55850000Y-68975000D02*
X54798100Y-68975000D01*
X40800000Y-70000000D02*
X41526900Y-70000000D01*
X53944600Y-70900700D02*
X53345800Y-71499500D01*
X53944600Y-69828500D02*
X53944600Y-70900700D01*
X54798100Y-68975000D02*
X53944600Y-69828500D01*
X43026400Y-71499500D02*
X41526900Y-70000000D01*
X53345800Y-71499500D02*
X43026400Y-71499500D01*
%TO.N,ADC_CS3*%
X47075900Y-79000000D02*
X54646100Y-71429800D01*
X55850000Y-70275000D02*
X54798100Y-70275000D01*
X54798100Y-70275000D02*
X54798100Y-71277800D01*
X54646100Y-71429800D02*
X54646100Y-71505200D01*
X40800000Y-79000000D02*
X47075900Y-79000000D01*
X54798100Y-71277800D02*
X54646100Y-71429800D01*
%TO.N,ADC_MOSI*%
X78000000Y-96000000D02*
X64800000Y-82800000D01*
X64800000Y-82800000D02*
X64800000Y-49000000D01*
%TO.N,ADC_MOSI_BUF*%
X51201900Y-35375000D02*
X52455100Y-36628200D01*
X55851800Y-42378700D02*
X55851800Y-40678700D01*
X63200000Y-49000000D02*
X62473100Y-49000000D01*
X50150000Y-35375000D02*
X51201900Y-35375000D01*
X62473100Y-49000000D02*
X55851800Y-42378700D01*
X52455100Y-36628200D02*
X52455100Y-37379400D01*
%TO.N,ADC_SCK*%
X76000000Y-96000000D02*
X64073100Y-84073100D01*
X64073100Y-84073100D02*
X64073100Y-45000000D01*
X64800000Y-45000000D02*
X64073100Y-45000000D01*
%TO.N,ADC_SCK_BUF*%
X62249700Y-44776600D02*
X62249700Y-44776500D01*
X63200000Y-45000000D02*
X62473100Y-45000000D01*
X51972100Y-41025900D02*
X54077300Y-43131100D01*
X51972100Y-37962700D02*
X51972100Y-41025900D01*
X50150000Y-36675000D02*
X51201900Y-36675000D01*
X51201900Y-36675000D02*
X51201900Y-37192500D01*
X51201900Y-37192500D02*
X51972100Y-37962700D01*
X62473100Y-45000000D02*
X62249700Y-44776600D01*
%TO.N,CS0*%
X40800000Y-16000000D02*
X41526900Y-16000000D01*
X55850000Y-37975000D02*
X54798100Y-37975000D01*
X41747400Y-16220500D02*
X41526900Y-16000000D01*
X54798100Y-35469000D02*
X54595500Y-35266400D01*
X54798100Y-37975000D02*
X54798100Y-35469000D01*
%TO.N,CS1*%
X56901900Y-39275000D02*
X56901900Y-38574500D01*
X47019000Y-25000000D02*
X55210000Y-33191000D01*
X55850000Y-39275000D02*
X56901900Y-39275000D01*
X40800000Y-25000000D02*
X47019000Y-25000000D01*
X56901900Y-38574500D02*
X57225700Y-38250700D01*
%TO.N,CS2*%
X48337800Y-39399000D02*
X48239700Y-39300900D01*
X49059100Y-39399000D02*
X48337800Y-39399000D01*
X50150000Y-39275000D02*
X49183100Y-39275000D01*
X49183100Y-39275000D02*
X49059100Y-39399000D01*
X42938800Y-34000000D02*
X48239700Y-39300900D01*
X40800000Y-34000000D02*
X42938800Y-34000000D01*
%TO.N,CS3*%
X51201900Y-37975000D02*
X51201900Y-42766100D01*
X51201900Y-42766100D02*
X52118300Y-42766100D01*
X40800000Y-43000000D02*
X50968000Y-43000000D01*
X50150000Y-37975000D02*
X51201900Y-37975000D01*
X52118300Y-42766100D02*
X53306800Y-43954600D01*
X50968000Y-43000000D02*
X51201900Y-42766100D01*
%TO.N,GND*%
X72359600Y-124663500D02*
X64800000Y-124663500D01*
X62526900Y-37000000D02*
X73358100Y-47831200D01*
X48401000Y-101037100D02*
X48401000Y-103152900D01*
X45976500Y-38225400D02*
X47676100Y-39925000D01*
X34062400Y-49177600D02*
X34062400Y-38822400D01*
X60136500Y-120000000D02*
X64800000Y-124663500D01*
X56376000Y-70925000D02*
X51351900Y-75949100D01*
X31674100Y-26165900D02*
X16325900Y-26165900D01*
X78000000Y-63953800D02*
X77023100Y-62976900D01*
X56901900Y-68194400D02*
X57005500Y-68090800D01*
X57005500Y-67128600D02*
X56901900Y-67025000D01*
X55700000Y-106540000D02*
X54648100Y-106540000D01*
X53801900Y-68325000D02*
X55850000Y-68325000D01*
X55700000Y-102730000D02*
X54648100Y-102730000D01*
X50300000Y-100190000D02*
X51351900Y-100190000D01*
X55850000Y-69625000D02*
X56901900Y-69625000D01*
X51131500Y-105873600D02*
X51351900Y-106094000D01*
X49369500Y-105873600D02*
X51131500Y-105873600D01*
X51351900Y-106965400D02*
X50507300Y-107810000D01*
X55850000Y-70925000D02*
X56376000Y-70925000D01*
X55850000Y-67025000D02*
X56901900Y-67025000D01*
X16263800Y-61896200D02*
X15110000Y-63050000D01*
X49774100Y-107810000D02*
X49248100Y-107810000D01*
X56901900Y-68325000D02*
X56901900Y-68194400D01*
X54648100Y-102730000D02*
X54648100Y-106540000D01*
X58987400Y-106540000D02*
X61073100Y-104454300D01*
X47676100Y-39925000D02*
X49098100Y-39925000D01*
X48401000Y-103152900D02*
X49248100Y-104000000D01*
X88800000Y-17000000D02*
X88073100Y-17000000D01*
X78000000Y-62000000D02*
X78000000Y-51000000D01*
X61800000Y-68000000D02*
X62526900Y-68000000D01*
X50507300Y-107810000D02*
X50300000Y-107810000D01*
X15110000Y-63050000D02*
X17000000Y-64940000D01*
X81000000Y-17802400D02*
X87725000Y-17802400D01*
X74000000Y-124000000D02*
X73023100Y-124000000D01*
X16325900Y-26165900D02*
X15110000Y-24950000D01*
X81000000Y-17802400D02*
X81000000Y-12000000D01*
X50150000Y-70925000D02*
X51201900Y-70925000D01*
X31674100Y-36434100D02*
X31674100Y-26165900D01*
X41853500Y-115204600D02*
X24956500Y-115204600D01*
X78000000Y-40000000D02*
X78000000Y-29000000D01*
X57109000Y-68090800D02*
X57005500Y-68090800D01*
X53800000Y-115000000D02*
X53800000Y-120000000D01*
X73358100Y-61168300D02*
X75166700Y-62976900D01*
X16325900Y-36434100D02*
X15110000Y-37650000D01*
X88073100Y-17454300D02*
X88073100Y-17000000D01*
X57005500Y-68090800D02*
X57005500Y-67128600D01*
X62526900Y-68000000D02*
X62644900Y-68000000D01*
X51351900Y-106094000D02*
X51351900Y-106965400D01*
X32890000Y-63050000D02*
X31724600Y-61884600D01*
X31724600Y-51515400D02*
X32890000Y-50350000D01*
X54648100Y-102730000D02*
X53891900Y-102730000D01*
X56901900Y-69625000D02*
X56901900Y-70925000D01*
X31724600Y-61884600D02*
X31724600Y-51515400D01*
X15110000Y-50350000D02*
X16263800Y-51503800D01*
X61800000Y-104000000D02*
X61073100Y-104000000D01*
X61800000Y-37000000D02*
X62526900Y-37000000D01*
X49249600Y-104000000D02*
X49248100Y-104000000D01*
X64800000Y-125000000D02*
X64800000Y-124663500D01*
X56901900Y-68325000D02*
X56901900Y-69625000D01*
X54648100Y-114878800D02*
X54526900Y-115000000D01*
X23900000Y-114950000D02*
X20576900Y-114950000D01*
X49248100Y-107810000D02*
X41853500Y-115204600D01*
X32890000Y-50350000D02*
X34062400Y-49177600D01*
X34062400Y-38822400D02*
X32890000Y-37650000D01*
X51201900Y-70925000D02*
X53801900Y-68325000D01*
X51351900Y-75949100D02*
X51351900Y-100190000D01*
X50300000Y-104000000D02*
X49349000Y-104000000D01*
X19163500Y-116000000D02*
X18800000Y-116000000D01*
X53800000Y-115000000D02*
X54526900Y-115000000D01*
X78000000Y-81000000D02*
X78000000Y-63953800D01*
X16263800Y-51503800D02*
X16263800Y-61896200D01*
X55700000Y-106540000D02*
X58987400Y-106540000D01*
X50150000Y-39925000D02*
X49098100Y-39925000D01*
X49249600Y-104000000D02*
X49248100Y-104001500D01*
X16325900Y-26165900D02*
X16325900Y-36434100D01*
X53800000Y-120000000D02*
X60136500Y-120000000D01*
X49248100Y-105752200D02*
X49369500Y-105873600D01*
X49248100Y-100190000D02*
X48401000Y-101037100D01*
X55850000Y-68325000D02*
X56901900Y-68325000D01*
X78000000Y-51000000D02*
X78000000Y-40000000D01*
X49248100Y-104001500D02*
X49248100Y-105752200D01*
X73358100Y-47831200D02*
X73358100Y-61168300D01*
X61073100Y-104454300D02*
X61073100Y-104000000D01*
X81000000Y-26000000D02*
X81000000Y-17802400D01*
X73023100Y-124000000D02*
X72359600Y-124663500D01*
X19163500Y-116000000D02*
X19526900Y-116000000D01*
X24956500Y-115204600D02*
X24701900Y-114950000D01*
X17000000Y-64940000D02*
X17000000Y-83000000D01*
X62644900Y-68000000D02*
X62728300Y-68083400D01*
X56376000Y-70925000D02*
X56901900Y-70925000D01*
X32890000Y-37650000D02*
X31674100Y-36434100D01*
X78000000Y-29000000D02*
X81000000Y-26000000D01*
X31674100Y-26165900D02*
X32890000Y-24950000D01*
X49774100Y-107810000D02*
X50300000Y-107810000D01*
X54648100Y-106540000D02*
X54648100Y-114878800D01*
X75166700Y-62976900D02*
X77023100Y-62976900D01*
X20576900Y-114950000D02*
X19526900Y-116000000D01*
X49349000Y-104000000D02*
X49249600Y-104000000D01*
X87725000Y-17802400D02*
X88073100Y-17454300D01*
X53891900Y-102730000D02*
X51351900Y-100190000D01*
X50300000Y-100190000D02*
X49248100Y-100190000D01*
X23900000Y-114950000D02*
X24701900Y-114950000D01*
X77023100Y-62976900D02*
X78000000Y-62000000D01*
%TO.N,LIFT_STOWED_N*%
X34042100Y-56582100D02*
X32890000Y-55430000D01*
X34042100Y-103768900D02*
X34042100Y-56582100D01*
%TO.N,MISO0*%
X50300000Y-102730000D02*
X49248100Y-102730000D01*
X49211600Y-102766500D02*
X49248100Y-102730000D01*
X49016200Y-102766500D02*
X49211600Y-102766500D01*
%TO.N,MISO0_RAW*%
X52364000Y-102472100D02*
X52364000Y-114059100D01*
X51351900Y-101460000D02*
X52364000Y-102472100D01*
X52200000Y-115000000D02*
X52200000Y-114223100D01*
X50300000Y-101460000D02*
X51351900Y-101460000D01*
X86000000Y-51000000D02*
X86000000Y-62000000D01*
X86000000Y-29000000D02*
X86000000Y-40000000D01*
X85000000Y-120419000D02*
X79194700Y-126224300D01*
X58690500Y-126224300D02*
X52926900Y-120460700D01*
X52200000Y-115000000D02*
X52926900Y-115000000D01*
X86000000Y-62000000D02*
X85000000Y-63000000D01*
X79194700Y-126224300D02*
X58690500Y-126224300D01*
X86000000Y-40000000D02*
X86000000Y-51000000D01*
X52364000Y-114059100D02*
X52200000Y-114223100D01*
X85000000Y-63000000D02*
X85000000Y-120419000D01*
X52926900Y-120460700D02*
X52926900Y-115000000D01*
%TO.N,MISO1*%
X39926900Y-69105900D02*
X39926900Y-97218800D01*
X39926900Y-97218800D02*
X49248100Y-106540000D01*
X50300000Y-106540000D02*
X49248100Y-106540000D01*
%TO.N,MISO1_RAW*%
X52200000Y-120000000D02*
X51473100Y-120000000D01*
X50300000Y-105270000D02*
X51351900Y-105270000D01*
X51798100Y-105595000D02*
X51798100Y-107183600D01*
X83000000Y-82000000D02*
X84000000Y-81000000D01*
X51798100Y-107183600D02*
X51473100Y-107508600D01*
X51351900Y-105270000D02*
X51473100Y-105270000D01*
X51473100Y-107508600D02*
X51473100Y-120000000D01*
X80998100Y-96998100D02*
X82410900Y-96998100D01*
X80000000Y-96000000D02*
X80998100Y-96998100D01*
X51719900Y-105156200D02*
X51539600Y-105336500D01*
X51539600Y-105336500D02*
X51798100Y-105595000D01*
X51473100Y-105270000D02*
X51539600Y-105336500D01*
X83000000Y-96409000D02*
X83000000Y-82000000D01*
X82410900Y-96998100D02*
X83000000Y-96409000D01*
%TO.N,MOSI0*%
X65729700Y-33479000D02*
X65526900Y-33276200D01*
X84000000Y-40000000D02*
X84000000Y-51000000D01*
X64800000Y-33000000D02*
X65526900Y-33000000D01*
X84000000Y-51000000D02*
X84000000Y-62000000D01*
X65526900Y-33276200D02*
X65526900Y-33000000D01*
%TO.N,MOSI0_BUF*%
X61175000Y-33000000D02*
X63200000Y-33000000D01*
X57500000Y-36675000D02*
X61175000Y-33000000D01*
X55850000Y-36675000D02*
X57500000Y-36675000D01*
%TO.N,ODO_A*%
X15481400Y-41460000D02*
X19000000Y-44978600D01*
X15110000Y-19870000D02*
X15110000Y-21021900D01*
X14702500Y-41460000D02*
X15481400Y-41460000D01*
X13491900Y-40249400D02*
X14702500Y-41460000D01*
X19000000Y-44978600D02*
X19000000Y-83000000D01*
X14822000Y-21021900D02*
X13491900Y-22352000D01*
X15110000Y-21021900D02*
X14822000Y-21021900D01*
X13491900Y-22352000D02*
X13491900Y-40249400D01*
%TO.N,ODO_B*%
X21000000Y-44436000D02*
X21000000Y-83000000D01*
X13926700Y-38128200D02*
X14718500Y-38920000D01*
X13926700Y-23593300D02*
X13926700Y-38128200D01*
X15110000Y-22410000D02*
X13926700Y-23593300D01*
X15484000Y-38920000D02*
X21000000Y-44436000D01*
X14718500Y-38920000D02*
X15484000Y-38920000D01*
%TO.N,OE_SENS_N*%
X30473100Y-111452000D02*
X30473100Y-114000000D01*
X30649900Y-114776900D02*
X32023100Y-114776900D01*
X54361800Y-34632300D02*
X53613100Y-35381000D01*
X54683200Y-42581200D02*
X54683200Y-64896900D01*
X54683200Y-64896900D02*
X54798100Y-65011800D01*
X52307100Y-34075000D02*
X53613100Y-35381000D01*
X53613100Y-35381000D02*
X53613100Y-41511100D01*
X54568300Y-64896900D02*
X54683200Y-64896900D01*
X55850000Y-65725000D02*
X54798100Y-65725000D01*
X50150000Y-65075000D02*
X49098100Y-65075000D01*
X55850000Y-34725000D02*
X55757300Y-34632300D01*
X37177100Y-65254100D02*
X37177100Y-104748000D01*
X26100000Y-114000000D02*
X30473100Y-114000000D01*
X54798100Y-65011800D02*
X54798100Y-65725000D01*
X55757300Y-34632300D02*
X54361800Y-34632300D01*
X30473100Y-114000000D02*
X30473100Y-114600100D01*
X32023100Y-114776900D02*
X32800000Y-114000000D01*
X37177100Y-104748000D02*
X30473100Y-111452000D01*
X50150000Y-34075000D02*
X52307100Y-34075000D01*
X53613100Y-41511100D02*
X54683200Y-42581200D01*
X30473100Y-114600100D02*
X30649900Y-114776900D01*
X49098100Y-65075000D02*
X48888800Y-65075000D01*
%TO.N,PICO_3V3*%
X55700000Y-105270000D02*
X56751900Y-105270000D01*
X57244000Y-104000000D02*
X57244000Y-104777900D01*
X55700000Y-100190000D02*
X56226000Y-100190000D01*
X56751900Y-101460000D02*
X57244000Y-101952100D01*
X56226000Y-100190000D02*
X56751900Y-100190000D01*
X60200000Y-104000000D02*
X59473100Y-104000000D01*
X57244000Y-104777900D02*
X56751900Y-105270000D01*
X80000000Y-120859600D02*
X62363400Y-103223000D01*
X56226000Y-81742300D02*
X56968300Y-81000000D01*
X57244000Y-101952100D02*
X57244000Y-104000000D01*
X62363400Y-103223000D02*
X60977000Y-103223000D01*
X56226000Y-100190000D02*
X56226000Y-81742300D01*
X56751900Y-100190000D02*
X56751900Y-101460000D01*
X80000000Y-124000000D02*
X80000000Y-120859600D01*
X38473100Y-35613100D02*
X32890000Y-30030000D01*
X38633300Y-77188800D02*
X38473100Y-77028600D01*
X38473100Y-77028600D02*
X38473100Y-35613100D01*
X60977000Y-103223000D02*
X60200000Y-104000000D01*
X55700000Y-101460000D02*
X56751900Y-101460000D01*
X59473100Y-104000000D02*
X57244000Y-104000000D01*
%TO.N,POWER_GOOD*%
X78000000Y-124000000D02*
X76223100Y-125776900D01*
X63200000Y-125000000D02*
X63926900Y-125000000D01*
X64249500Y-125776900D02*
X63926900Y-125454300D01*
X63926900Y-125454300D02*
X63926900Y-125000000D01*
X37796500Y-78736600D02*
X37796500Y-57796500D01*
X37796500Y-57796500D02*
X32890000Y-52890000D01*
X76223100Y-125776900D02*
X64249500Y-125776900D01*
%TO.N,P_ADC_CS0*%
X48468400Y-66418200D02*
X49098100Y-65788500D01*
X50150000Y-65725000D02*
X49098100Y-65725000D01*
X49098100Y-65788500D02*
X49098100Y-65725000D01*
%TO.N,P_ADC_CS1*%
X47334500Y-67025000D02*
X47235200Y-66925700D01*
X50150000Y-67025000D02*
X47334500Y-67025000D01*
%TO.N,P_ADC_CS2*%
X47319100Y-68325000D02*
X43637500Y-64643400D01*
X50150000Y-68325000D02*
X47319100Y-68325000D01*
%TO.N,P_ADC_CS3*%
X46210800Y-69625000D02*
X40690900Y-64105100D01*
X50150000Y-69625000D02*
X46210800Y-69625000D01*
%TO.N,P_CS0*%
X49055900Y-37282800D02*
X49098100Y-37325000D01*
X48888000Y-37282800D02*
X49055900Y-37282800D01*
X50150000Y-37325000D02*
X49098100Y-37325000D01*
%TO.N,P_CS1*%
X50150000Y-38625000D02*
X49098100Y-38625000D01*
X49098100Y-38625000D02*
X48973800Y-38749300D01*
X48973800Y-38749300D02*
X48856600Y-38749300D01*
%TO.N,P_CS2*%
X55850000Y-39925000D02*
X54798100Y-39925000D01*
X54798100Y-40207400D02*
X54216500Y-40789000D01*
X54798100Y-39925000D02*
X54798100Y-40207400D01*
%TO.N,P_CS3*%
X55850000Y-38625000D02*
X54798100Y-38625000D01*
X54548200Y-38874900D02*
X54548200Y-39226800D01*
X54798100Y-38625000D02*
X54548200Y-38874900D01*
%TO.N,P_MOSI0*%
X48879000Y-36047800D02*
X49075300Y-36047800D01*
X50150000Y-36025000D02*
X49098100Y-36025000D01*
X49075300Y-36047800D02*
X49098100Y-36025000D01*
%TO.N,P_MOSI1*%
X55850000Y-36025000D02*
X57068700Y-36025000D01*
X57068700Y-36025000D02*
X57106800Y-36063100D01*
X79000000Y-78000000D02*
X82000000Y-81000000D01*
X79000000Y-60315900D02*
X79000000Y-78000000D01*
X78957300Y-60273200D02*
X79000000Y-60315900D01*
%TO.N,P_SCK0*%
X50150000Y-34725000D02*
X49098100Y-34725000D01*
X49098100Y-34048900D02*
X48889600Y-33840400D01*
X49098100Y-34725000D02*
X49098100Y-34048900D01*
%TO.N,P_SCK1*%
X57875900Y-38049700D02*
X57151200Y-37325000D01*
X76999900Y-81437400D02*
X77547800Y-81985300D01*
X77547800Y-81985300D02*
X79014700Y-81985300D01*
X76999900Y-79656700D02*
X76999900Y-81437400D01*
X57151200Y-37325000D02*
X56901900Y-37325000D01*
X70042000Y-72698800D02*
X76999900Y-79656700D01*
X64003900Y-42848200D02*
X70042000Y-48886300D01*
X57875900Y-42848200D02*
X57875900Y-38049700D01*
X70042000Y-48886300D02*
X70042000Y-72698800D01*
X55850000Y-37325000D02*
X56901900Y-37325000D01*
X57875900Y-42848200D02*
X64003900Y-42848200D01*
X79014700Y-81985300D02*
X80000000Y-81000000D01*
%TO.N,Q_BASE*%
X18800000Y-110000000D02*
X19526900Y-110000000D01*
X23900000Y-113050000D02*
X22576900Y-113050000D01*
X22576900Y-113050000D02*
X21056200Y-111529300D01*
X21056200Y-111529300D02*
X19526900Y-110000000D01*
X21056200Y-111529300D02*
X17362400Y-115223100D01*
X17200000Y-116000000D02*
X17200000Y-115223100D01*
X17362400Y-115223100D02*
X17200000Y-115223100D01*
%TO.N,SCK0*%
X64800000Y-29000000D02*
X65526900Y-29000000D01*
X82000000Y-51000000D02*
X82000000Y-62000000D01*
X82000000Y-40000000D02*
X82000000Y-51000000D01*
X65761300Y-28925500D02*
X65601400Y-28925500D01*
X65601400Y-28925500D02*
X65526900Y-29000000D01*
X82000000Y-29000000D02*
X82000000Y-40000000D01*
%TO.N,SCK0_BUF*%
X56901900Y-34571200D02*
X62473100Y-29000000D01*
X63200000Y-29000000D02*
X62473100Y-29000000D01*
X56901900Y-35375000D02*
X56901900Y-34571200D01*
X55850000Y-35375000D02*
X56901900Y-35375000D01*
%TO.N,SENSOR_ENABLE*%
X17200000Y-110000000D02*
X17926900Y-110000000D01*
X30932900Y-49767100D02*
X30932900Y-96267100D01*
X32890000Y-47810000D02*
X30932900Y-49767100D01*
X17926900Y-109273100D02*
X17926900Y-110000000D01*
X30932900Y-96267100D02*
X17926900Y-109273100D01*
%TO.N,SENS_3V3*%
X55850000Y-34075000D02*
X54798100Y-34075000D01*
X76000000Y-28223100D02*
X64191800Y-28223100D01*
X60200000Y-68373100D02*
X60200000Y-68000000D01*
X39262000Y-78161100D02*
X39200000Y-78223100D01*
X79000000Y-12000000D02*
X79976900Y-12000000D01*
X60378900Y-68552000D02*
X56901900Y-65075000D01*
X76000000Y-40000000D02*
X76000000Y-29000000D01*
X76000000Y-28224400D02*
X76000000Y-28223100D01*
X39200000Y-34000000D02*
X39926900Y-34000000D01*
X39200000Y-52000000D02*
X39200000Y-61000000D01*
X87200000Y-17000000D02*
X87200000Y-16223100D01*
X39200000Y-70000000D02*
X39200000Y-70776900D01*
X60378900Y-83402000D02*
X60378900Y-68552000D01*
X39200000Y-43000000D02*
X39200000Y-34000000D01*
X72000000Y-96000000D02*
X72000000Y-95023100D01*
X39200000Y-79000000D02*
X39200000Y-106000000D01*
X76000000Y-29000000D02*
X76000000Y-28224400D01*
X31200000Y-114000000D02*
X31926900Y-114000000D01*
X76000000Y-51000000D02*
X76000000Y-62000000D01*
X39262000Y-70838900D02*
X39262000Y-78161100D01*
X40249500Y-33223100D02*
X39926900Y-33545700D01*
X61701900Y-28223100D02*
X63808200Y-28223100D01*
X39926900Y-33545700D02*
X39926900Y-34000000D01*
X60926900Y-36545700D02*
X60926900Y-37000000D01*
X39200000Y-52000000D02*
X39200000Y-43000000D01*
X76000000Y-28223100D02*
X76000000Y-15976900D01*
X60926900Y-68000000D02*
X60926900Y-67015900D01*
X55850000Y-34075000D02*
X61701900Y-28223100D01*
X76000000Y-51000000D02*
X76000000Y-40000000D01*
X81956200Y-10979300D02*
X87200000Y-16223100D01*
X63808200Y-28223100D02*
X64000000Y-28414900D01*
X39200000Y-61000000D02*
X39200000Y-70000000D01*
X72000000Y-95023100D02*
X60378900Y-83402000D01*
X60200000Y-68000000D02*
X60926900Y-68000000D01*
X61285000Y-36187600D02*
X60926900Y-36545700D01*
X31926900Y-113273100D02*
X31926900Y-114000000D01*
X53946200Y-33223100D02*
X40249500Y-33223100D01*
X39200000Y-79000000D02*
X39200000Y-78223100D01*
X39200000Y-70776900D02*
X39262000Y-70838900D01*
X64000000Y-28414900D02*
X64000000Y-33557600D01*
X64000000Y-33557600D02*
X61370000Y-36187600D01*
X40249500Y-33223100D02*
X39200000Y-32173600D01*
X55850000Y-65075000D02*
X56901900Y-65075000D01*
X60200000Y-37000000D02*
X60926900Y-37000000D01*
X79976900Y-12000000D02*
X79976900Y-11633700D01*
X76000000Y-15976900D02*
X79000000Y-12976900D01*
X39200000Y-32173600D02*
X39200000Y-25000000D01*
X80631300Y-10979300D02*
X81956200Y-10979300D01*
X61370000Y-36187600D02*
X61285000Y-36187600D01*
X54798100Y-34075000D02*
X53946200Y-33223100D01*
X64191800Y-28223100D02*
X64000000Y-28414900D01*
X39200000Y-106000000D02*
X31926900Y-113273100D01*
X79976900Y-11633700D02*
X80631300Y-10979300D01*
X60378900Y-68552000D02*
X60200000Y-68373100D01*
X79000000Y-12000000D02*
X79000000Y-12976900D01*
X39200000Y-16000000D02*
X39200000Y-25000000D01*
%TD*%
M02*
