%TF.GenerationSoftware,KiCad,Pcbnew,9.0.9-9.0.9~ubuntu24.04.1*%
%TF.CreationDate,2026-10-04T13:56:15+00:00*%
%TF.ProjectId,carrier_r2,63617272-6965-4725-9f72-322e6b696361,rev?*%
%TF.SameCoordinates,Original*%
%TF.FileFunction,Copper,L2,Bot*%
%TF.FilePolarity,Positive*%
%FSLAX46Y46*%
G04 Gerber Fmt 4.6, Leading zero omitted, Abs format (unit mm)*
G04 Created by KiCad (PCBNEW 9.0.9-9.0.9~ubuntu24.04.1) date 2026-10-04 13:56:15*
%MOMM*%
%LPD*%
G01*
G04 APERTURE LIST*
%TA.AperFunction,ComponentPad*%
%ADD10R,1.350000X1.350000*%
%TD*%
%TA.AperFunction,ComponentPad*%
%ADD11C,1.350000*%
%TD*%
%TA.AperFunction,ComponentPad*%
%ADD12R,1.700000X1.700000*%
%TD*%
%TA.AperFunction,ComponentPad*%
%ADD13C,1.700000*%
%TD*%
%TA.AperFunction,ViaPad*%
%ADD14C,0.600000*%
%TD*%
%TA.AperFunction,Conductor*%
%ADD15C,0.200000*%
%TD*%
G04 APERTURE END LIST*
D10*
%TO.P,J7,1*%
%TO.N,PICO_3V3*%
X15000000Y-83000000D03*
D11*
%TO.P,J7,2*%
%TO.N,GND*%
X17000000Y-83000000D03*
%TO.P,J7,3*%
%TO.N,ODO_A*%
X19000000Y-83000000D03*
%TO.P,J7,4*%
%TO.N,ODO_B*%
X21000000Y-83000000D03*
%TD*%
D10*
%TO.P,J1,1*%
%TO.N,SENS_3V3*%
X79000000Y-12000000D03*
D11*
%TO.P,J1,2*%
%TO.N,GND*%
X81000000Y-12000000D03*
%TD*%
D10*
%TO.P,J5,1*%
%TO.N,SENS_3V3*%
X76000000Y-62000000D03*
D11*
%TO.P,J5,2*%
%TO.N,GND*%
X78000000Y-62000000D03*
%TO.P,J5,3*%
%TO.N,CS3*%
X80000000Y-62000000D03*
%TO.P,J5,4*%
%TO.N,SCK0*%
X82000000Y-62000000D03*
%TO.P,J5,5*%
%TO.N,MOSI0*%
X84000000Y-62000000D03*
%TO.P,J5,6*%
%TO.N,MISO0_RAW*%
X86000000Y-62000000D03*
%TD*%
D10*
%TO.P,J6,1*%
%TO.N,PICO_3V3*%
X76000000Y-81000000D03*
D11*
%TO.P,J6,2*%
%TO.N,GND*%
X78000000Y-81000000D03*
%TO.P,J6,3*%
%TO.N,P_SCK1*%
X80000000Y-81000000D03*
%TO.P,J6,4*%
%TO.N,P_MOSI1*%
X82000000Y-81000000D03*
%TO.P,J6,5*%
%TO.N,MISO1_RAW*%
X84000000Y-81000000D03*
%TO.P,J6,6*%
%TO.N,CS_ADXL*%
X86000000Y-81000000D03*
%TO.P,J6,7*%
%TO.N,DRDY_ADXL*%
X88000000Y-81000000D03*
%TD*%
D12*
%TO.P,U1,1*%
%TO.N,ODO_A*%
X15110000Y-19870000D03*
D13*
%TO.P,U1,2*%
%TO.N,ODO_B*%
X15110000Y-22410000D03*
%TO.P,U1,3*%
%TO.N,GND*%
X15110000Y-24950001D03*
%TO.P,U1,4*%
%TO.N,P_SCK0*%
X15110000Y-27490001D03*
%TO.P,U1,5*%
%TO.N,P_MOSI0*%
X15110000Y-30030001D03*
%TO.P,U1,6*%
%TO.N,MISO0*%
X15110000Y-32570000D03*
%TO.P,U1,7*%
%TO.N,P_CS0*%
X15110000Y-35110001D03*
%TO.P,U1,8*%
%TO.N,GND*%
X15110000Y-37650001D03*
%TO.P,U1,9*%
%TO.N,P_CS1*%
X15110000Y-40190001D03*
%TO.P,U1,10*%
%TO.N,P_CS2*%
X15110000Y-42730001D03*
%TO.P,U1,11*%
%TO.N,P_CS3*%
X15110000Y-45269999D03*
%TO.P,U1,12*%
%TO.N,N/C*%
X15110000Y-47810000D03*
%TO.P,U1,13*%
%TO.N,GND*%
X15110000Y-50350000D03*
%TO.P,U1,14*%
%TO.N,P_SCK1*%
X15110000Y-52890000D03*
%TO.P,U1,15*%
%TO.N,P_MOSI1*%
X15110000Y-55430000D03*
%TO.P,U1,16*%
%TO.N,MISO1*%
X15110000Y-57970000D03*
%TO.P,U1,17*%
%TO.N,CS_ADXL*%
X15110000Y-60510000D03*
%TO.P,U1,18*%
%TO.N,GND*%
X15110000Y-63050000D03*
%TO.P,U1,19*%
%TO.N,DRDY_ADXL*%
X15110000Y-65590000D03*
%TO.P,U1,20*%
%TO.N,N/C*%
X15110000Y-68130000D03*
%TO.P,U1,21*%
%TO.N,P_ADC_CS0*%
X32890000Y-68130000D03*
%TO.P,U1,22*%
%TO.N,P_ADC_CS1*%
X32890000Y-65590000D03*
%TO.P,U1,23*%
%TO.N,GND*%
X32890000Y-63049999D03*
%TO.P,U1,24*%
%TO.N,P_ADC_CS2*%
X32890000Y-60509999D03*
%TO.P,U1,25*%
%TO.N,P_ADC_CS3*%
X32890000Y-57969999D03*
%TO.P,U1,26*%
%TO.N,LIFT_STOWED_N*%
X32890000Y-55430000D03*
%TO.P,U1,27*%
%TO.N,POWER_GOOD*%
X32890000Y-52889999D03*
%TO.P,U1,28*%
%TO.N,GND*%
X32890000Y-50349999D03*
%TO.P,U1,29*%
%TO.N,SENSOR_ENABLE*%
X32890000Y-47809999D03*
%TO.P,U1,30*%
%TO.N,N/C*%
X32890000Y-45269999D03*
%TO.P,U1,31*%
X32890000Y-42730001D03*
%TO.P,U1,32*%
X32890000Y-40190000D03*
%TO.P,U1,33*%
%TO.N,GND*%
X32890000Y-37650000D03*
%TO.P,U1,34*%
%TO.N,N/C*%
X32890000Y-35110000D03*
%TO.P,U1,35*%
X32890000Y-32570000D03*
%TO.P,U1,36*%
%TO.N,PICO_3V3*%
X32890000Y-30030000D03*
%TO.P,U1,37*%
%TO.N,N/C*%
X32890000Y-27490000D03*
%TO.P,U1,38*%
%TO.N,GND*%
X32890000Y-24950000D03*
%TO.P,U1,39*%
%TO.N,N/C*%
X32890000Y-22410000D03*
%TO.P,U1,40*%
X32890000Y-19870000D03*
%TD*%
D10*
%TO.P,J4,1*%
%TO.N,SENS_3V3*%
X76000000Y-51000000D03*
D11*
%TO.P,J4,2*%
%TO.N,GND*%
X78000000Y-51000000D03*
%TO.P,J4,3*%
%TO.N,CS2*%
X80000000Y-51000000D03*
%TO.P,J4,4*%
%TO.N,SCK0*%
X82000000Y-51000000D03*
%TO.P,J4,5*%
%TO.N,MOSI0*%
X84000000Y-51000000D03*
%TO.P,J4,6*%
%TO.N,MISO0_RAW*%
X86000000Y-51000000D03*
%TD*%
D10*
%TO.P,J2,1*%
%TO.N,SENS_3V3*%
X76000000Y-29000000D03*
D11*
%TO.P,J2,2*%
%TO.N,GND*%
X78000000Y-29000000D03*
%TO.P,J2,3*%
%TO.N,CS0*%
X80000000Y-29000000D03*
%TO.P,J2,4*%
%TO.N,SCK0*%
X82000000Y-29000000D03*
%TO.P,J2,5*%
%TO.N,MOSI0*%
X84000000Y-29000000D03*
%TO.P,J2,6*%
%TO.N,MISO0_RAW*%
X86000000Y-29000000D03*
%TD*%
D10*
%TO.P,J3,1*%
%TO.N,SENS_3V3*%
X76000000Y-40000000D03*
D11*
%TO.P,J3,2*%
%TO.N,GND*%
X78000000Y-40000000D03*
%TO.P,J3,3*%
%TO.N,CS1*%
X80000000Y-40000000D03*
%TO.P,J3,4*%
%TO.N,SCK0*%
X82000000Y-40000000D03*
%TO.P,J3,5*%
%TO.N,MOSI0*%
X84000000Y-40000000D03*
%TO.P,J3,6*%
%TO.N,MISO0_RAW*%
X86000000Y-40000000D03*
%TD*%
D10*
%TO.P,J9,1*%
%TO.N,GND*%
X74000000Y-124000000D03*
D11*
%TO.P,J9,2*%
%TO.N,LIFT_STOWED_N*%
X76000000Y-124000000D03*
%TO.P,J9,3*%
%TO.N,POWER_GOOD*%
X78000000Y-124000000D03*
%TO.P,J9,4*%
%TO.N,PICO_3V3*%
X80000000Y-124000000D03*
%TD*%
D10*
%TO.P,J8,1*%
%TO.N,SENS_3V3*%
X72000000Y-96000000D03*
D11*
%TO.P,J8,2*%
%TO.N,GND*%
X74000000Y-96000000D03*
%TO.P,J8,3*%
%TO.N,ADC_SCK*%
X76000000Y-96000000D03*
%TO.P,J8,4*%
%TO.N,ADC_MOSI*%
X78000000Y-96000000D03*
%TO.P,J8,5*%
%TO.N,MISO1_RAW*%
X80000000Y-96000000D03*
%TO.P,J8,6*%
%TO.N,ADC_CS0*%
X82000000Y-96000000D03*
%TO.P,J8,7*%
%TO.N,ADC_CS1*%
X84000000Y-96000000D03*
%TO.P,J8,8*%
%TO.N,ADC_CS2*%
X86000000Y-96000000D03*
%TO.P,J8,9*%
%TO.N,ADC_CS3*%
X88000000Y-96000000D03*
%TO.P,J8,10*%
%TO.N,GND*%
X90000000Y-96000000D03*
%TD*%
D14*
%TO.N,ADC_CS0*%
X78233000Y-98040800D03*
%TO.N,ADC_CS1*%
X41736900Y-61208400D03*
X62236300Y-88095600D03*
X57248400Y-67675000D03*
%TO.N,ADC_CS2*%
X83275800Y-86877100D03*
X57122400Y-68975000D03*
X42665800Y-69417800D03*
%TO.N,ADC_CS3*%
X55644100Y-93422100D03*
%TO.N,ADC_MOSI_BUF*%
X57356200Y-40605200D03*
X52586400Y-37767900D03*
%TO.N,ADC_SCK_BUF*%
X58549400Y-40595600D03*
X51453200Y-37112300D03*
%TO.N,CS0*%
X40800000Y-16979000D03*
X57112900Y-37938300D03*
%TO.N,CS1*%
X41749600Y-25222700D03*
X57129000Y-38815200D03*
%TO.N,CS2*%
X51438500Y-39013400D03*
%TO.N,CS3*%
X51410600Y-37976100D03*
%TO.N,GND*%
X48894900Y-39925000D03*
%TO.N,LIFT_STOWED_N*%
X33488300Y-75905400D03*
%TO.N,MISO0*%
X48754900Y-101542000D03*
X25063500Y-73682000D03*
%TO.N,MISO0_RAW*%
X51636300Y-100805500D03*
%TO.N,MISO1*%
X49039200Y-106056300D03*
%TO.N,MISO1_RAW*%
X51773700Y-105061100D03*
%TO.N,MOSI0*%
X65729700Y-33479000D03*
%TO.N,PICO_3V3*%
X34532100Y-72120700D03*
X57375800Y-81000000D03*
%TO.N,POWER_GOOD*%
X34091100Y-73345300D03*
%TO.N,P_ADC_CS0*%
X42832000Y-67863900D03*
%TO.N,P_ADC_CS1*%
X48879400Y-66721700D03*
%TO.N,P_ADC_CS2*%
X47843900Y-66173900D03*
%TO.N,P_ADC_CS3*%
X46154300Y-65791500D03*
%TO.N,P_CS0*%
X48873600Y-36770200D03*
%TO.N,P_CS1*%
X48870900Y-38625000D03*
%TO.N,P_CS2*%
X54876300Y-40656000D03*
%TO.N,P_CS3*%
X54074300Y-40419200D03*
%TO.N,P_MOSI0*%
X48873300Y-35690400D03*
%TO.N,P_MOSI1*%
X62528000Y-71553600D03*
%TO.N,P_SCK0*%
X48884200Y-34076500D03*
%TO.N,P_SCK1*%
X53868000Y-42474000D03*
%TO.N,SCK0*%
X65741400Y-28785500D03*
%TO.N,SENS_3V3*%
X59261400Y-67461400D03*
X56527000Y-64325100D03*
%TD*%
D15*
%TO.N,ADC_CS0*%
X79959200Y-98040800D02*
X78233000Y-98040800D01*
X82000000Y-96000000D02*
X79959200Y-98040800D01*
%TO.N,ADC_CS1*%
X50781800Y-61208400D02*
X57248400Y-67675000D01*
X84000000Y-96000000D02*
X82618300Y-94618300D01*
X74428800Y-96999200D02*
X71139900Y-96999200D01*
X71139900Y-96999200D02*
X62236300Y-88095600D01*
X41736900Y-61208400D02*
X50781800Y-61208400D01*
X75023100Y-96404900D02*
X74428800Y-96999200D01*
X75023100Y-95595400D02*
X75023100Y-96404900D01*
X76000200Y-94618300D02*
X75023100Y-95595400D01*
X82618300Y-94618300D02*
X76000200Y-94618300D01*
%TO.N,ADC_CS2*%
X43108600Y-68975000D02*
X42665800Y-69417800D01*
X83550900Y-86877100D02*
X88999800Y-81428200D01*
X88999800Y-81428200D02*
X88999800Y-80535700D01*
X88999800Y-80535700D02*
X77439100Y-68975000D01*
X57122400Y-68975000D02*
X43108600Y-68975000D01*
X77439100Y-68975000D02*
X57122400Y-68975000D01*
X83275800Y-86877100D02*
X83550900Y-86877100D01*
%TO.N,ADC_CS3*%
X76000700Y-97435000D02*
X59657000Y-97435000D01*
X59657000Y-97435000D02*
X55644100Y-93422100D01*
X77595400Y-95023100D02*
X77023100Y-95595400D01*
X82429700Y-95023100D02*
X77595400Y-95023100D01*
X82976900Y-96406700D02*
X82976900Y-95570300D01*
X87015600Y-96984400D02*
X83554600Y-96984400D01*
X82976900Y-95570300D02*
X82429700Y-95023100D01*
X88000000Y-96000000D02*
X87015600Y-96984400D01*
X77023100Y-95595400D02*
X77023100Y-96412600D01*
X83554600Y-96984400D02*
X82976900Y-96406700D01*
X77023100Y-96412600D02*
X76000700Y-97435000D01*
%TO.N,ADC_MOSI_BUF*%
X54089800Y-37767900D02*
X52586400Y-37767900D01*
X56927100Y-40605200D02*
X54089800Y-37767900D01*
X57356200Y-40605200D02*
X56927100Y-40605200D01*
%TO.N,ADC_SCK_BUF*%
X58549400Y-40595600D02*
X57772900Y-39819100D01*
X56710400Y-39819100D02*
X54003600Y-37112300D01*
X57772900Y-39819100D02*
X56710400Y-39819100D01*
X54003600Y-37112300D02*
X51453200Y-37112300D01*
%TO.N,CS0*%
X57112900Y-37682900D02*
X57112900Y-37938300D01*
X64011900Y-30783900D02*
X78216100Y-30783900D01*
X59308400Y-35487400D02*
X57112900Y-37682900D01*
X59308400Y-35487400D02*
X64011900Y-30783900D01*
X78216100Y-30783900D02*
X80000000Y-29000000D01*
X59308400Y-35487400D02*
X40800000Y-16979000D01*
%TO.N,CS1*%
X57129000Y-38815200D02*
X43536500Y-25222700D01*
X78583700Y-38583700D02*
X57360500Y-38583700D01*
X57360500Y-38583700D02*
X57129000Y-38815200D01*
X80000000Y-40000000D02*
X78583700Y-38583700D01*
X43536500Y-25222700D02*
X41749600Y-25222700D01*
%TO.N,CS2*%
X56967700Y-41215100D02*
X70215100Y-41215100D01*
X54766000Y-39013400D02*
X56967700Y-41215100D01*
X51438500Y-39013400D02*
X54766000Y-39013400D01*
X70215100Y-41215100D02*
X80000000Y-51000000D01*
%TO.N,CS3*%
X50836600Y-39262600D02*
X51391200Y-39817200D01*
X50836600Y-38550100D02*
X50836600Y-39262600D01*
X54999600Y-39817200D02*
X56827000Y-41644600D01*
X56827000Y-41644600D02*
X59644600Y-41644600D01*
X59644600Y-41644600D02*
X80000000Y-62000000D01*
X51391200Y-39817200D02*
X54999600Y-39817200D01*
X51410600Y-37976100D02*
X50836600Y-38550100D01*
%TO.N,CS_ADXL*%
X75397000Y-70397000D02*
X86000000Y-81000000D01*
X24997000Y-70397000D02*
X75397000Y-70397000D01*
X15110000Y-60510000D02*
X24997000Y-70397000D01*
%TO.N,DRDY_ADXL*%
X87003500Y-81996500D02*
X88000000Y-81000000D01*
X73304400Y-70891500D02*
X83000000Y-80587100D01*
X20411500Y-70891500D02*
X73304400Y-70891500D01*
X83582100Y-81996500D02*
X87003500Y-81996500D01*
X83000000Y-81414400D02*
X83582100Y-81996500D01*
X83000000Y-80587100D02*
X83000000Y-81414400D01*
X15110000Y-65590000D02*
X20411500Y-70891500D01*
%TO.N,GND*%
X56876800Y-39417200D02*
X53962100Y-36502500D01*
X49490700Y-39329200D02*
X48894900Y-39925000D01*
X15110000Y-37650000D02*
X13536600Y-39223400D01*
X13536600Y-48776600D02*
X15110000Y-50350000D01*
X32890000Y-37650000D02*
X49280000Y-37650000D01*
X77023100Y-39023100D02*
X58233700Y-39023100D01*
X13536600Y-39223400D02*
X13536600Y-48776600D01*
X53962100Y-36502500D02*
X50848900Y-36502500D01*
X49490700Y-37860700D02*
X49490700Y-39329200D01*
X50848900Y-36502500D02*
X49490700Y-37860700D01*
X78000000Y-40000000D02*
X77023100Y-39023100D01*
X49280000Y-37650000D02*
X49490700Y-37860700D01*
X57839600Y-39417200D02*
X56876800Y-39417200D01*
X88214800Y-94214800D02*
X75785200Y-94214800D01*
X90000000Y-96000000D02*
X88214800Y-94214800D01*
X75785200Y-94214800D02*
X74000000Y-96000000D01*
X58233700Y-39023100D02*
X57839600Y-39417200D01*
%TO.N,LIFT_STOWED_N*%
X49379200Y-104086000D02*
X67343700Y-122050500D01*
X74050500Y-122050500D02*
X76000000Y-124000000D01*
X67343700Y-122050500D02*
X74050500Y-122050500D01*
X33488300Y-75905400D02*
X49379200Y-91796300D01*
X49379200Y-91796300D02*
X49379200Y-104086000D01*
%TO.N,MISO0*%
X48754900Y-97373400D02*
X48754900Y-101542000D01*
X25063500Y-73682000D02*
X48754900Y-97373400D01*
%TO.N,MISO0_RAW*%
X86000000Y-62000000D02*
X89426400Y-65426400D01*
X63021900Y-87495200D02*
X62954800Y-87428100D01*
X62954800Y-87428100D02*
X60786800Y-87428100D01*
X83553300Y-87495200D02*
X63021900Y-87495200D01*
X60786800Y-87428100D02*
X51636300Y-96578600D01*
X89426400Y-81622100D02*
X83553300Y-87495200D01*
X51636300Y-96578600D02*
X51636300Y-100805500D01*
X89426400Y-65426400D02*
X89426400Y-81622100D01*
%TO.N,MISO1*%
X13499600Y-59580400D02*
X13499600Y-83295100D01*
X15110000Y-57970000D02*
X13499600Y-59580400D01*
X13499600Y-83295100D02*
X36260800Y-106056300D01*
X36260800Y-106056300D02*
X49039200Y-106056300D01*
%TO.N,MISO1_RAW*%
X70361600Y-105061100D02*
X51773700Y-105061100D01*
X80000000Y-96000000D02*
X79422700Y-96000000D01*
X79422700Y-96000000D02*
X70361600Y-105061100D01*
%TO.N,MOSI0*%
X84000000Y-40000000D02*
X84000000Y-37958000D01*
X84000000Y-37958000D02*
X79521000Y-33479000D01*
X84000000Y-29000000D02*
X79521000Y-33479000D01*
X79521000Y-33479000D02*
X65729700Y-33479000D01*
%TO.N,PICO_3V3*%
X25773700Y-72120700D02*
X15976900Y-81917500D01*
X43411400Y-81000000D02*
X34532100Y-72120700D01*
X75023100Y-81000000D02*
X57375800Y-81000000D01*
X34532100Y-72120700D02*
X25773700Y-72120700D01*
X15000000Y-83000000D02*
X15976900Y-83000000D01*
X15976900Y-81917500D02*
X15976900Y-83000000D01*
X76000000Y-81000000D02*
X75023100Y-81000000D01*
X57375800Y-81000000D02*
X43411400Y-81000000D01*
%TO.N,POWER_GOOD*%
X50437300Y-104575800D02*
X50437300Y-89691500D01*
X62856000Y-116994500D02*
X50437300Y-104575800D01*
X78000000Y-124000000D02*
X70994500Y-116994500D01*
X70994500Y-116994500D02*
X62856000Y-116994500D01*
X50437300Y-89691500D02*
X34091100Y-73345300D01*
%TO.N,P_ADC_CS0*%
X33156100Y-67863900D02*
X32890000Y-68130000D01*
X42832000Y-67863900D02*
X33156100Y-67863900D01*
%TO.N,P_ADC_CS1*%
X34095300Y-66795300D02*
X48805800Y-66795300D01*
X48805800Y-66795300D02*
X48879400Y-66721700D01*
X32890000Y-65590000D02*
X34095300Y-66795300D01*
%TO.N,P_ADC_CS2*%
X47624400Y-66393400D02*
X47843900Y-66173900D01*
X32890000Y-60510000D02*
X38773400Y-66393400D01*
X38773400Y-66393400D02*
X47624400Y-66393400D01*
%TO.N,P_ADC_CS3*%
X40711500Y-65791500D02*
X32890000Y-57970000D01*
X46154300Y-65791500D02*
X40711500Y-65791500D01*
%TO.N,P_CS0*%
X48873600Y-36770200D02*
X48483400Y-36380000D01*
X16380000Y-36380000D02*
X15110000Y-35110000D01*
X48483400Y-36380000D02*
X16380000Y-36380000D01*
%TO.N,P_CS1*%
X15110000Y-40190000D02*
X16435600Y-38864400D01*
X48631500Y-38864400D02*
X48870900Y-38625000D01*
X16435600Y-38864400D02*
X48631500Y-38864400D01*
%TO.N,P_CS2*%
X54798100Y-40656000D02*
X54876300Y-40656000D01*
X14625800Y-46448500D02*
X49005600Y-46448500D01*
X49005600Y-46448500D02*
X54798100Y-40656000D01*
X13946700Y-43893300D02*
X13946700Y-45769400D01*
X13946700Y-45769400D02*
X14625800Y-46448500D01*
X15110000Y-42730000D02*
X13946700Y-43893300D01*
%TO.N,P_CS3*%
X15110000Y-45270000D02*
X18920000Y-41460000D01*
X18920000Y-41460000D02*
X53033500Y-41460000D01*
X53033500Y-41460000D02*
X54074300Y-40419200D01*
%TO.N,P_MOSI0*%
X15110000Y-30030000D02*
X16439900Y-31359900D01*
X16439900Y-31359900D02*
X44542800Y-31359900D01*
X44542800Y-31359900D02*
X48873300Y-35690400D01*
%TO.N,P_MOSI1*%
X62528000Y-71553600D02*
X72553600Y-71553600D01*
X72553600Y-71553600D02*
X82000000Y-81000000D01*
X14555700Y-59358100D02*
X15416800Y-59358100D01*
X16265000Y-56585000D02*
X15110000Y-55430000D01*
X13930900Y-68579900D02*
X13930900Y-59982900D01*
X16265000Y-58509900D02*
X16265000Y-56585000D01*
X62473500Y-71499100D02*
X16850100Y-71499100D01*
X13930900Y-59982900D02*
X14555700Y-59358100D01*
X62528000Y-71553600D02*
X62473500Y-71499100D01*
X15416800Y-59358100D02*
X16265000Y-58509900D01*
X16850100Y-71499100D02*
X13930900Y-68579900D01*
%TO.N,P_SCK0*%
X15110000Y-27490000D02*
X16380000Y-28760000D01*
X16380000Y-28760000D02*
X43567700Y-28760000D01*
X43567700Y-28760000D02*
X48884200Y-34076500D01*
%TO.N,P_SCK1*%
X15110000Y-52890000D02*
X16380000Y-51620000D01*
X44722000Y-51620000D02*
X53868000Y-42474000D01*
X16380000Y-51620000D02*
X44722000Y-51620000D01*
%TO.N,SCK0*%
X82000000Y-29000000D02*
X81023100Y-28023100D01*
X66503800Y-28023100D02*
X65741400Y-28785500D01*
X81023100Y-28023100D02*
X66503800Y-28023100D01*
%TO.N,SENS_3V3*%
X59261400Y-67461400D02*
X59261400Y-67059500D01*
X59261400Y-67059500D02*
X56527000Y-64325100D01*
X64722800Y-62000000D02*
X76000000Y-62000000D01*
X59261400Y-67461400D02*
X64722800Y-62000000D01*
%TD*%
M02*
