M48
; DRILL file {KiCad 9.0.9-9.0.9~ubuntu24.04.1} date 2026-10-04T13:19:44+0000
; FORMAT={-:-/ absolute / metric / decimal}
; #@! TF.CreationDate,2026-10-04T13:19:44+00:00
; #@! TF.GenerationSoftware,Kicad,Pcbnew,9.0.9-9.0.9~ubuntu24.04.1
; #@! TF.FileFunction,MixedPlating,1,2
FMAT,2
METRIC
; #@! TA.AperFunction,Plated,PTH,ViaDrill
T1C0.300
; #@! TA.AperFunction,Plated,PTH,ComponentDrill
T2C0.750
; #@! TA.AperFunction,Plated,PTH,ComponentDrill
T3C1.000
; #@! TA.AperFunction,NonPlated,NPTH,ComponentDrill
T4C2.200
%
G90
G05
T1
X26.633Y-79.625
X30.718Y-68.629
X31.2Y-114.993
X36.75Y-80.67
X39.861Y-63.706
X40.8Y-25.985
X41.003Y-63.117
X42.666Y-16.305
X43.195Y-63.724
X46.643Y-66.32
X48.456Y-39.523
X48.546Y-37.283
X48.555Y-66.356
X48.869Y-35.987
X48.88Y-38.791
X48.887Y-64.992
X48.892Y-34.725
X49.016Y-102.8
X51.408Y-36.955
X51.525Y-41.046
X51.561Y-101.669
X51.853Y-108.434
X51.961Y-39.07
X52.473Y-105.795
X52.569Y-46.361
X52.953Y-64.221
X53.367Y-43.778
X53.969Y-39.726
X54.584Y-40.267
X54.648Y-81.0
X56.744Y-81.606
X57.137Y-39.273
X58.028Y-82.18
X58.707Y-36.344
X60.42Y-83.078
X61.022Y-84.043
X63.2Y-39.997
X63.2Y-47.428
X65.752Y-33.0
X65.777Y-29.025
X76.931Y-90.786
T2
X15.0Y-83.0
X17.0Y-83.0
X19.0Y-83.0
X21.0Y-83.0
X72.0Y-96.0
X74.0Y-96.0
X74.0Y-124.0
X76.0Y-29.0
X76.0Y-40.0
X76.0Y-51.0
X76.0Y-62.0
X76.0Y-81.0
X76.0Y-96.0
X76.0Y-124.0
X78.0Y-29.0
X78.0Y-40.0
X78.0Y-51.0
X78.0Y-62.0
X78.0Y-81.0
X78.0Y-96.0
X78.0Y-124.0
X79.0Y-12.0
X80.0Y-29.0
X80.0Y-40.0
X80.0Y-51.0
X80.0Y-62.0
X80.0Y-81.0
X80.0Y-96.0
X80.0Y-124.0
X81.0Y-12.0
X82.0Y-29.0
X82.0Y-40.0
X82.0Y-51.0
X82.0Y-62.0
X82.0Y-81.0
X82.0Y-96.0
X84.0Y-29.0
X84.0Y-40.0
X84.0Y-51.0
X84.0Y-62.0
X84.0Y-81.0
X84.0Y-96.0
X86.0Y-29.0
X86.0Y-40.0
X86.0Y-51.0
X86.0Y-62.0
X86.0Y-81.0
X86.0Y-96.0
X88.0Y-81.0
X88.0Y-96.0
X90.0Y-96.0
T3
X15.11Y-19.87
X15.11Y-22.41
X15.11Y-24.95
X15.11Y-27.49
X15.11Y-30.03
X15.11Y-32.57
X15.11Y-35.11
X15.11Y-37.65
X15.11Y-40.19
X15.11Y-42.73
X15.11Y-45.27
X15.11Y-47.81
X15.11Y-50.35
X15.11Y-52.89
X15.11Y-55.43
X15.11Y-57.97
X15.11Y-60.51
X15.11Y-63.05
X15.11Y-65.59
X15.11Y-68.13
X32.89Y-19.87
X32.89Y-22.41
X32.89Y-24.95
X32.89Y-27.49
X32.89Y-30.03
X32.89Y-32.57
X32.89Y-35.11
X32.89Y-37.65
X32.89Y-40.19
X32.89Y-42.73
X32.89Y-45.27
X32.89Y-47.81
X32.89Y-50.35
X32.89Y-52.89
X32.89Y-55.43
X32.89Y-57.97
X32.89Y-60.51
X32.89Y-63.05
X32.89Y-65.59
X32.89Y-68.13
T4
X4.0Y-4.0
X4.0Y-136.0
X96.0Y-4.0
X96.0Y-136.0
M30
