%TF.GenerationSoftware,KiCad,Pcbnew,9.0.9-9.0.9~ubuntu24.04.1*%
%TF.CreationDate,2026-10-04T14:20:15+00:00*%
%TF.ProjectId,carrier_r2,63617272-6965-4725-9f72-322e6b696361,rev?*%
%TF.SameCoordinates,Original*%
%TF.FileFunction,Soldermask,Top*%
%TF.FilePolarity,Negative*%
%FSLAX46Y46*%
G04 Gerber Fmt 4.6, Leading zero omitted, Abs format (unit mm)*
G04 Created by KiCad (PCBNEW 9.0.9-9.0.9~ubuntu24.04.1) date 2026-10-04 14:20:15*
%MOMM*%
%LPD*%
G01*
G04 APERTURE LIST*
%ADD10R,0.850000X0.950000*%
%ADD11C,2.200000*%
%ADD12R,1.700000X1.700000*%
%ADD13C,1.700000*%
%ADD14R,1.350000X1.350000*%
%ADD15C,1.350000*%
%ADD16R,1.000000X0.600000*%
%ADD17R,1.500000X0.450000*%
%ADD18R,1.500000X0.600000*%
G04 APERTURE END LIST*
D10*
%TO.C,R7*%
X39200000Y-70000000D03*
X40800000Y-70000000D03*
%TD*%
%TO.C,R9*%
X17200000Y-110000000D03*
X18800000Y-110000000D03*
%TD*%
%TO.C,R18*%
X63200000Y-49000000D03*
X64800000Y-49000000D03*
%TD*%
%TO.C,R11*%
X31200000Y-114000000D03*
X32800000Y-114000000D03*
%TD*%
%TO.C,R16*%
X63200000Y-33000000D03*
X64800000Y-33000000D03*
%TD*%
%TO.C,R14*%
X52200000Y-120000000D03*
X53800000Y-120000000D03*
%TD*%
%TO.C,R10*%
X17200000Y-116000000D03*
X18800000Y-116000000D03*
%TD*%
D11*
%TO.C,MH1*%
X4000000Y-4000000D03*
%TD*%
D12*
%TO.C,U1*%
X15110000Y-19870000D03*
D13*
X15110000Y-22410000D03*
X15110000Y-24950001D03*
X15110000Y-27490001D03*
X15110000Y-30030001D03*
X15110000Y-32570000D03*
X15110000Y-35110001D03*
X15110000Y-37650001D03*
X15110000Y-40190001D03*
X15110000Y-42730001D03*
X15110000Y-45269999D03*
X15110000Y-47810000D03*
X15110000Y-50350000D03*
X15110000Y-52890000D03*
X15110000Y-55430000D03*
X15110000Y-57970000D03*
X15110000Y-60510000D03*
X15110000Y-63050000D03*
X15110000Y-65590000D03*
X15110000Y-68130000D03*
X32890000Y-68130000D03*
X32890000Y-65590000D03*
X32890000Y-63049999D03*
X32890000Y-60509999D03*
X32890000Y-57969999D03*
X32890000Y-55430000D03*
X32890000Y-52889999D03*
X32890000Y-50349999D03*
X32890000Y-47809999D03*
X32890000Y-45269999D03*
X32890000Y-42730001D03*
X32890000Y-40190000D03*
X32890000Y-37650000D03*
X32890000Y-35110000D03*
X32890000Y-32570000D03*
X32890000Y-30030000D03*
X32890000Y-27490000D03*
X32890000Y-24950000D03*
X32890000Y-22410000D03*
X32890000Y-19870000D03*
%TD*%
D10*
%TO.C,R13*%
X52200000Y-115000000D03*
X53800000Y-115000000D03*
%TD*%
%TO.C,C2*%
X60200000Y-68000000D03*
X61800000Y-68000000D03*
%TD*%
D14*
%TO.C,J7*%
X15000000Y-83000000D03*
D15*
X17000000Y-83000000D03*
X19000000Y-83000000D03*
X21000000Y-83000000D03*
%TD*%
D10*
%TO.C,C4*%
X87200000Y-17000000D03*
X88800000Y-17000000D03*
%TD*%
D14*
%TO.C,J2*%
X76000000Y-29000000D03*
D15*
X78000000Y-29000000D03*
X80000000Y-29000000D03*
X82000000Y-29000000D03*
X84000000Y-29000000D03*
X86000000Y-29000000D03*
%TD*%
D16*
%TO.C,Q1*%
X23900000Y-113050000D03*
X23900000Y-114950000D03*
X26100000Y-114000000D03*
%TD*%
D14*
%TO.C,J4*%
X76000000Y-51000000D03*
D15*
X78000000Y-51000000D03*
X80000000Y-51000000D03*
X82000000Y-51000000D03*
X84000000Y-51000000D03*
X86000000Y-51000000D03*
%TD*%
D17*
%TO.C,U3*%
X50150000Y-65075000D03*
X50150000Y-65725000D03*
X50150000Y-66375001D03*
X50150000Y-67025001D03*
X50150000Y-67675001D03*
X50150000Y-68325000D03*
X50150000Y-68975000D03*
X50150000Y-69625000D03*
X50150000Y-70275000D03*
X50150000Y-70925000D03*
X55850000Y-70925000D03*
X55850000Y-70275000D03*
X55850000Y-69624999D03*
X55850000Y-68974999D03*
X55850000Y-68324999D03*
X55850000Y-67675000D03*
X55850000Y-67025000D03*
X55850000Y-66375000D03*
X55850000Y-65725000D03*
X55850000Y-65075000D03*
%TD*%
D10*
%TO.C,C3*%
X60200000Y-104000000D03*
X61800000Y-104000000D03*
%TD*%
D11*
%TO.C,MH4*%
X96000000Y-136000000D03*
%TD*%
D14*
%TO.C,J6*%
X76000000Y-81000000D03*
D15*
X78000000Y-81000000D03*
X80000000Y-81000000D03*
X82000000Y-81000000D03*
X84000000Y-81000000D03*
X86000000Y-81000000D03*
X88000000Y-81000000D03*
%TD*%
D14*
%TO.C,J8*%
X72000000Y-96000000D03*
D15*
X74000000Y-96000000D03*
X76000000Y-96000000D03*
X78000000Y-96000000D03*
X80000000Y-96000000D03*
X82000000Y-96000000D03*
X84000000Y-96000000D03*
X86000000Y-96000000D03*
X88000000Y-96000000D03*
X90000000Y-96000000D03*
%TD*%
D14*
%TO.C,J3*%
X76000000Y-40000000D03*
D15*
X78000000Y-40000000D03*
X80000000Y-40000000D03*
X82000000Y-40000000D03*
X84000000Y-40000000D03*
X86000000Y-40000000D03*
%TD*%
D10*
%TO.C,R5*%
X39200000Y-52000000D03*
X40800000Y-52000000D03*
%TD*%
%TO.C,R17*%
X63200000Y-45000000D03*
X64800000Y-45000000D03*
%TD*%
D14*
%TO.C,J9*%
X74000000Y-124000000D03*
D15*
X76000000Y-124000000D03*
X78000000Y-124000000D03*
X80000000Y-124000000D03*
%TD*%
D10*
%TO.C,R12*%
X63200000Y-125000000D03*
X64800000Y-125000000D03*
%TD*%
%TO.C,R8*%
X39200000Y-79000000D03*
X40800000Y-79000000D03*
%TD*%
%TO.C,R3*%
X39200000Y-34000000D03*
X40800000Y-34000000D03*
%TD*%
%TO.C,R4*%
X39200000Y-43000000D03*
X40800000Y-43000000D03*
%TD*%
%TO.C,R15*%
X63200000Y-29000000D03*
X64800000Y-29000000D03*
%TD*%
D11*
%TO.C,MH3*%
X4000000Y-136000000D03*
%TD*%
D18*
%TO.C,U4*%
X50300000Y-100190000D03*
X50300000Y-101460000D03*
X50300000Y-102730000D03*
X50300000Y-104000000D03*
X50300000Y-105270000D03*
X50300000Y-106539999D03*
X50300000Y-107810000D03*
X55700000Y-107810000D03*
X55700000Y-106540000D03*
X55700000Y-105270000D03*
X55700000Y-104000000D03*
X55700000Y-102730000D03*
X55700000Y-101460001D03*
X55700000Y-100190000D03*
%TD*%
D14*
%TO.C,J5*%
X76000000Y-62000000D03*
D15*
X78000000Y-62000000D03*
X80000000Y-62000000D03*
X82000000Y-62000000D03*
X84000000Y-62000000D03*
X86000000Y-62000000D03*
%TD*%
D11*
%TO.C,MH2*%
X96000000Y-4000000D03*
%TD*%
D10*
%TO.C,R2*%
X39200000Y-25000000D03*
X40800000Y-25000000D03*
%TD*%
D17*
%TO.C,U2*%
X50150000Y-34075000D03*
X50150000Y-34725000D03*
X50150000Y-35375001D03*
X50150000Y-36025001D03*
X50150000Y-36675001D03*
X50150000Y-37325000D03*
X50150000Y-37975000D03*
X50150000Y-38625000D03*
X50150000Y-39275000D03*
X50150000Y-39925000D03*
X55850000Y-39925000D03*
X55850000Y-39275000D03*
X55850000Y-38624999D03*
X55850000Y-37974999D03*
X55850000Y-37324999D03*
X55850000Y-36675000D03*
X55850000Y-36025000D03*
X55850000Y-35375000D03*
X55850000Y-34725000D03*
X55850000Y-34075000D03*
%TD*%
D14*
%TO.C,J1*%
X79000000Y-12000000D03*
D15*
X81000000Y-12000000D03*
%TD*%
D10*
%TO.C,R1*%
X39200000Y-16000000D03*
X40800000Y-16000000D03*
%TD*%
%TO.C,C1*%
X60200000Y-37000000D03*
X61800000Y-37000000D03*
%TD*%
%TO.C,R6*%
X39200000Y-61000000D03*
X40800000Y-61000000D03*
%TD*%
M02*
