M48
; DRILL file {KiCad 9.0.9-9.0.9~ubuntu24.04.1} date 2026-10-04T13:56:15+0000
; FORMAT={-:-/ absolute / metric / decimal}
; #@! TF.CreationDate,2026-10-04T13:56:15+00:00
; #@! TF.GenerationSoftware,Kicad,Pcbnew,9.0.9-9.0.9~ubuntu24.04.1
; #@! TF.FileFunction,MixedPlating,1,2
FMAT,2
METRIC
; #@! TA.AperFunction,Plated,PTH,ViaDrill
T1C0.300
; #@! TA.AperFunction,Plated,PTH,ComponentDrill
T2C0.750
; #@! TA.AperFunction,Plated,PTH,ComponentDrill
T3C1.000
; #@! TA.AperFunction,NonPlated,NPTH,ComponentDrill
T4C2.200
%
G90
G05
T1
X25.063Y-73.682
X33.488Y-75.905
X34.091Y-73.345
X34.532Y-72.121
X40.8Y-16.979
X41.737Y-61.208
X41.75Y-25.223
X42.666Y-69.418
X42.832Y-67.864
X46.154Y-65.791
X47.844Y-66.174
X48.755Y-101.542
X48.871Y-38.625
X48.873Y-35.69
X48.874Y-36.77
X48.879Y-66.722
X48.884Y-34.076
X48.895Y-39.925
X49.039Y-106.056
X51.411Y-37.976
X51.438Y-39.013
X51.453Y-37.112
X51.636Y-100.805
X51.774Y-105.061
X52.586Y-37.768
X53.868Y-42.474
X54.074Y-40.419
X54.876Y-40.656
X55.644Y-93.422
X56.527Y-64.325
X57.113Y-37.938
X57.122Y-68.975
X57.129Y-38.815
X57.248Y-67.675
X57.356Y-40.605
X57.376Y-81.0
X58.549Y-40.596
X59.261Y-67.461
X62.236Y-88.096
X62.528Y-71.554
X65.73Y-33.479
X65.741Y-28.785
X78.233Y-98.041
X83.276Y-86.877
T2
X15.0Y-83.0
X17.0Y-83.0
X19.0Y-83.0
X21.0Y-83.0
X72.0Y-96.0
X74.0Y-96.0
X74.0Y-124.0
X76.0Y-29.0
X76.0Y-40.0
X76.0Y-51.0
X76.0Y-62.0
X76.0Y-81.0
X76.0Y-96.0
X76.0Y-124.0
X78.0Y-29.0
X78.0Y-40.0
X78.0Y-51.0
X78.0Y-62.0
X78.0Y-81.0
X78.0Y-96.0
X78.0Y-124.0
X79.0Y-12.0
X80.0Y-29.0
X80.0Y-40.0
X80.0Y-51.0
X80.0Y-62.0
X80.0Y-81.0
X80.0Y-96.0
X80.0Y-124.0
X81.0Y-12.0
X82.0Y-29.0
X82.0Y-40.0
X82.0Y-51.0
X82.0Y-62.0
X82.0Y-81.0
X82.0Y-96.0
X84.0Y-29.0
X84.0Y-40.0
X84.0Y-51.0
X84.0Y-62.0
X84.0Y-81.0
X84.0Y-96.0
X86.0Y-29.0
X86.0Y-40.0
X86.0Y-51.0
X86.0Y-62.0
X86.0Y-81.0
X86.0Y-96.0
X88.0Y-81.0
X88.0Y-96.0
X90.0Y-96.0
T3
X15.11Y-19.87
X15.11Y-22.41
X15.11Y-24.95
X15.11Y-27.49
X15.11Y-30.03
X15.11Y-32.57
X15.11Y-35.11
X15.11Y-37.65
X15.11Y-40.19
X15.11Y-42.73
X15.11Y-45.27
X15.11Y-47.81
X15.11Y-50.35
X15.11Y-52.89
X15.11Y-55.43
X15.11Y-57.97
X15.11Y-60.51
X15.11Y-63.05
X15.11Y-65.59
X15.11Y-68.13
X32.89Y-19.87
X32.89Y-22.41
X32.89Y-24.95
X32.89Y-27.49
X32.89Y-30.03
X32.89Y-32.57
X32.89Y-35.11
X32.89Y-37.65
X32.89Y-40.19
X32.89Y-42.73
X32.89Y-45.27
X32.89Y-47.81
X32.89Y-50.35
X32.89Y-52.89
X32.89Y-55.43
X32.89Y-57.97
X32.89Y-60.51
X32.89Y-63.05
X32.89Y-65.59
X32.89Y-68.13
T4
X4.0Y-4.0
X4.0Y-136.0
X96.0Y-4.0
X96.0Y-136.0
M30
