M48
; DRILL file {KiCad 9.0.9-9.0.9~ubuntu24.04.1} date 2026-10-04T14:20:16+0000
; FORMAT={-:-/ absolute / metric / decimal}
; #@! TF.CreationDate,2026-10-04T14:20:16+00:00
; #@! TF.GenerationSoftware,Kicad,Pcbnew,9.0.9-9.0.9~ubuntu24.04.1
; #@! TF.FileFunction,MixedPlating,1,2
FMAT,2
METRIC
; #@! TA.AperFunction,Plated,PTH,ViaDrill
T1C0.300
; #@! TA.AperFunction,Plated,PTH,ComponentDrill
T2C0.750
; #@! TA.AperFunction,Plated,PTH,ComponentDrill
T3C1.000
; #@! TA.AperFunction,NonPlated,NPTH,ComponentDrill
T4C2.200
%
G90
G05
T1
X36.738Y-85.267
X38.685Y-72.983
X40.8Y-16.979
X41.036Y-55.378
X41.74Y-25.213
X42.341Y-78.786
X43.309Y-78.952
X44.176Y-84.442
X46.076Y-67.364
X47.098Y-66.741
X47.729Y-33.864
X47.949Y-67.024
X48.822Y-67.728
X48.87Y-37.038
X48.886Y-38.625
X48.898Y-33.761
X49.672Y-40.662
X51.161Y-43.026
X51.356Y-49.912
X51.407Y-36.74
X51.433Y-69.223
X51.801Y-104.959
X52.478Y-78.952
X52.482Y-39.99
X53.417Y-54.081
X53.656Y-49.115
X54.104Y-66.227
X54.31Y-84.838
X54.584Y-68.014
X54.592Y-39.046
X54.798Y-40.628
X56.348Y-84.081
X57.118Y-37.285
X57.323Y-38.5
X57.946Y-74.812
X61.307Y-40.533
X62.937Y-46.551
X63.2Y-40.42
X65.731Y-33.59
X66.694Y-28.908
X76.837Y-100.023
X78.786Y-77.812
X80.59Y-78.075
T2
X15.0Y-83.0
X17.0Y-83.0
X19.0Y-83.0
X21.0Y-83.0
X72.0Y-96.0
X74.0Y-96.0
X74.0Y-124.0
X76.0Y-29.0
X76.0Y-40.0
X76.0Y-51.0
X76.0Y-62.0
X76.0Y-81.0
X76.0Y-96.0
X76.0Y-124.0
X78.0Y-29.0
X78.0Y-40.0
X78.0Y-51.0
X78.0Y-62.0
X78.0Y-81.0
X78.0Y-96.0
X78.0Y-124.0
X79.0Y-12.0
X80.0Y-29.0
X80.0Y-40.0
X80.0Y-51.0
X80.0Y-62.0
X80.0Y-81.0
X80.0Y-96.0
X80.0Y-124.0
X81.0Y-12.0
X82.0Y-29.0
X82.0Y-40.0
X82.0Y-51.0
X82.0Y-62.0
X82.0Y-81.0
X82.0Y-96.0
X84.0Y-29.0
X84.0Y-40.0
X84.0Y-51.0
X84.0Y-62.0
X84.0Y-81.0
X84.0Y-96.0
X86.0Y-29.0
X86.0Y-40.0
X86.0Y-51.0
X86.0Y-62.0
X86.0Y-81.0
X86.0Y-96.0
X88.0Y-81.0
X88.0Y-96.0
X90.0Y-96.0
T3
X15.11Y-19.87
X15.11Y-22.41
X15.11Y-24.95
X15.11Y-27.49
X15.11Y-30.03
X15.11Y-32.57
X15.11Y-35.11
X15.11Y-37.65
X15.11Y-40.19
X15.11Y-42.73
X15.11Y-45.27
X15.11Y-47.81
X15.11Y-50.35
X15.11Y-52.89
X15.11Y-55.43
X15.11Y-57.97
X15.11Y-60.51
X15.11Y-63.05
X15.11Y-65.59
X15.11Y-68.13
X32.89Y-19.87
X32.89Y-22.41
X32.89Y-24.95
X32.89Y-27.49
X32.89Y-30.03
X32.89Y-32.57
X32.89Y-35.11
X32.89Y-37.65
X32.89Y-40.19
X32.89Y-42.73
X32.89Y-45.27
X32.89Y-47.81
X32.89Y-50.35
X32.89Y-52.89
X32.89Y-55.43
X32.89Y-57.97
X32.89Y-60.51
X32.89Y-63.05
X32.89Y-65.59
X32.89Y-68.13
T4
X4.0Y-4.0
X4.0Y-136.0
X96.0Y-4.0
X96.0Y-136.0
M30
