M48
; DRILL file {KiCad 9.0.9-9.0.9~ubuntu24.04.1} date 2026-10-04T14:00:59+0000
; FORMAT={-:-/ absolute / metric / decimal}
; #@! TF.CreationDate,2026-10-04T14:00:59+00:00
; #@! TF.GenerationSoftware,Kicad,Pcbnew,9.0.9-9.0.9~ubuntu24.04.1
; #@! TF.FileFunction,MixedPlating,1,2
FMAT,2
METRIC
; #@! TA.AperFunction,Plated,PTH,ViaDrill
T1C0.300
; #@! TA.AperFunction,Plated,PTH,ComponentDrill
T2C0.750
; #@! TA.AperFunction,Plated,PTH,ComponentDrill
T3C1.000
; #@! TA.AperFunction,NonPlated,NPTH,ComponentDrill
T4C2.200
%
G90
G05
T1
X34.042Y-103.769
X37.177Y-65.254
X37.797Y-78.737
X38.633Y-77.189
X39.927Y-69.106
X40.691Y-64.105
X41.747Y-16.22
X43.637Y-64.643
X45.976Y-38.225
X47.235Y-66.926
X48.24Y-39.301
X48.468Y-66.418
X48.857Y-38.749
X48.879Y-36.048
X48.888Y-37.283
X48.889Y-65.075
X48.89Y-33.84
X49.016Y-102.766
X51.72Y-105.156
X52.455Y-37.379
X53.307Y-43.955
X53.945Y-70.901
X54.077Y-43.131
X54.216Y-40.789
X54.548Y-39.227
X54.568Y-64.897
X54.569Y-67.607
X54.595Y-35.266
X54.646Y-71.505
X55.21Y-33.191
X55.852Y-40.679
X56.968Y-81.0
X57.107Y-36.063
X57.109Y-68.091
X57.226Y-38.251
X57.876Y-42.848
X60.927Y-67.016
X62.25Y-44.776
X62.728Y-68.083
X65.73Y-33.479
X65.761Y-28.925
X78.957Y-60.273
T2
X15.0Y-83.0
X17.0Y-83.0
X19.0Y-83.0
X21.0Y-83.0
X72.0Y-96.0
X74.0Y-96.0
X74.0Y-124.0
X76.0Y-29.0
X76.0Y-40.0
X76.0Y-51.0
X76.0Y-62.0
X76.0Y-81.0
X76.0Y-96.0
X76.0Y-124.0
X78.0Y-29.0
X78.0Y-40.0
X78.0Y-51.0
X78.0Y-62.0
X78.0Y-81.0
X78.0Y-96.0
X78.0Y-124.0
X79.0Y-12.0
X80.0Y-29.0
X80.0Y-40.0
X80.0Y-51.0
X80.0Y-62.0
X80.0Y-81.0
X80.0Y-96.0
X80.0Y-124.0
X81.0Y-12.0
X82.0Y-29.0
X82.0Y-40.0
X82.0Y-51.0
X82.0Y-62.0
X82.0Y-81.0
X82.0Y-96.0
X84.0Y-29.0
X84.0Y-40.0
X84.0Y-51.0
X84.0Y-62.0
X84.0Y-81.0
X84.0Y-96.0
X86.0Y-29.0
X86.0Y-40.0
X86.0Y-51.0
X86.0Y-62.0
X86.0Y-81.0
X86.0Y-96.0
X88.0Y-81.0
X88.0Y-96.0
X90.0Y-96.0
T3
X15.11Y-19.87
X15.11Y-22.41
X15.11Y-24.95
X15.11Y-27.49
X15.11Y-30.03
X15.11Y-32.57
X15.11Y-35.11
X15.11Y-37.65
X15.11Y-40.19
X15.11Y-42.73
X15.11Y-45.27
X15.11Y-47.81
X15.11Y-50.35
X15.11Y-52.89
X15.11Y-55.43
X15.11Y-57.97
X15.11Y-60.51
X15.11Y-63.05
X15.11Y-65.59
X15.11Y-68.13
X32.89Y-19.87
X32.89Y-22.41
X32.89Y-24.95
X32.89Y-27.49
X32.89Y-30.03
X32.89Y-32.57
X32.89Y-35.11
X32.89Y-37.65
X32.89Y-40.19
X32.89Y-42.73
X32.89Y-45.27
X32.89Y-47.81
X32.89Y-50.35
X32.89Y-52.89
X32.89Y-55.43
X32.89Y-57.97
X32.89Y-60.51
X32.89Y-63.05
X32.89Y-65.59
X32.89Y-68.13
T4
X4.0Y-4.0
X4.0Y-136.0
X96.0Y-4.0
X96.0Y-136.0
M30
