%TF.GenerationSoftware,KiCad,Pcbnew,9.0.9-9.0.9~ubuntu24.04.1*%
%TF.CreationDate,2026-10-02T19:30:16+00:00*%
%TF.ProjectId,encoder,656e636f-6465-4722-9e6b-696361645f70,rev?*%
%TF.SameCoordinates,Original*%
%TF.FileFunction,Legend,Top*%
%TF.FilePolarity,Positive*%
%FSLAX46Y46*%
G04 Gerber Fmt 4.6, Leading zero omitted, Abs format (unit mm)*
G04 Created by KiCad (PCBNEW 9.0.9-9.0.9~ubuntu24.04.1) date 2026-10-02 19:30:16*
%MOMM*%
%LPD*%
G01*
G04 APERTURE LIST*
%ADD10C,0.120000*%
G04 APERTURE END LIST*
D10*
X13866667Y-15287664D02*
X13828571Y-15325760D01*
X13828571Y-15325760D02*
X13714286Y-15363855D01*
X13714286Y-15363855D02*
X13638095Y-15363855D01*
X13638095Y-15363855D02*
X13523809Y-15325760D01*
X13523809Y-15325760D02*
X13447619Y-15249569D01*
X13447619Y-15249569D02*
X13409524Y-15173379D01*
X13409524Y-15173379D02*
X13371428Y-15020998D01*
X13371428Y-15020998D02*
X13371428Y-14906712D01*
X13371428Y-14906712D02*
X13409524Y-14754331D01*
X13409524Y-14754331D02*
X13447619Y-14678140D01*
X13447619Y-14678140D02*
X13523809Y-14601950D01*
X13523809Y-14601950D02*
X13638095Y-14563855D01*
X13638095Y-14563855D02*
X13714286Y-14563855D01*
X13714286Y-14563855D02*
X13828571Y-14601950D01*
X13828571Y-14601950D02*
X13866667Y-14640045D01*
X14171428Y-14640045D02*
X14209524Y-14601950D01*
X14209524Y-14601950D02*
X14285714Y-14563855D01*
X14285714Y-14563855D02*
X14476190Y-14563855D01*
X14476190Y-14563855D02*
X14552381Y-14601950D01*
X14552381Y-14601950D02*
X14590476Y-14640045D01*
X14590476Y-14640045D02*
X14628571Y-14716236D01*
X14628571Y-14716236D02*
X14628571Y-14792426D01*
X14628571Y-14792426D02*
X14590476Y-14906712D01*
X14590476Y-14906712D02*
X14133333Y-15363855D01*
X14133333Y-15363855D02*
X14628571Y-15363855D01*
X3733333Y436144D02*
X3733333Y-135283D01*
X3733333Y-135283D02*
X3695238Y-249569D01*
X3695238Y-249569D02*
X3619047Y-325760D01*
X3619047Y-325760D02*
X3504762Y-363855D01*
X3504762Y-363855D02*
X3428571Y-363855D01*
X4533333Y-363855D02*
X4076190Y-363855D01*
X4304762Y-363855D02*
X4304762Y436144D01*
X4304762Y436144D02*
X4228571Y321859D01*
X4228571Y321859D02*
X4152381Y245668D01*
X4152381Y245668D02*
X4076190Y207573D01*
X8390476Y-8563855D02*
X8390476Y-9211474D01*
X8390476Y-9211474D02*
X8428571Y-9287664D01*
X8428571Y-9287664D02*
X8466666Y-9325760D01*
X8466666Y-9325760D02*
X8542857Y-9363855D01*
X8542857Y-9363855D02*
X8695238Y-9363855D01*
X8695238Y-9363855D02*
X8771428Y-9325760D01*
X8771428Y-9325760D02*
X8809523Y-9287664D01*
X8809523Y-9287664D02*
X8847619Y-9211474D01*
X8847619Y-9211474D02*
X8847619Y-8563855D01*
X9647618Y-9363855D02*
X9190475Y-9363855D01*
X9419047Y-9363855D02*
X9419047Y-8563855D01*
X9419047Y-8563855D02*
X9342856Y-8678140D01*
X9342856Y-8678140D02*
X9266666Y-8754331D01*
X9266666Y-8754331D02*
X9190475Y-8792426D01*
X13866667Y-12287664D02*
X13828571Y-12325760D01*
X13828571Y-12325760D02*
X13714286Y-12363855D01*
X13714286Y-12363855D02*
X13638095Y-12363855D01*
X13638095Y-12363855D02*
X13523809Y-12325760D01*
X13523809Y-12325760D02*
X13447619Y-12249569D01*
X13447619Y-12249569D02*
X13409524Y-12173379D01*
X13409524Y-12173379D02*
X13371428Y-12020998D01*
X13371428Y-12020998D02*
X13371428Y-11906712D01*
X13371428Y-11906712D02*
X13409524Y-11754331D01*
X13409524Y-11754331D02*
X13447619Y-11678140D01*
X13447619Y-11678140D02*
X13523809Y-11601950D01*
X13523809Y-11601950D02*
X13638095Y-11563855D01*
X13638095Y-11563855D02*
X13714286Y-11563855D01*
X13714286Y-11563855D02*
X13828571Y-11601950D01*
X13828571Y-11601950D02*
X13866667Y-11640045D01*
X14628571Y-12363855D02*
X14171428Y-12363855D01*
X14400000Y-12363855D02*
X14400000Y-11563855D01*
X14400000Y-11563855D02*
X14323809Y-11678140D01*
X14323809Y-11678140D02*
X14247619Y-11754331D01*
X14247619Y-11754331D02*
X14171428Y-11792426D01*
M02*
