%TF.GenerationSoftware,KiCad,Pcbnew,9.0.9-9.0.9~ubuntu24.04.1*%
%TF.CreationDate,2026-10-04T13:56:12+00:00*%
%TF.ProjectId,force,666f7263-652e-46b6-9963-61645f706362,rev?*%
%TF.SameCoordinates,Original*%
%TF.FileFunction,Copper,L1,Top*%
%TF.FilePolarity,Positive*%
%FSLAX46Y46*%
G04 Gerber Fmt 4.6, Leading zero omitted, Abs format (unit mm)*
G04 Created by KiCad (PCBNEW 9.0.9-9.0.9~ubuntu24.04.1) date 2026-10-04 13:56:12*
%MOMM*%
%LPD*%
G01*
G04 APERTURE LIST*
%TA.AperFunction,SMDPad,CuDef*%
%ADD10R,0.850000X0.950000*%
%TD*%
%TA.AperFunction,ComponentPad*%
%ADD11R,1.350000X1.350000*%
%TD*%
%TA.AperFunction,ComponentPad*%
%ADD12C,1.350000*%
%TD*%
%TA.AperFunction,SMDPad,CuDef*%
%ADD13R,1.000000X0.600000*%
%TD*%
%TA.AperFunction,Conductor*%
%ADD14C,0.200000*%
%TD*%
G04 APERTURE END LIST*
D10*
%TO.P,R1,1*%
%TO.N,HALL_RAW*%
X11900000Y-5500000D03*
%TO.P,R1,2*%
%TO.N,FORCE_OUT*%
X13500000Y-5500000D03*
%TD*%
D11*
%TO.P,J1,1*%
%TO.N,SENS_3V3*%
X5000000Y-9500000D03*
D12*
%TO.P,J1,2*%
%TO.N,GND*%
X7000000Y-9500000D03*
%TO.P,J1,3*%
%TO.N,FORCE_OUT*%
X9000000Y-9500000D03*
%TD*%
D10*
%TO.P,C1,1*%
%TO.N,SENS_3V3*%
X4000000Y-5500000D03*
%TO.P,C1,2*%
%TO.N,GND*%
X5600000Y-5500000D03*
%TD*%
D13*
%TO.P,U1,1*%
%TO.N,SENS_3V3*%
X7900000Y-5050000D03*
%TO.P,U1,2*%
%TO.N,HALL_RAW*%
X7900000Y-6950000D03*
%TO.P,U1,3*%
%TO.N,GND*%
X10100000Y-6000000D03*
%TD*%
D10*
%TO.P,C2,1*%
%TO.N,FORCE_OUT*%
X12200000Y-8000000D03*
%TO.P,C2,2*%
%TO.N,GND*%
X13800000Y-8000000D03*
%TD*%
D14*
%TO.N,FORCE_OUT*%
X11836600Y-8000000D02*
X13500000Y-6336600D01*
X12200000Y-8000000D02*
X11836600Y-8000000D01*
X9000000Y-9500000D02*
X9973100Y-9500000D01*
X9973100Y-9500000D02*
X11473100Y-8000000D01*
X13500000Y-6336600D02*
X13500000Y-5500000D01*
X11836600Y-8000000D02*
X11473100Y-8000000D01*
%TO.N,GND*%
X7000000Y-6000000D02*
X6826900Y-6000000D01*
X5600000Y-5500000D02*
X6326900Y-5500000D01*
X13800000Y-8000000D02*
X13073100Y-8000000D01*
X7000000Y-9500000D02*
X7000000Y-6000000D01*
X10100000Y-6000000D02*
X7000000Y-6000000D01*
X13073100Y-8454300D02*
X13073100Y-8000000D01*
X8021900Y-10521900D02*
X11005500Y-10521900D01*
X11005500Y-10521900D02*
X13073100Y-8454300D01*
X6826900Y-6000000D02*
X6326900Y-5500000D01*
X7000000Y-9500000D02*
X8021900Y-10521900D01*
%TO.N,HALL_RAW*%
X10450000Y-6950000D02*
X11173100Y-6226900D01*
X11900000Y-5500000D02*
X11173100Y-5500000D01*
X11173100Y-6226900D02*
X11173100Y-5500000D01*
X7900000Y-6950000D02*
X10450000Y-6950000D01*
%TO.N,SENS_3V3*%
X5000000Y-8523100D02*
X4726900Y-8250000D01*
X5049500Y-4723100D02*
X4726900Y-5045700D01*
X6771200Y-4723100D02*
X5049500Y-4723100D01*
X7098100Y-5050000D02*
X6771200Y-4723100D01*
X7900000Y-5050000D02*
X7098100Y-5050000D01*
X5000000Y-9500000D02*
X5000000Y-8523100D01*
X4000000Y-5500000D02*
X4726900Y-5500000D01*
X4726900Y-5045700D02*
X4726900Y-5500000D01*
X4726900Y-8250000D02*
X4726900Y-5500000D01*
%TD*%
M02*
