%TF.GenerationSoftware,KiCad,Pcbnew,9.0.9-9.0.9~ubuntu24.04.1*%
%TF.CreationDate,2026-10-04T14:00:56+00:00*%
%TF.ProjectId,force,666f7263-652e-46b6-9963-61645f706362,rev?*%
%TF.SameCoordinates,Original*%
%TF.FileFunction,AssemblyDrawing,Top*%
%FSLAX46Y46*%
G04 Gerber Fmt 4.6, Leading zero omitted, Abs format (unit mm)*
G04 Created by KiCad (PCBNEW 9.0.9-9.0.9~ubuntu24.04.1) date 2026-10-04 14:00:56*
%MOMM*%
%LPD*%
G01*
G04 APERTURE LIST*
%ADD10C,0.120000*%
G04 APERTURE END LIST*
D10*
X6514285Y-10495831D02*
X6428571Y-10452974D01*
X6428571Y-10452974D02*
X6342857Y-10367260D01*
X6342857Y-10367260D02*
X6214285Y-10238688D01*
X6214285Y-10238688D02*
X6128571Y-10195831D01*
X6128571Y-10195831D02*
X6042857Y-10195831D01*
X6085714Y-10410117D02*
X6000000Y-10367260D01*
X6000000Y-10367260D02*
X5914285Y-10281545D01*
X5914285Y-10281545D02*
X5871428Y-10110117D01*
X5871428Y-10110117D02*
X5871428Y-9810117D01*
X5871428Y-9810117D02*
X5914285Y-9638688D01*
X5914285Y-9638688D02*
X6000000Y-9552974D01*
X6000000Y-9552974D02*
X6085714Y-9510117D01*
X6085714Y-9510117D02*
X6257142Y-9510117D01*
X6257142Y-9510117D02*
X6342857Y-9552974D01*
X6342857Y-9552974D02*
X6428571Y-9638688D01*
X6428571Y-9638688D02*
X6471428Y-9810117D01*
X6471428Y-9810117D02*
X6471428Y-10110117D01*
X6471428Y-10110117D02*
X6428571Y-10281545D01*
X6428571Y-10281545D02*
X6342857Y-10367260D01*
X6342857Y-10367260D02*
X6257142Y-10410117D01*
X6257142Y-10410117D02*
X6085714Y-10410117D01*
X6857142Y-9510117D02*
X6857142Y-10238688D01*
X6857142Y-10238688D02*
X6899999Y-10324402D01*
X6899999Y-10324402D02*
X6942857Y-10367260D01*
X6942857Y-10367260D02*
X7028571Y-10410117D01*
X7028571Y-10410117D02*
X7199999Y-10410117D01*
X7199999Y-10410117D02*
X7285714Y-10367260D01*
X7285714Y-10367260D02*
X7328571Y-10324402D01*
X7328571Y-10324402D02*
X7371428Y-10238688D01*
X7371428Y-10238688D02*
X7371428Y-9510117D01*
X8228571Y-10410117D02*
X7799999Y-10410117D01*
X7799999Y-10410117D02*
X7799999Y-9510117D01*
X8485713Y-10152974D02*
X8914285Y-10152974D01*
X8399999Y-10410117D02*
X8699999Y-9510117D01*
X8699999Y-9510117D02*
X8999999Y-10410117D01*
X9471428Y-9981545D02*
X9471428Y-10410117D01*
X9171428Y-9510117D02*
X9471428Y-9981545D01*
X9471428Y-9981545D02*
X9771428Y-9510117D01*
X11271428Y-10410117D02*
X10971428Y-9981545D01*
X10757142Y-10410117D02*
X10757142Y-9510117D01*
X10757142Y-9510117D02*
X11099999Y-9510117D01*
X11099999Y-9510117D02*
X11185714Y-9552974D01*
X11185714Y-9552974D02*
X11228571Y-9595831D01*
X11228571Y-9595831D02*
X11271428Y-9681545D01*
X11271428Y-9681545D02*
X11271428Y-9810117D01*
X11271428Y-9810117D02*
X11228571Y-9895831D01*
X11228571Y-9895831D02*
X11185714Y-9938688D01*
X11185714Y-9938688D02*
X11099999Y-9981545D01*
X11099999Y-9981545D02*
X10757142Y-9981545D01*
X11614285Y-9595831D02*
X11657142Y-9552974D01*
X11657142Y-9552974D02*
X11742857Y-9510117D01*
X11742857Y-9510117D02*
X11957142Y-9510117D01*
X11957142Y-9510117D02*
X12042857Y-9552974D01*
X12042857Y-9552974D02*
X12085714Y-9595831D01*
X12085714Y-9595831D02*
X12128571Y-9681545D01*
X12128571Y-9681545D02*
X12128571Y-9767260D01*
X12128571Y-9767260D02*
X12085714Y-9895831D01*
X12085714Y-9895831D02*
X11571428Y-10410117D01*
X11571428Y-10410117D02*
X12128571Y-10410117D01*
X4666667Y-2787664D02*
X4628571Y-2825760D01*
X4628571Y-2825760D02*
X4514286Y-2863855D01*
X4514286Y-2863855D02*
X4438095Y-2863855D01*
X4438095Y-2863855D02*
X4323809Y-2825760D01*
X4323809Y-2825760D02*
X4247619Y-2749569D01*
X4247619Y-2749569D02*
X4209524Y-2673379D01*
X4209524Y-2673379D02*
X4171428Y-2520998D01*
X4171428Y-2520998D02*
X4171428Y-2406712D01*
X4171428Y-2406712D02*
X4209524Y-2254331D01*
X4209524Y-2254331D02*
X4247619Y-2178140D01*
X4247619Y-2178140D02*
X4323809Y-2101950D01*
X4323809Y-2101950D02*
X4438095Y-2063855D01*
X4438095Y-2063855D02*
X4514286Y-2063855D01*
X4514286Y-2063855D02*
X4628571Y-2101950D01*
X4628571Y-2101950D02*
X4666667Y-2140045D01*
X5428571Y-2863855D02*
X4971428Y-2863855D01*
X5200000Y-2863855D02*
X5200000Y-2063855D01*
X5200000Y-2063855D02*
X5123809Y-2178140D01*
X5123809Y-2178140D02*
X5047619Y-2254331D01*
X5047619Y-2254331D02*
X4971428Y-2292426D01*
X12866667Y-5287664D02*
X12828571Y-5325760D01*
X12828571Y-5325760D02*
X12714286Y-5363855D01*
X12714286Y-5363855D02*
X12638095Y-5363855D01*
X12638095Y-5363855D02*
X12523809Y-5325760D01*
X12523809Y-5325760D02*
X12447619Y-5249569D01*
X12447619Y-5249569D02*
X12409524Y-5173379D01*
X12409524Y-5173379D02*
X12371428Y-5020998D01*
X12371428Y-5020998D02*
X12371428Y-4906712D01*
X12371428Y-4906712D02*
X12409524Y-4754331D01*
X12409524Y-4754331D02*
X12447619Y-4678140D01*
X12447619Y-4678140D02*
X12523809Y-4601950D01*
X12523809Y-4601950D02*
X12638095Y-4563855D01*
X12638095Y-4563855D02*
X12714286Y-4563855D01*
X12714286Y-4563855D02*
X12828571Y-4601950D01*
X12828571Y-4601950D02*
X12866667Y-4640045D01*
X13171428Y-4640045D02*
X13209524Y-4601950D01*
X13209524Y-4601950D02*
X13285714Y-4563855D01*
X13285714Y-4563855D02*
X13476190Y-4563855D01*
X13476190Y-4563855D02*
X13552381Y-4601950D01*
X13552381Y-4601950D02*
X13590476Y-4640045D01*
X13590476Y-4640045D02*
X13628571Y-4716236D01*
X13628571Y-4716236D02*
X13628571Y-4792426D01*
X13628571Y-4792426D02*
X13590476Y-4906712D01*
X13590476Y-4906712D02*
X13133333Y-5363855D01*
X13133333Y-5363855D02*
X13628571Y-5363855D01*
X4733333Y-6063855D02*
X4733333Y-6635283D01*
X4733333Y-6635283D02*
X4695238Y-6749569D01*
X4695238Y-6749569D02*
X4619047Y-6825760D01*
X4619047Y-6825760D02*
X4504762Y-6863855D01*
X4504762Y-6863855D02*
X4428571Y-6863855D01*
X5533333Y-6863855D02*
X5076190Y-6863855D01*
X5304762Y-6863855D02*
X5304762Y-6063855D01*
X5304762Y-6063855D02*
X5228571Y-6178140D01*
X5228571Y-6178140D02*
X5152381Y-6254331D01*
X5152381Y-6254331D02*
X5076190Y-6292426D01*
X8390476Y-2563855D02*
X8390476Y-3211474D01*
X8390476Y-3211474D02*
X8428571Y-3287664D01*
X8428571Y-3287664D02*
X8466666Y-3325760D01*
X8466666Y-3325760D02*
X8542857Y-3363855D01*
X8542857Y-3363855D02*
X8695238Y-3363855D01*
X8695238Y-3363855D02*
X8771428Y-3325760D01*
X8771428Y-3325760D02*
X8809523Y-3287664D01*
X8809523Y-3287664D02*
X8847619Y-3211474D01*
X8847619Y-3211474D02*
X8847619Y-2563855D01*
X9647618Y-3363855D02*
X9190475Y-3363855D01*
X9419047Y-3363855D02*
X9419047Y-2563855D01*
X9419047Y-2563855D02*
X9342856Y-2678140D01*
X9342856Y-2678140D02*
X9266666Y-2754331D01*
X9266666Y-2754331D02*
X9190475Y-2792426D01*
X12566667Y-2863855D02*
X12300000Y-2482902D01*
X12109524Y-2863855D02*
X12109524Y-2063855D01*
X12109524Y-2063855D02*
X12414286Y-2063855D01*
X12414286Y-2063855D02*
X12490476Y-2101950D01*
X12490476Y-2101950D02*
X12528571Y-2140045D01*
X12528571Y-2140045D02*
X12566667Y-2216236D01*
X12566667Y-2216236D02*
X12566667Y-2330521D01*
X12566667Y-2330521D02*
X12528571Y-2406712D01*
X12528571Y-2406712D02*
X12490476Y-2444807D01*
X12490476Y-2444807D02*
X12414286Y-2482902D01*
X12414286Y-2482902D02*
X12109524Y-2482902D01*
X13328571Y-2863855D02*
X12871428Y-2863855D01*
X13100000Y-2863855D02*
X13100000Y-2063855D01*
X13100000Y-2063855D02*
X13023809Y-2178140D01*
X13023809Y-2178140D02*
X12947619Y-2254331D01*
X12947619Y-2254331D02*
X12871428Y-2292426D01*
M02*
